<svg width="60" height="60" viewBox="0 0 60 60" fill="none" xmlns="http://www.w3.org/2000/svg">
<g clip-path="url(#clip0_16253_34017)">
<circle cx="30" cy="30" r="30" fill="#070708"/>
<path d="M12 30.275C12 28.2691 12.3951 26.2828 13.1628 24.4295C13.9304 22.5762 15.0556 20.8923 16.474 19.4739C17.8924 18.0555 19.5764 16.9303 21.4296 16.1627C23.2829 15.3951 25.2692 15 27.2752 15V30.275H12Z" fill="#A6DEEB"/>
<path d="M44.1516 47.0017C42.1457 47.0017 40.1594 46.6066 38.3061 45.839C36.4528 45.0713 34.7689 43.9462 33.3505 42.5277C31.932 41.1093 30.8069 39.4254 30.0392 37.5721C29.2716 35.7188 28.8765 33.7325 28.8765 31.7266H44.1516V47.0017Z" fill="#6ABAD0"/>
<path d="M38.6338 15.0039H28.7986V30.2789H44.1516V20.5217C44.1516 19.7971 44.0089 19.0796 43.7316 18.4101C43.4543 17.7406 43.0479 17.1324 42.5355 16.62C42.0231 16.1076 41.4148 15.7012 40.7454 15.4239C40.0759 15.1466 39.3584 15.0039 38.6338 15.0039ZM36.4756 25.7073C35.6625 25.7073 34.8826 25.3843 34.3077 24.8094C33.7327 24.2344 33.4097 23.4545 33.4097 22.6414C33.4097 21.8283 33.7327 21.0484 34.3077 20.4735C34.8826 19.8985 35.6625 19.5755 36.4756 19.5755C36.8782 19.5755 37.2769 19.6548 37.6488 19.8089C38.0208 19.9629 38.3588 20.1888 38.6435 20.4735C38.9282 20.7582 39.154 21.0962 39.308 21.4681C39.4621 21.8401 39.5414 22.2388 39.5413 22.6414C39.5414 23.044 39.4621 23.4427 39.308 23.8147C39.154 24.1867 38.9282 24.5246 38.6435 24.8093C38.3588 25.094 38.0208 25.3199 37.6488 25.474C37.2769 25.628 36.8782 25.7073 36.4756 25.7073Z" fill="#6ABAD0"/>
</g>
<defs>
<clipPath id="clip0_16253_34017">
<rect width="60" height="60" fill="white"/>
</clipPath>
</defs>
</svg>
