<?xml version="1.0" encoding="UTF-8"?>
<svg width="180px" height="180px" viewBox="0 0 180 180" version="1.1" xmlns="http://www.w3.org/2000/svg" xmlns:xlink="http://www.w3.org/1999/xlink">
    <title>编组 3</title>
    <defs>
        <linearGradient x1="50%" y1="0%" x2="50%" y2="100%" id="linearGradient-1">
            <stop stop-color="#FFFFFF" offset="0%"></stop>
            <stop stop-color="#4ADDFF" offset="100%"></stop>
        </linearGradient>
    </defs>
    <g id="页面-1" stroke="none" stroke-width="1" fill="none" fill-rule="evenodd">
        <g id="编组-3">
            <circle id="蒙版" fill="#000000" cx="90" cy="90" r="90"></circle>
            <path d="M27,75 C59.8057141,75 86.4621143,101.328343 86.9919617,134.00779 L87,135 L27,135 L27,75 Z" id="路径" fill="#A6DEEB" transform="translate(57, 105) scale(-1, 1) translate(-57, -105)"></path>
            <path d="M131.4,75 C143.210057,75 152.806361,84.4782035 152.997106,96.2428045 L153,96.6 L153,135 L93,135 L93,75 L131.4,75 Z M123,93 C116.372583,93 111,98.372583 111,105 C111,111.627417 116.372583,117 123,117 C129.627417,117 135,111.627417 135,105 C135,98.372583 129.627417,93 123,93 Z" id="形状" fill="#6ABAD0"></path>
            <path d="M153,141 L153.002536,154.270409 C140.428159,166.598262 124.251479,175.265261 106.197544,178.54636 C97.940129,168.267009 93,155.210419 93,141 L153,141 Z" id="形状结合" fill="#6ABAD0"></path>
            <path d="M60,63 L60,22 L70.1612903,22 L70.1612903,54.0994398 L87,54.0994398 L87,63 L60,63 Z M93,63 L93,22 L109.047059,22 C114.031373,22 117.769608,23.1293184 120.261765,25.3879552 C122.753922,27.646592 124,30.8814192 124,35.092437 C124,37.6573296 123.493464,40.0308123 122.480392,42.2128852 C121.46732,44.394958 119.846405,46.136788 117.617647,47.4383754 C115.388889,48.7399627 112.430719,49.3907563 108.743137,49.3907563 L103.029412,49.3907563 L103.029412,63 L93,63 Z M107.527451,41.0644258 C108.743137,41.0644258 109.786601,40.8443044 110.657843,40.4040616 C111.529085,39.9638189 112.197712,39.3034547 112.663725,38.4229692 C113.129739,37.5424837 113.362745,36.4705882 113.362745,35.2072829 C113.362745,33.7525677 112.927124,32.5753968 112.055882,31.6757703 C111.184641,30.7761438 109.735948,30.3263305 107.709804,30.3263305 L103.029412,30.3263305 L103.029412,41.0644258 L107.527451,41.0644258 Z" id="形状结合备份" fill="url(#linearGradient-1)"></path>
        </g>
    </g>
</svg>