<svg width="60" height="60" viewBox="0 0 60 60" fill="none" xmlns="http://www.w3.org/2000/svg">
<path d="M30 60C46.5685 60 60 46.5685 60 30C60 13.4315 46.5685 0 30 0C13.4315 0 0 13.4315 0 30C0 46.5685 13.4315 60 30 60Z" fill="white"/>
<mask id="mask0_15861_31214" style="mask-type:alpha" maskUnits="userSpaceOnUse" x="0" y="0" width="60" height="60">
<path d="M30 60C46.5685 60 60 46.5685 60 30C60 13.4315 46.5685 0 30 0C13.4315 0 0 13.4315 0 30C0 46.5685 13.4315 60 30 60Z" fill="black"/>
</mask>
<g mask="url(#mask0_15861_31214)">
<rect x="-0.310364" y="12.2344" width="60.6207" height="8.74121" fill="black"/>
<rect x="-0.310364" y="26.9756" width="60.6207" height="8.74121" fill="black"/>
<rect x="-0.310364" y="41.7168" width="60.6207" height="8.74121" fill="black"/>
</g>
<path d="M45.1774 45.7213H46.8082V44.0905V16.9102V15.2793H45.1774H37.3198H36.2015L35.7985 16.3225L30.5 30.0376L25.2015 16.3225L24.7985 15.2793H23.6802H15.8226H14.1918V16.9102V44.0905V45.7213H15.8226H21.8085H23.4393V44.0905V35.3055L27.0375 44.4075L27.4452 45.4387H28.5541H32.4459H33.5536L33.9619 44.4089L37.5607 35.331V44.0905V45.7213H39.1915H45.1774Z" fill="white" stroke="black" stroke-width="3.26164"/>
<path d="M27.0031 19.4883H33.9969L31.3556 26.1864L28.1641 24.1493L27.0031 19.4883Z" fill="black"/>
</svg>
