<svg width="60" height="60" viewBox="0 0 60 60" fill="none" xmlns="http://www.w3.org/2000/svg">
<path d="M30 60C46.5685 60 60 46.5685 60 30C60 13.4315 46.5685 0 30 0C13.4315 0 0 13.4315 0 30C0 46.5685 13.4315 60 30 60Z" fill="black"/>
<mask id="mask0_15461_40811" style="mask-type:alpha" maskUnits="userSpaceOnUse" x="0" y="0" width="60" height="60">
<path d="M30 60C46.5685 60 60 46.5685 60 30C60 13.4315 46.5685 0 30 0C13.4315 0 0 13.4315 0 30C0 46.5685 13.4315 60 30 60Z" fill="black"/>
</mask>
<g mask="url(#mask0_15461_40811)">
<path d="M46.4701 19.5319H41.1628C40.5445 19.5319 39.9562 19.2602 39.5469 18.7874L37.3939 16.2974C37.0735 15.9257 36.6116 15.7143 36.1284 15.7143C35.6453 15.7143 35.1834 15.927 34.8629 16.2974L33.0167 18.4337C32.4121 19.1321 31.5446 19.5332 30.6334 19.5332H1.58218C0.754788 21.9476 0.215296 24.4978 0 27.1429H27.4252C27.9071 27.1429 28.369 26.9417 28.702 26.5854L31.2555 23.857C31.5747 23.5162 32.0153 23.3239 32.4759 23.3239H32.581C33.0655 23.3239 33.5261 23.5367 33.8465 23.9083L35.9982 26.3983C36.4076 26.8725 36.9959 27.1429 37.6142 27.1429H60C59.7847 24.4965 59.2452 21.9463 58.4178 19.5332H46.4689L46.4701 19.5319Z" fill="white"/>
<path d="M16.4094 42.8571C16.8981 42.8571 17.3664 42.6573 17.704 42.3034L20.2932 39.5933C20.6168 39.2547 21.0636 39.0637 21.5307 39.0637H21.6373C22.1284 39.0637 22.5955 39.2751 22.9204 39.6429L25.1022 42.1163C25.5172 42.5873 26.1137 42.8559 26.7407 42.8559H57.501C58.6534 40.4678 59.4974 37.9054 60 35.2207H30.4747C29.8477 35.2207 29.2512 34.9508 28.8362 34.4811L26.6544 32.0078C26.3295 31.6386 25.8611 31.4286 25.3712 31.4286C24.8813 31.4286 24.413 31.6399 24.0881 32.0078L22.216 34.1298C21.603 34.8235 20.7234 35.222 19.7982 35.222H0C0.502602 37.9066 1.34789 40.4691 2.49905 42.8571H16.4094Z" fill="white"/>
<path d="M38.1887 11.4286C38.6748 11.4286 39.1407 11.2418 39.4765 10.9111L42.0523 8.37873C42.3742 8.06233 42.8187 7.88391 43.2833 7.88391H43.3894C43.878 7.88391 44.3426 8.08136 44.6659 8.42631L46.8363 10.7375C47.2492 11.1776 47.8426 11.4286 48.4663 11.4286H54.2857C48.7441 4.48912 39.9298 0 30.0006 0C20.0715 0 11.2572 4.48912 5.71429 11.4286H38.1887Z" fill="white"/>
<path d="M18.9403 50.746C18.3384 50.746 17.7657 50.4896 17.3673 50.0433L15.2728 47.6932C14.9609 47.3424 14.5113 47.1429 14.041 47.1429C13.5707 47.1429 13.1211 47.3436 12.8091 47.6932L11.0119 49.7095C10.4234 50.3686 9.57907 50.7472 8.69084 50.7472H8.57143C13.9216 56.438 21.5404 60 30 60C38.4596 60 46.0772 56.438 51.4286 50.7472L18.9403 50.746Z" fill="white"/>
</g>
<path d="M22.5022 44.3175C21.1688 36.7146 24.9452 20.6054 24.5452 19.693L36.2906 16.1992L37.5564 44.9626L22.5022 44.3175Z" fill="black"/>
<path d="M44 41.9998H38.4943V26.3899H38.375L32.2898 41.7399H28.7102L22.642 26.3899H22.5057V41.9998H17V16.9998H24.2273L30.4318 33.06H30.5682L36.7727 16.9998H44V41.9998Z" fill="white"/>
<path fill-rule="evenodd" clip-rule="evenodd" d="M26.9933 15.8354L26.2844 14.0002H14V45.0002H19.576L19.9639 47.212L40.6974 48.1005L40.5609 45.0002H47V14.0002H39.1967L39.1187 12.2285L26.9933 15.8354ZM25.1933 19.5007L24.2273 17.0002H17V42.0002H22.2555C22.2987 42.8335 22.3784 43.6124 22.5022 44.318L37.5564 44.9631L36.9025 30.1048L38.375 26.3904H38.4943V42.0002H44V17.0002H36.7727L36.3715 18.0388L36.2906 16.1997L25.1933 19.5007ZM22.5057 34.9902C22.5256 34.7812 22.5463 34.5719 22.5677 34.3625C22.7824 32.2639 23.0708 30.1532 23.362 28.2116L22.642 26.3904H22.5057V34.9902Z" fill="black"/>
</svg>
