<svg width="200" height="200" viewBox="0 0 200 200" fill="none" xmlns="http://www.w3.org/2000/svg">
<circle cx="100" cy="100" r="100" fill="#141414"/>
<path d="M95.4553 63.84C87.3505 57.1464 76.9574 53.125 65.625 53.125C39.7367 53.125 18.75 74.1117 18.75 100C18.75 125.888 39.7367 146.875 65.625 146.875C76.9574 146.875 87.3505 142.854 95.4553 136.16C86.6408 126.677 81.25 113.968 81.25 100C81.25 86.0319 86.6407 73.323 95.4553 63.84Z" fill="white"/>
<path fill-rule="evenodd" clip-rule="evenodd" d="M100 68.1308C92.2427 76.4942 87.5 87.6932 87.5 100C87.5 112.307 92.2427 123.506 100 131.869C108.561 141.099 120.793 146.875 134.375 146.875C160.263 146.875 181.25 125.888 181.25 100C181.25 74.1117 160.263 53.125 134.375 53.125C120.793 53.125 108.561 58.9011 100 68.1308ZM134.375 140.625C122.281 140.625 111.422 135.34 103.98 126.955C109.348 119.33 112.5 110.033 112.5 100C112.5 89.9668 109.348 80.6698 103.98 73.0454C111.422 64.6595 122.281 59.375 134.375 59.375C156.812 59.375 175 77.5634 175 100C175 122.437 156.812 140.625 134.375 140.625Z" fill="white"/>
</svg>
