<?xml version="1.0" encoding="UTF-8"?>
<svg width="500px" height="500px" viewBox="0 0 500 500" version="1.1" xmlns="http://www.w3.org/2000/svg" xmlns:xlink="http://www.w3.org/1999/xlink">
    <title>画板备份</title>
    <g id="画板备份" stroke="none" stroke-width="1" fill="none" fill-rule="evenodd">
        <path d="M75.6835938,103.515625 C155.775669,103.515625 220.854771,167.793806 222.148344,247.577613 L222.167969,250 L75.6835938,250 L75.6835938,103.515625 Z" id="路径" fill="#A6DEEB" transform="translate(148.9258, 176.7578) scale(-1, 1) translate(-148.9258, -176.7578)"></path>
        <path d="M330.566406,103.515625 C359.399553,103.515625 382.82803,126.65577 383.293716,155.377941 L383.300781,156.25 L383.300781,250 L236.816406,250 L236.816406,103.515625 L330.566406,103.515625 Z M310.058594,147.460937 C293.878376,147.460937 280.761719,160.577595 280.761719,176.757812 C280.761719,192.93803 293.878376,206.054687 310.058594,206.054687 C326.238811,206.054687 339.355469,192.93803 339.355469,176.757812 C339.355469,160.577595 326.238811,147.460937 310.058594,147.460937 Z" id="形状" fill="#6ABAD0"></path>
        <path d="M236.816406,264.648438 L383.300781,264.648438 C383.300781,344.740513 319.0226,409.819615 239.238793,411.113188 L236.816406,411.132812 L236.816406,264.648438 Z" id="路径" fill="#6ABAD0" transform="translate(310.0586, 337.8906) scale(-1, 1) translate(-310.0586, -337.8906)"></path>
    </g>
</svg>