<svg width="310" height="182" viewBox="0 0 310 182" fill="none" xmlns="http://www.w3.org/2000/svg">
<path d="M90.4029 136.299C65.3794 136.299 45.1291 116.036 45.1291 90.9976C45.1291 65.9587 65.3794 45.6961 90.4029 45.6961C108.05 45.6961 123.237 55.6826 130.759 70.4454C134.664 53.8011 143.054 38.8936 154.625 27.1702C138.28 10.6706 115.571 0.394531 90.4029 0.394531C40.5005 0.394531 0 40.9199 0 90.8528C0 140.786 40.5005 181.311 90.4029 181.311C115.571 181.311 138.28 171.035 154.625 154.535C143.054 142.812 134.52 127.905 130.759 111.26C123.237 126.168 107.905 136.299 90.4029 136.299Z" fill="#0C0C0C"/>
<path d="M218.703 0.538086C193.535 0.538086 170.825 10.8141 154.48 27.3137C170.681 43.6686 180.806 66.247 180.806 91.1411C180.806 116.035 170.825 138.469 154.48 154.969C170.825 171.468 193.535 181.744 218.703 181.744C268.605 181.744 309.106 141.219 309.106 91.2859C309.106 41.3529 268.75 0.538086 218.703 0.538086Z" fill="#0C0C0C"/>
</svg>
