<svg width="61" height="61" viewBox="0 0 61 61" fill="none" xmlns="http://www.w3.org/2000/svg">
<path d="M30.1235 60.8535C46.6921 60.8535 60.1235 47.4221 60.1235 30.8535C60.1235 14.285 46.6921 0.853516 30.1235 0.853516C13.555 0.853516 0.123535 14.285 0.123535 30.8535C0.123535 47.4221 13.555 60.8535 30.1235 60.8535Z" fill="white"/>
<path d="M44.6038 20.0496C43.8788 22.3073 43.2056 24.3476 42.5842 26.1704C41.9835 27.9932 41.4243 29.671 40.9064 31.2038C40.4093 32.7366 39.9432 34.1555 39.5082 35.4604C39.0733 36.7447 38.6693 37.9771 38.2965 39.1578C38.0894 40.5249 37.4162 41.4881 36.2769 42.0474C35.6141 42.3581 34.827 42.5134 33.9156 42.5134C33.0042 42.5134 32.3206 42.4098 31.8649 42.2027C31.4092 42.0163 31.1193 41.7367 30.995 41.3638C30.85 40.991 30.85 40.5456 30.995 40.0278C31.1193 39.4892 31.3471 38.7643 31.6785 37.8529C32.0099 36.9208 32.4242 35.6676 32.9213 34.0934C33.4392 32.5191 33.9777 30.9242 34.537 29.3085C35.9248 25.2694 37.0226 22.473 37.8305 20.9195C38.1412 20.3395 38.4519 19.9563 38.7626 19.7699C39.0733 19.5628 39.3736 19.4178 39.6636 19.3349C39.9536 19.2314 40.2229 19.1174 40.4714 18.9932C40.72 18.8689 40.9375 18.5582 41.1239 18.0611C41.331 17.5639 41.6935 17.2222 42.2114 17.0357C42.7499 16.8493 43.247 16.839 43.7027 17.0047C44.1792 17.1497 44.5313 17.4811 44.7591 17.9989C45.0077 18.496 44.9559 19.1796 44.6038 20.0496Z" fill="black"/>
<path d="M31.1052 19.9875C31.8095 20.3604 32.2549 20.9093 32.4413 21.6343C32.027 23.9542 31.6542 26.2638 31.3227 28.563C30.9913 30.8415 30.6703 32.7575 30.3596 34.311C30.0489 35.8438 29.8314 36.9934 29.7071 37.7598C29.6035 38.5262 29.4792 39.2926 29.3342 40.059L29.1478 40.7115C29.1064 40.9393 29.065 41.1464 29.0235 41.3329C28.9821 41.54 28.9407 41.7575 28.8993 41.9853C28.3193 42.6482 27.5322 42.9796 26.5379 42.9796C25.4815 42.9796 24.6426 42.7103 24.0212 42.1718C23.6484 41.8818 23.5862 41.2707 23.8348 40.3386C23.9384 39.9658 24.0005 39.4894 24.0212 38.9094C24.0626 38.3087 24.1041 37.8116 24.1455 37.418V37.3559C23.5241 37.5837 22.9648 37.8841 22.4677 38.2569C21.9706 38.609 21.6599 38.8369 21.5356 38.9405C21.4113 39.0233 21.2456 39.0958 21.0385 39.1579C20.8313 39.1994 20.6449 39.2304 20.4792 39.2512C20.0856 39.2719 19.8164 39.334 19.6714 39.4376C18.47 41.5918 17.3929 42.7932 16.4401 43.0417C15.8394 43.2282 15.2387 43.2696 14.638 43.166C14.0373 43.0832 13.5609 42.731 13.2087 42.1096C12.5459 41.4882 12.7116 39.7897 13.7059 37.0141C14.2444 35.5434 15.0108 33.7828 16.0051 31.7321C17.02 29.6608 17.9936 27.8587 18.9257 26.3259C20.9349 23.0324 23.1409 20.2568 25.5437 17.999C25.9372 17.8333 26.3618 17.6469 26.8175 17.4398C27.2732 17.2119 27.7186 17.0877 28.1536 17.0669C28.6093 17.0462 29.0753 17.098 29.5517 17.2223C30.0281 17.3466 30.4321 17.533 30.7635 17.7816C31.5299 18.3615 31.6438 19.0969 31.1052 19.9875ZM24.4562 28.159C24.0212 29.4019 23.5862 30.5515 23.1512 31.6079C22.7163 32.6435 22.3434 33.5549 22.0327 34.342L24.4873 34.2488C24.653 32.9232 24.8394 31.6079 25.0465 30.3029C25.2537 28.9979 25.4504 27.693 25.6369 26.388L24.4562 28.159ZM23.6173 34.3731C23.9073 34.3731 24.1973 34.3524 24.4873 34.311V34.2799C24.218 34.3006 23.9694 34.3213 23.7416 34.342C23.5137 34.3628 23.4723 34.3731 23.6173 34.3731Z" fill="black"/>
</svg>
