<svg width="60" height="60" viewBox="0 0 60 60" fill="none" xmlns="http://www.w3.org/2000/svg">
<path d="M30 60C46.5685 60 60 46.5685 60 30C60 13.4315 46.5685 0 30 0C13.4315 0 0 13.4315 0 30C0 46.5685 13.4315 60 30 60Z" fill="black"/>
<path d="M44.4805 19.196C43.7555 21.4538 43.0823 23.4941 42.4609 25.3169C41.8602 27.1397 41.301 28.8175 40.7831 30.3503C40.286 31.8831 39.8199 33.302 39.385 34.6069C38.95 35.8912 38.5461 37.1236 38.1732 38.3043C37.9661 39.6714 37.2929 40.6346 36.1536 41.1938C35.4908 41.5045 34.7037 41.6599 33.7923 41.6599C32.8809 41.6599 32.1974 41.5563 31.7417 41.3492C31.286 41.1628 30.996 40.8831 30.8717 40.5103C30.7267 40.1374 30.7267 39.6921 30.8717 39.1743C30.996 38.6357 31.2238 37.9107 31.5552 36.9993C31.8867 36.0672 32.3009 34.8141 32.798 33.2398C33.3159 31.6656 33.8544 30.0707 34.4137 28.455C35.8015 24.4159 36.8993 21.6195 37.7072 20.066C38.0179 19.486 38.3286 19.1028 38.6393 18.9164C38.95 18.7093 39.2503 18.5643 39.5403 18.4814C39.8303 18.3779 40.0996 18.2639 40.3481 18.1397C40.5967 18.0154 40.8142 17.7047 41.0006 17.2075C41.2078 16.7104 41.5702 16.3686 42.0881 16.1822C42.6266 15.9958 43.1238 15.9854 43.5795 16.1512C44.0559 16.2961 44.408 16.6276 44.6358 17.1454C44.8844 17.6425 44.8326 18.3261 44.4805 19.196Z" fill="white"/>
<path d="M30.9818 19.134C31.6861 19.5069 32.1314 20.0558 32.3179 20.7808C31.9036 23.1007 31.5307 25.4102 31.1993 27.7094C30.8679 29.9879 30.5469 31.9039 30.2361 33.4575C29.9254 34.9903 29.708 36.1399 29.5837 36.9063C29.4801 37.6727 29.3558 38.4391 29.2108 39.2055L29.0244 39.8579C28.983 40.0858 28.9416 40.2929 28.9001 40.4794C28.8587 40.6865 28.8173 40.904 28.7758 41.1318C28.1959 41.7947 27.4087 42.1261 26.4145 42.1261C25.3581 42.1261 24.5192 41.8568 23.8978 41.3183C23.525 41.0283 23.4628 40.4172 23.7114 39.4851C23.8149 39.1123 23.8771 38.6358 23.8978 38.0559C23.9392 37.4552 23.9807 36.958 24.0221 36.5645V36.5024C23.4007 36.7302 22.8414 37.0305 22.3443 37.4034C21.8472 37.7555 21.5365 37.9834 21.4122 38.0869C21.2879 38.1698 21.1222 38.2423 20.915 38.3044C20.7079 38.3459 20.5215 38.3769 20.3558 38.3976C19.9622 38.4184 19.6929 38.4805 19.548 38.5841C18.3466 40.7383 17.2695 41.9397 16.3166 42.1882C15.7159 42.3746 15.1153 42.4161 14.5146 42.3125C13.9139 42.2296 13.4375 41.8775 13.0853 41.2561C12.4225 40.6347 12.5882 38.9362 13.5824 36.1606C14.121 34.6899 14.8874 32.9293 15.8817 30.8786C16.8966 28.8073 17.8702 27.0052 18.8023 25.4724C20.8115 22.1789 23.0175 19.4033 25.4202 17.1455C25.8138 16.9798 26.2384 16.7934 26.6941 16.5863C27.1498 16.3584 27.5952 16.2341 28.0302 16.2134C28.4859 16.1927 28.9519 16.2445 29.4283 16.3688C29.9047 16.4931 30.3086 16.6795 30.6401 16.928C31.4065 17.508 31.5204 18.2434 30.9818 19.134ZM24.3328 27.3055C23.8978 28.5483 23.4628 29.6979 23.0278 30.7543C22.5928 31.79 22.22 32.7014 21.9093 33.4885L24.3639 33.3953C24.5296 32.0696 24.716 30.7543 24.9231 29.4494C25.1303 28.1444 25.327 26.8395 25.5135 25.5345L24.3328 27.3055ZM23.4939 33.5196C23.7839 33.5196 24.0739 33.4989 24.3639 33.4575V33.4264C24.0946 33.4471 23.846 33.4678 23.6182 33.4885C23.3903 33.5092 23.3489 33.5196 23.4939 33.5196Z" fill="white"/>
</svg>
