<svg width="1029" height="1029" viewBox="0 0 1029 1029" fill="none" xmlns="http://www.w3.org/2000/svg">
<g clip-path="url(#clip0_41_2)">
<path d="M1029 514.5C1029 230.35 798.65 0 514.5 0C230.35 0 0 230.35 0 514.5C0 798.65 230.35 1029 514.5 1029C798.65 1029 1029 798.65 1029 514.5Z" fill="black"/>
<path d="M513.925 139.721C564.476 139.721 613.473 149.611 659.547 169.089C704.1 187.933 744.127 214.929 778.524 249.309C812.92 283.706 839.9 323.732 858.744 368.286C878.239 414.36 888.112 463.357 888.112 513.908C888.112 564.459 878.222 613.456 858.744 659.53C839.9 704.084 812.904 744.11 778.524 778.507C744.127 812.904 704.1 839.9 659.547 858.727C613.473 878.222 564.476 888.095 513.925 888.095C463.374 888.095 414.376 878.206 368.303 858.727C323.749 839.883 283.722 812.887 249.326 778.507C214.929 744.11 187.933 704.084 169.106 659.53C149.61 613.456 139.738 564.459 139.738 513.908C139.738 463.357 149.627 414.36 169.106 368.286C187.95 323.732 214.946 283.706 249.326 249.309C283.722 214.912 323.749 187.916 368.303 169.089C414.376 149.594 463.374 139.721 513.925 139.721ZM513.925 58.2647C262.273 58.2647 58.2646 262.273 58.2646 513.925C58.2646 765.577 262.273 969.585 513.925 969.585C765.577 969.585 969.585 765.577 969.585 513.925C969.585 262.273 765.577 58.2647 513.925 58.2647ZM635.023 230.265L540.169 206.61L490.57 405.539L585.424 429.194L635.023 230.265ZM456.558 420.307L282.687 311.654L230.883 394.564L404.754 503.217L456.558 420.307ZM470.941 613.924L408.112 539.033L251.046 670.823L313.876 745.714L470.941 613.924ZM675.835 775.166L599.023 585.074L508.378 621.692L585.19 811.784L675.835 775.166ZM821.106 541.439L814.29 443.929L609.764 458.229L616.58 555.739L821.106 541.439Z" fill="white"/>
</g>
<defs>
<clipPath id="clip0_41_2">
<rect width="1029" height="1029" fill="white"/>
</clipPath>
</defs>
</svg>
