<?xml version="1.0" encoding="UTF-8"?>
<svg id="a" data-name="Layer 1" xmlns="http://www.w3.org/2000/svg" xmlns:xlink="http://www.w3.org/1999/xlink" viewBox="0 0 943.53 955.31">
  <defs>
    <style>
      .c {
        fill: #f8c5c6;
      }

      .d {
        fill: #397cc0;
      }

      .e {
        fill: #fff;
      }

      .f {
        fill: #9f4b42;
      }

      .g {
        fill: url(#b);
      }

      .h {
        fill: #916bac;
      }

      .i {
        fill: #3779bd;
      }

      .j {
        fill: #cf2c2c;
      }

      .k {
        fill: #ec7e75;
      }

      .l {
        fill: #fdd033;
      }

      .m {
        fill: #de2d31;
      }
    </style>
    <radialGradient id="b" data-name="Gradient bez nazwy 25" cx="483.19" cy="475.85" fx="483.19" fy="475.85" r="454.14" gradientUnits="userSpaceOnUse">
      <stop offset="0" stop-color="#feeee1"/>
      <stop offset=".38" stop-color="#fdecdf"/>
      <stop offset=".52" stop-color="#fce5d8"/>
      <stop offset=".62" stop-color="#fbdacc"/>
      <stop offset=".7" stop-color="#f9c9bb"/>
      <stop offset=".77" stop-color="#f6b4a5"/>
      <stop offset=".83" stop-color="#f39b8b"/>
      <stop offset=".83" stop-color="#f39989"/>
    </radialGradient>
  </defs>
  <circle class="g" cx="483.19" cy="475.85" r="454.14"/>
  <path class="m" d="M637.77,509.99l-13.12,46.81-15.8,38.76s-22.34,13.12-25.03,15.8c-2.69,2.68-5.68,17.59-5.68,17.59l3.88,22.73,27.13,10.36s13.71-1.49,14.91,0,25.64,19.38,26.83,19.98,20.71,6.84,20.71,6.84l5.5-19.66-8.02-17.52-19.98-12.79s-21.05-3.72-23.2-4-6.91-12.8-6.91-12.8l5.07-21.17,24.75-31.01,14.31-37.21-13.12-56.34-24.09-23.02,11.87,56.64Z"/>
  <path class="i" d="M434.74,311.73l-21.17-41.14,26.24-31.9,85.01-48.81,47.36-4.86,34.29,4.86,15.5,47.61s10.27,29.22,13.04,31.9c2.77,2.68,30.19,19.68,30.19,19.68l44.72,26.24,33.97,56.45,6.57,34.18-4.48,64.68s-3.57,12.18-8.04,12.36-24.53,25.69-24.53,25.69l-7.66,26.96-11.33,8.21-11.33-21.32.6-18.48,7.16-31.27,4.52-21.2-5.83-32.2s-12.1-20.87-17.17-28.92c-5.07-8.05-25.11,3.58-25.11,3.58,0,0-37.5,6.04-41.97-15.02-4.82-22.69-31.3-55.34-31.3-55.34l-49.15-22.06-53.06,4.77-30.76,6.26-6.26-.89Z"/>
  <path class="l" d="M683.56,548.06l-17.23,16.63-4.24,23.25,8.48,24.75,23.76,8.05,20.52,1.19s25.02-13.8,24.75-18.78,3.26-32.2,3.26-32.2l-20.85-18.19s-16.1-7.45-16.99-8.05-13.24-1.49-13.24-1.49l-8.23,4.84Z"/>
  <path class="l" d="M678.62,686.19l-11.26,16.4s9.41,25.34,9.74,28.62c.33,3.28,20.68,15.2,20.68,15.2l20.79-4.51,19.38-22.32s-1.79-23.85-5.07-28.02-12.22-10.43-12.22-10.43l-20.87-5.56-14.01,5.58-7.16,5.05Z"/>
  <path class="l" d="M542.67,686.19l-9.38,16.7,2.23,24.89,11.03,14.13,16.57,6.3,26.96-8.94s11.93-17.59,12.22-19.38c.3-1.79,2.09-16.7,1.49-19.98s-10.73-17.29-10.73-17.29l-14.75-7.05-13.87-1.89-21.76,12.52Z"/>
  <path class="l" d="M190.86,670.09l-1.19,35.18s14.34,17.89,14.92,19.98,16.98,10.73,16.98,10.73l31.64-3.88,22.62-25.34-3.15-36.37-14.14-15.8s.6-3.58-7.45-5.37-32.8-3.28-32.8-3.28l-27.43,24.15Z"/>
  <path class="h" d="M274.75,484.76c10.17,10.52,4.66,22.29,13.71,36.67,2.24,3.56,7.14,11.35,12.22,10.73,5.77-.7,8.36-11.81,13.42-30.11,5.11-18.49,9.9-35.83,14.01-46.51,8.7-22.58,22.59-36.72,33.39-47.7,21.77-22.15,43.62-32.63,60.52-40.55,12.35-5.78,36.25-16.74,69.47-20.57,18-2.07,32.21-3.71,50.09.6,34.79,8.38,53.98,32.17,59.93,26.83,3.19-2.86-.3-11.55-3.58-19.68-7.25-17.99-19.49-28.66-27.13-35.18-8.54-7.28-17.08-14.56-30.41-18.48-13.14-3.87-24.31-2.53-31.6-1.49-65.13,9.29-108.52,29.81-108.52,29.81-32.77,15.5-54.52,31.86-65.59,40.84-18.71,15.19-29.02,23.74-37.57,39.35-11.09,20.28-4.98,26.49-18.19,46.21-4.33,6.47-12.04,16.33-8.65,24.15,1,2.31,2.25,2.77,4.47,5.07Z"/>
  <path class="m" d="M254.37,472.75l-7.6,51.4v34.69l15.43,51.84s8.72,18.78,10.06,20.57,28.84,33.09,29.52,33.99,29.52,13.38,29.52,13.38l60.15,1.38,72.5-2.26,39.52,3.39s13.42,5.79,17.66,6.02,11.57,5.74,12.16-4.4c.59-10.14-10.37-27.8-10.37-27.8,0,0-23.93-19.58-25.94-20.07s-30.63,0-30.63,0c0,0-27.5,1.29-31.98,1.74s-23.25,10.29-23.25,10.29c0,0-20.12-4.06-27.73-4.06s-18.56-15.84-18.56-15.84l-22.81-38.46-37.34-54.56-11.85-13.71-20.14-42.12-5.35-9.46-12.97,4.06Z"/>
  <path class="m" d="M155.16,351.16l-17.29,90.63-1.49,73.94,7.75,52.47,19.08,37.57,41.38,28.32s19.14,1.79,20.93,0-.6-20.87,0-22.36-25.04-18.48-25.04-18.48l-8.35-25.34,2.68-9.06,9.78-52.98,27.11-40.52,16.48-12,13.71,11.4,10.79-8.65,11.57-27.84,14.21-29,59.13-52.28,74.24-31.3-13.9-36.37-24.27-63.8-9.54-19.98-10.14-1.19s-60.22,16.99-63.8,17.59-79.9,34.29-79.9,34.29l-25.7,26.24-47.05,67.98-2.39,10.73Z"/>
  <path class="e" d="M327.71,706.46l-13.74,21.32-18.76,30.86,9.84,4.77,10.73-4.17,24.15-17.33,12.82-4.07,48.86-6.32,37-29.52,20.87-56.05,14.31-13.12,64.99-13.42,65.11-23.85,15.38-23.25,9.86-43.23,27.03-17.59,36.63-6.86,25.16,4.05,17.01,12.02,7.44,4.41,18.48-19.24,15.2-19.24-2.09-6.15-19.68,2.96-19.12.99-21.81-6.27s-28.83,4.95-33.9,4.83c-5.07-.12-33.69,6.1-33.69,6.1,0,0-8.94,5.11-10.73,5.11s-13.12-44.75-13.12-44.75l37.27-15.32,34.88-20.45,31.9-41.07,8.94-11.39,8.93-58.14-5.95-43.83v-14.61s11.91-14.91,12.52-15.8-11.03-7.75-11.03-7.75l-10.43,2.98-3.58-18.78s-3.88-9.24-6.26-9.24-7.16,2.98-9.24,5.96c-2.09,2.98-5.37,16.1-5.37,16.1l-11.74-9.24s-.69-2.09-4.76-2.09-10.96,4.17-10.96,4.17l2.12,12.22,6.26,18.48s3.93,6.56,4.05,7.75c.12,1.19-15.38-.6-15.38-.6l-5.66,6.56,1.79,10.43s6.86.89,9.54,1.79,13-.3,13-.3l14.69.89,3.02,32.5-10.73,63.73-43.6,36.37-40.64,23.93-15.94-38.96-15.79-19.47-50.51-16.99-64.88,5.37-54.86,17.95-60.45,43.91-32.87,66.46s-10.56,37.14-10.05,39.23c.51,2.09,9.45,35.48,9.45,35.48l-17.29,8.05s-39.35-3.88-40.84-4.17c-1.49-.3-34.81-14.61-34.81-14.61l-22.12-39.65-7.17-46.22,5.96-46.47,8.94-20,14.68-8.85,26.2,1.71,4.73-14.86-6.74-7.21-4.44-3.28,7.9-8.94,1.19-8.65s-3.05-3.58-4.66-3.88-12.56,0-12.56,0l-6.93-10.14s-1.49-5.66-3.57-6.26c-2.09-.6-14.31,4.77-14.31,4.77l-5.96,14.91-3.26,1.19-11.07-13.71-8.33,5.07,1.19,19.58-6.26,31.42-11.33,45.53-4.17,34.68,9.84,65.02,27.13,35.72,37.04,21.47,59.83,9.44,19.11-4.97,25.56-2.98,46.9,56.65,37.85.3-9.95,32.81s-4.59,4.74-15.02,14.59c-14.01,13.23-59.51,15.2-59.51,15.2l-15.7-4.47Z"/>
  <polygon class="k" points="493.05 483.43 510.71 484.42 525.92 495.21 529.6 517.34 522.57 532.7 516.75 532.7 494.73 495.21 493.05 483.43"/>
  <path class="f" d="M499.68,429.32c-11.58,3.29-17.37,4.93-19.08,7.6-1.79,2.8-.92,7.92.89,18.04,1.98,11.07,3.05,16.68,6.56,20.42,1.68,1.79,2.58,2.04,12.67,6.71,16.07,7.44,19.43,9.42,21.76,7.75,1.91-1.36,1.74-4.7,1.34-11.33-1.26-20.72-2.14-30.7-6.86-42.34-1.11-2.75-2.68-6.19-6.11-7.75-2.67-1.22-5.32-.77-11.18.89Z"/>
  <circle class="c" cx="405.02" cy="489.22" r="27.42"/>
  <path class="c" d="M629.15,422.19l30.61-22.93,7.32-4.75s28.71,11.68,12.05,27.08c-16.65,15.4-33.09,20.27-33.09,20.27l-7.16.6-9.74-20.27Z"/>
  <path class="c" d="M648.73,491.65l24.45-11.93,12.82-2.15s25.72,11.87,3.53,24.88c-15.72,9.22-28.87,8.57-28.87,8.57l-14.91-2.36,4.17-15.23-1.19-1.79Z"/>
  <circle class="c" cx="576.65" cy="446.78" r="27.42"/>
  <path class="c" d="M278.03,570.32s2.01,9.45,14.09,17.89c18.09,12.63,34.4,1.9,34.4,1.9l16.62,1.27,26.52,32.03,28.47,28.27,25.9-5.74-4.54,22.88s19.88-13.08,30.61,1.79c10.55,14.61,6.81-13.42,6.81-13.42l7.03-18.31,65.66-19.58,74.3-23.75,20.06-43.76-41.94,13.28-52.42,17.51-44.96,14.13-59.93,11.29-18.6-10.73-20.31-35.11-24.37-48.07-18.3-51.46-22.66,7.41-10.27,52.18,11.84,39.28-32.2,5.86h-14.01l2.2,2.97Z"/>
  <path class="l" d="M551.34,275.59l-9,8.69-2.22,12.15,4.43,12.93,12.42,4.21,10.72.62s13.07-7.21,12.93-9.81c-.15-2.6,1.71-16.82,1.71-16.82l-10.9-9.5s-8.41-3.89-8.88-4.21-6.92-.78-6.92-.78l-4.3,2.53Z"/>
  <path class="l" d="M289.49,352.84l-9,8.69-2.22,12.15,4.43,12.93,12.42,4.21,10.72.62s13.07-7.21,12.93-9.81,1.71-16.82,1.71-16.82l-10.9-9.5s-8.41-3.89-8.88-4.21-6.92-.78-6.92-.78l-4.3,2.53Z"/>
  <path class="m" d="M569.89,876.7c5.3,13.15,10.16,29.52.98,40.33-6.67,7.85-18.09,9.21-28.38,9.75-100.51,5.32-202.24-14.08-293.75-56.01-21.99-10.08-43.62-21.58-61.86-37.47-20.18-17.59-52.92-57.32-69.89-78.02-63.72-77.71-89.08-153.9-103.93-251.88-4.08-26.92,2.26-51.08,2.56-78.31.27-23.67,4.56-48.76,11.93-71.25,8.96-27.34,15.93-53.07,32.97-76.25,19.15-26.04,38.3-52.08,57.45-78.13,24.8-33.72,50.08-67.95,83.49-93.17,40.12-30.3,86.01-52.21,134.07-66.99,2.93-.9,9.39,4.79,12.25,5.9,4.23,1.64,5.74,6.74,6.7,11.17,2.88,13.21,5.04,29.04-4.65,38.47-4.05,3.94-9.53,5.98-14.81,7.98-52.39,19.87-102.74,47.59-141.76,87.81-27.53,28.38-48.75,62.26-67.57,97.04-18.99,35.09-35.83,71.63-45.84,110.26-30.52,117.83,11.32,248.84,94.68,337.53,83.36,88.69,204.09,135.28,325.78,132.5,14.77-.34,32.33-.27,44.62-7.59,11.8-7.03,20.32,4.84,24.95,16.34Z"/>
  <path class="i" d="M350.22,28.81l12.75,64.49,106.67-16.35,145.91,24.82,61.55,32.87,66.8,45.61,43.32,55.68,48,62.48,17.44,57.64,12.75,54.91,4.02,67.19-12.75,91.16-44.94,106.24-91.06,105.06-81.12,48.3-73.84,29.52,12.59,62.39,63.43-5.37,134.46-101.96,71.11-71.59,45.61-81.61,26.83-108.5,8.05-109.93-24.15-119.4-35.55-88.55-70.43-83.85-62.67-56.76-136.56-64.49s-89.22-13.58-91.9-14.25-95.25,14.25-95.25,14.25h-57.12"/>
  <path d="M99.95,759.71c-34.91-44.74-61.15-93.67-77.46-147.73-9.58-31.75-16.61-64.04-20.08-97.11-3.47-33.12-3.27-66.13,1.05-99.12,7.52-57.42,23.17-112.4,50.3-163.78,20.18-38.21,44.99-73.16,74.68-104.63,42.15-44.67,91.24-79.64,147.02-105.18,28.86-13.22,59.01-22.68,89.96-29.7,19.65-4.46,39.4-8.17,59.46-10.15,25.9-2.56,51.75-3.04,77.77-1.12,37.58,2.78,74.1,10.53,110,21.43,48.43,14.71,92.71,37.74,133.69,67.41,59.1,42.8,105.57,96.59,139.39,161.06,22.2,42.32,39.01,86.85,48.14,133.94,3.67,18.93,5.05,38.24,7.47,57.37,2.73,21.58,2.29,43.23,1.89,64.86-.63,34.09-6.15,67.56-14.31,100.61-15.31,62.01-42.64,118.25-81.69,168.75-54.63,70.63-124,121.2-207.98,151.5-32.03,11.55-65.1,19.34-98.87,23.66-59.7,7.65-118.54,2.82-176.66-12.8-69.36-18.63-129.98-53.03-184.58-99.27-28.72-24.32-56-49.81-79.2-79.98M845.25,358.88c-9.11-29.54-20.85-57.97-36.61-84.61-28.53-48.23-63.75-90.14-112.14-119.94-56.65-34.88-118.1-55.02-184.29-59.93-27.87-2.07-55.94-1.31-83.71,2.89-32.5,4.92-64.15,13.13-94.7,25.45-44.49,17.95-84.58,42.97-120.03,75.23-27.87,25.36-51.83,54.09-71.59,86.25-25.08,40.82-42.67,84.6-52.24,131.58-4.46,21.88-6.96,43.96-7.87,66.27-.66,16.32-.55,32.61,1.57,48.77,3.16,24.16,9.57,47.56,17.79,70.47,17.43,48.54,43,92.32,77.65,130.57,30.1,33.23,64.8,60.7,104.29,82.19,51.42,27.98,106.28,43.82,164.62,47.17,26.44,1.52,52.86.1,79.15-3.73,31.47-4.58,61.84-13.01,91.18-25.13,56.53-23.35,105.08-57.88,145.48-103.92,33.39-38.04,58.28-81,75.34-128.54,11.57-32.25,18.25-65.49,20.95-99.71,1.88-23.85,1.38-47.59-.88-71.24-2.25-23.49-6.83-46.68-13.97-70.1M729.83,161.33c22.75,19.19,43.25,40.56,61.22,64.28,49.55,65.4,76.15,139.43,81.81,221.01,1.81,26.08.76,52.26-2.97,78.2-4.61,32.04-12.66,63.22-24.64,93.35-25.5,64.14-64.61,118.44-117.58,162.71-31.04,25.95-65.35,46.51-102.69,62.02-15.39,6.39-31.08,11.95-47.23,16.11-4.17,1.07-5.92,2.38-4.07,7.11,2.72,6.96,4.57,14.25,6.94,21.36.98,2.92,1.54,6.08,3.67,8.73,1.91-.43,3.71-.73,5.45-1.23,24.18-7.05,47.75-15.71,70.49-26.59,54.24-25.96,101.23-61.54,140.86-106.69,39.38-44.87,68.56-95.69,87.49-152.37,12.61-37.76,20.18-76.51,21.93-116.24,1.48-33.47-.02-66.88-6.1-99.94-8.21-44.66-22.33-87.34-43.55-127.54-37.31-70.67-89.71-127.45-157.59-169.72-67.61-42.11-141.34-64.37-220.94-66.85-38.95-1.21-77.39,3.08-115.3,12.13-9.18,2.19-9.25,2.21-6.55,11.03,2.76,9.01,5.7,17.97,8.6,27.1,4.26-.94,7.81-1.71,11.36-2.51,26.83-6.09,53.98-9.66,81.49-10.09,14.47-.23,28.9.26,43.36,1.54,24.6,2.19,48.75,6.51,72.49,13.12,56.18,15.65,106.61,42.31,152.03,79.99M240.73,137.99c31.32-21.64,65.07-38.38,101.15-50.49,10.7-3.59,10.7-3.79,7.61-14.69-2.3-8.11-4.78-16.18-7.28-24.59-10.87,2.75-20.85,6.44-30.73,10.29-70.35,27.36-130.21,69.64-178.67,127.52-51.01,60.92-83.5,130.68-97.35,209.02-6.44,36.42-7.81,73.1-5.08,109.92,2.29,30.92,8.06,61.27,16.94,90.99,19.74,66.1,52.97,124.56,99.97,175.03,36.59,39.29,79.09,70.75,127.2,94.7,47.15,23.47,96.96,37.84,149.19,43.52,23.64,2.57,47.44,3.05,71.3,1.5,22.46-1.46,44.63-4.41,66.66-8.91,3.86-.79,4.66-2.35,3.69-5.76-2.54-8.96-5.18-17.91-7.44-26.94-.92-3.66-2.68-4.39-6.1-3.7-33.23,6.7-66.69,9.71-100.68,7.96-24.35-1.26-48.39-4.19-72.03-9.83-84.36-20.14-155.8-62.38-212.8-127.79-62.89-72.17-95.31-156.85-99.56-252.33-1.09-24.47.6-48.9,4.29-73.12,5.09-33.36,14.08-65.66,27.3-96.75,30.58-71.9,77.78-130.31,142.4-175.53Z"/>
  <path d="M133.58,415.55c5.21-31,10.86-61.5,23.48-90.04,16.21-36.68,42.39-65.03,75.12-87.7,35.19-24.37,73.5-41.63,115.22-51.39,13.25-3.1,26.1-1.85,38.94,1.77,6.98,1.97,11.92,6.16,15.1,12.79,5.02,10.48,7.51,21.65,9.82,32.92,1.02,4.96,2.37,9.84,3.84,15.86,8.13-10.07,15.8-18.84,25.12-25.89,29.84-22.6,61.39-41.98,98.68-49.71,14.17-2.94,28.48-5.44,43.05-2.11,23.27,5.32,37.32,20.89,41.13,46.39,2.22,14.83,6.85,28.77,13.77,42.03,1.16,2.22,2.74,3.78,4.97,4.65,22.32,8.76,42.94,20.54,62.18,34.81.5.37,1.17.52,2.53,1.09-.16-9.08-.58-17.57-4.34-25.49-1.67-3.51-5.31-3.7-8.69-3.78-5.33-.11-10.65.23-15.97-.49-5.78-.78-10.16-3.46-11.99-9.13-1.94-6.01-1.26-11.9,2.42-17.15,1.78-2.54,4.69-2.95,7.59-3.09,1.45-.07,2.97.78,4.61-.49.4-2.52-1.77-3.96-3.05-5.72-4.38-6.01-8.1-12.28-8.38-19.95-.44-11.66,9.09-19.61,19.38-16.28,2.61.85,4.7,2.48,6.65,4.31,1.19,1.12,2.37,2.26,3.49,3.33,2.3-.88,1.91-2.82,2.27-4.31,1.95-8.09,7.35-12.54,15.18-12.41,7.09.11,11.42,4.16,13.07,12.56.74,3.73,1.07,7.54,1.54,10.96.87.88,1.53.79,2.13.49,6.18-3.09,11.83-2.75,16.93,2.32,5.65,5.62,6.21,12.27,3.97,19.4-1.37,4.37-4.15,7.97-7.29,11.24-3.56,3.71-4.45,7.71-2.98,12.8,6.62,22.98,6.2,46.4,3.64,69.88-1.06,9.75-2.63,19.45-4.05,29.15-.2,1.38-.27,2.53.58,3.76,12.84,18.65,18.14,39.68,19.86,61.96,1.4,18.2-1.95,35.15-12.07,50.88,8.23-3.07,16.24-4.49,24.44-1.25,1.7.67,3.44,1.3,5.03,2.18,8.2,4.58,8.85,10.08,2.23,16.61-9.27,9.13-17.6,19.11-25.93,29.08-9.66,11.57-13.95,11.62-24.3.58-1.93-2.06-4.02-4.01-6.24-5.74-5.22-4.07-6.8-3.78-9.73,2.26-3.44,7.1-3.77,14.76-3.24,22.49.18,2.66,2.42,2.86,4.26,3.5,31.15,10.8,40.76,50.49,18.01,74.4-16.9,17.77-46.61,18.95-64.83,2.6-17.07-15.33-18.07-45.29-2.09-63.9,3.92-4.56,8.1-8.9,13.42-11.86,2.56-1.42,3.09-3.16,1.98-5.76-3.58-8.4-8.02-16.52-8.52-25.95-.11-2.09-1.8-2.18-3.37-1.8-1.85.45-3.31,1.1-3.14,3.65.42,6.31.63,12.63-.4,18.93-1.49,9.17-5.09,17.55-9.17,25.78-7.73,15.57-16.29,30.59-28.06,43.55-3.97,4.37-8.49,8.78-5.66,15.34,2.98,6.91,8.14,11.69,15.91,13.05,7.9,1.38,15.7,3.16,22.79,7.1,10.09,5.62,16.82,14.09,20.13,25.08,1.32,4.38,2.77,5.61,7.65,4.21,24.17-6.97,47.38,6.27,53.09,30.61,3.75,15.96-.52,30.33-13.05,41.19-13.45,11.66-29.05,13.91-45.26,6.59-15.25-6.89-23.4-19.28-24.34-36.1-.19-3.47-.28-7.14.64-10.42,1.25-4.46.41-6.93-3.93-9.01-8.94-4.29-16.7-10.2-23.17-17.87-5.15-6.1-12.41-8.2-20.07-8.8-4.31-.34-8.66-.19-12.99-.13-18.29.26-28.13-8.46-30.48-26.7-.92-7.09-.72-14.23-1.06-22.32-21.99,5.15-43.27,10.48-65.68,16.94,16.72,8.27,25.91,22.35,35.75,35.72,2.56,3.48,4.73,3.37,8.35,1.78,23.5-10.32,49.31.74,57.47,24.4,8.43,24.41-5.19,50.26-29.8,56.55-30.04,7.68-57.96-18.67-52.21-49.25.33-1.77.55-3.56.84-5.48-15.33-6.49-29.88-14.42-46.67-16.1-6.05-.61-12,.11-17.94.7-4.88.49-7.79,4.05-10.16,8.08-6.67,11.29-14.67,21.44-25.39,29.21-14.83,10.75-30.94,18.24-49.5,19.48-6.64.44-13.33,1.24-19.94.9-6.11-.31-9.98,2.14-13.5,6.71-5,6.49-10.92,12.06-17.93,16.49-7.01,4.43-14.69,6.24-22.77,6.52-6.97.24-12.05-6.32-9.02-12.59,7.82-16.16,12.91-33.6,23.05-48.69,5.8-8.64,13.28-12.37,23.47-9.78,12.47,3.17,24.84,1.02,37.19-.53,6.5-.82,11.43-5.07,17.12-9.57-7.71,0-14.45,1.44-21.25,2.04-18.42,1.62-36.63.41-54.17-5.85-15.32-5.46-26.46-16.57-36.38-28.84-12.65-15.66-25.96-30.94-33.79-49.89-.6-1.45-1.59-2.53-3.01-3.19-16.12-7.51-30.51-17.66-44.02-29.3-1.37,6.24.86,11.03,6.3,13.4,2.59,1.13,5.38,1.79,7.96,2.93,14.4,6.33,21.93,17.93,22.93,33.1.6,9.01,3.19,13.76,12.17,17.66,21.71,9.45,35.07,26.29,35.98,50.88.91,24.78-15.57,46.5-39.26,52.73-23.9,6.28-49.05-4.78-60.87-27.16-11.4-21.59-9.97-42.58,3.88-62.7,1.81-2.62,3.85-5.1,6.52-6.84,3.5-2.29,2.92-4.37.62-7.3-4.85-6.15-10.95-10.77-17.54-14.68-30.02-17.85-44.95-45.26-50.75-78.75-3.86-22.31-3.21-44.66-2.52-67.16.66-21.39,3.49-42.43,6.45-63.95M353.34,485.97c3.01,10.94,7.16,21.47,11.52,31.92.76,1.81,1.2,3.81,1.45,5.77.34,2.67-1.14,4.52-3.54,5.39-2.2.79-3.89-.39-5.12-2.16-.85-1.22-1.59-2.54-2.3-3.85-4.84-8.96-8.56-18.43-12.56-27.77-3.31-7.73-6.31-15.59-9.53-23.59-1.78,1.58-2.09,3.45-2.71,5.1-4.72,12.64-8.61,25.55-12.46,38.48-2.94,9.89,2.43,17.1,5.77,25.36,1.79-.68,2.87-1.06,3.93-1.5,5.34-2.23,7.2-.95,7.52,4.87.27,5.03-2.2,8.8-5.75,11.65-15.06,12.12-32.54,19.93-51.67,17.86-37.26-4.03-63.68-24.37-78.4-59.07-4.58-10.79-6.26-22.39-7.48-34.02-1.76-16.61-2.9-33.23.8-49.7,3.91-17.41,9.96-33.91,22.61-47.15,7.13-7.47,9.69-7.88,18.76-3.33,3.36,1.68,6.81,2.9,10.57,2.09,3.1-.67,4.97-2.83,5.03-6.03.06-3.22-2.3-4.08-5.01-4.39-1.49-.17-2.96-.64-4.44-.65-3.18-.04-6.3-.47-7.29-3.94-1.02-3.58,1.93-5.5,4.32-7.17,3.81-2.66,8.02-4.75,11.82-7.43,2.71-1.91,4.89-4.75,2.41-8.06-2.53-3.38-5.48-1.6-8.32.22-3.43,2.19-5.15,6.11-8.72,8.15-5.3,3.02-9.93.56-9.78-5.55.06-2.61,1.03-5.2,1.54-7.8.45-2.28,1.04-4.55,1.19-6.85.14-2.31-.79-4.34-3.24-5.05-2.35-.68-3.79.95-4.98,2.56-1.93,2.61-2.48,5.76-3.09,8.88-.64,3.26-1.21,6.57-2.22,9.72-1.31,4.08-4.73,6.06-8.68,6.59-3.72.49-5.67-2.38-7.15-5.26-.98-1.9-1.55-4.02-2.24-6.06-.95-2.84-1.72-6.64-5.63-5.39-3.38,1.08-3.3,4.57-2.25,7.69.69,2.05,1.28,4.14,2.08,6.15,1.69,4.28,2.27,8.72,1.69,13.24-.88,6.78-2.15,13.52-4.71,19.88-5.81,14.43-9.79,29.37-12.55,44.63-1.8,9.95-4.82,19.71-4.08,30.06,1.15,15.86,4.78,31.25,8.82,46.52,4.51,17.05,10.75,33.51,23.36,46.36,14.92,15.2,31.85,27.77,51.59,36.28,10.61,4.57,21.51,7.2,33.06,5.61,8.76-1.2,17.25-3.65,25.66-6.37,13.2-4.27,25.87-9.73,38.14-16.16,1.88-.98,4.03-2.36,6.09-.84,2.28,1.69.85,3.93.19,5.93-2.05,6.28-2.08,12.6.99,18.46,8.18,15.6,18.7,29.48,31.69,41.43,1.47,1.36,3.18,2.38,5.22,2.8,9.66,1.98,18.9,1.31,27.37-4.26,3.45-2.27,7.21-4.27,11.15-1.93,4.04,2.41,3.44,6.86,3.4,10.85,0,.83-.07,1.67-.26,2.48-4.14,18-10.62,34.55-25.62,46.78-22.09,18.02-46.61,24.92-74.58,18.05-5.49-1.35-8.23-.41-10.91,5.15-5.06,10.51-10.05,21.04-16.53,30.79-1.22,1.84-2.05,4.03-.19,5.96,1.79,1.85,3.88.64,5.56-.2,8.35-4.15,15.61-9.75,20.38-17.88,2.6-4.44,6.19-6.7,11-7.73,6.6-1.41,13.28-.84,19.93-1.02,31.83-.88,56.68-14.03,73.66-41.39,8.97-14.46,14.98-30.05,18.69-46.59,2.67-11.93,4.61-13.78,16.62-15.79,41.74-6.99,81.99-19.22,121.41-34.39,10.78-4.15,19.2-17.44,18.72-29.24-2.36.16-3.84,1.96-5.53,3.17-13.14,9.38-28.55,13.59-43.46,18.67-29.95,10.22-60.65,17.94-91.19,26.14-15.76,4.23-31.69,7.83-48.26,7.01-7.52-.38-14.29-2.69-19.34-8.09-13.88-14.86-25.08-31.5-31.66-50.95-.77-2.27-1.52-4.79,1.16-6.21,2.98-1.57,4.14,1.07,5.33,3,8.23,13.35,17.81,25.75,26.84,38.54,6.21,8.79,14.8,11.46,24.98,9.7,45.41-7.88,89.46-20.9,132.92-35.95,16.52-5.72,32.91-11.98,47.43-22.09,4.89-3.4,8.96-7.57,10.22-13.66,2.21-10.62,1.55-21.47-.73-31.76-7.49-33.82-17.1-67.09-27.8-100.05-5.91-18.2-19.23-29.1-35.32-37.3-15.99-8.15-33.54-7.7-50.84-7.85-7.31-.07-14.87-.36-21.89,1.27-27.94,6.46-55.23,14.48-80.39,29.2-23.9,13.99-44.47,30.89-59.29,54.52-3.92,6.25-5.2,12.52-3.26,19.47,2.63,9.46,5.42,18.87,8.32,29.08M198.3,290.62c-16.59,16.55-28.94,35.79-34.92,58.51-7.54,28.66-13.31,57.68-16.54,87.23-3.11,28.48-6.68,56.9-4.62,85.62,1.34,18.68,4.8,36.81,11.83,54.4,5.95,14.89,15.95,25.05,30.07,31.78,7.08,3.38,14.44,6.55,20.06,12.05,4.37,4.28,7.88,3.84,12.61,1.09,3.53-2.05,3.81-4,1.94-7.19-3.2-5.43-8.31-8.02-14.01-9.72-9.8-2.93-16.64-9.01-19.75-18.83-2.87-9.05-2.96-18.36-1.75-27.69.29-2.22.47-4.24-.75-6.25-12.16-20.02-17.96-42.19-21.62-65.01-2.19-13.64-4.12-27.47-1.75-41.23,3.81-22.15,8.44-44.15,16.72-65.19,3.67-9.32,4.63-19,3.13-28.95-.67-4.46-.46-8.95.69-13.39,2.57-9.92,11.59-12.9,19.62-6.53,2.45,1.94,3.73,4.88,6.27,7.24.74-2.42,1.39-4.3,1.9-6.22,2.21-8.27,7.81-12.92,15.89-14.89,8.58-2.1,15.2,2.88,15.83,11.78.12,1.75-.58,3.64.69,5.26,1.91.3,3.14-1.06,4.63-1.69,9.25-3.95,17.91,1.78,17.85,11.79-.03,5.56-1.87,10.48-5.12,14.85-1.65,2.21-2.03,3.85.27,5.94,2.55,2.33,3.59,5.5,3.76,8.98.8,16.44-14.61,26.74-29.64,19.77-6.8-3.15-7.63-2.93-11.62,3.44-7.89,12.62-12.59,26.4-14.79,41.07-.68,4.52-1.62,9.02-.07,13.97.96-.56,1.39-1.46,1.99-2.24,6.76-8.67,13.7-17.21,20.28-26.02,5.33-7.14,11.77-12.55,20.16-15.76,9.53-3.63,13.39-2.76,20.24,4.92,3.15,3.53,6.07,7.44,10.92,9.26,4.06-6.25,6.14-13.18,9.55-19.45.46-.85.71-1.81,1.03-2.66-16.35-12.79-20.97-21.39-17.69-33.65,3.34-12.46,11.06-21.3,24-23.32,14.2-2.21,24.53,3.84,29.21,18.37,29.56-21.34,58.88-41.91,94.68-50.76-8.72-20.24-22.43-36.17-36.23-53.55,6.18.98,9.31,5.21,14.49,5.87-1.48-7.2-2.73-13.88-4.23-20.5-2.32-10.21-3.81-20.65-7.91-30.41-1.19-2.83-2.48-5.49-5.82-6.33-7.96-1.99-15.97-3.44-24.19-1.77-30.48,6.17-58.97,17.57-86.09,32.62-25.96,14.41-48.94,32.79-71.18,53.33M495.08,210.47c-24.41,13.56-47.88,28.33-66.69,49.5-3.97,4.47-5.23,9.13-3.8,14.68,2.21,8.58,5.47,16.54,10.81,23.91,3.74,5.15,7.14,5.7,12.77,4.34,24.14-5.82,48.59-9.94,73.42-11.18,4.48-.23,6.94-1.11,9.04-5.5,7.83-16.38,30.5-22.63,47.06-13.46,13.98,7.74,18.19,28.36,8.91,43.6q-4.25,6.98,1.45,12.7c1.41,1.42,2.77,2.88,4.15,4.33,11.18,11.71,19.21,25.07,21.71,41.35.25,1.63.89,3.2,1.32,4.81.63,2.36,2.27,3.32,4.53,2.84,10.27-2.18,20.48-.1,30.14,2.26,11.38,2.78,18.92.46,25.91-9.02,7.48-10.13,17.01-18.67,22.72-30.26,6.18-12.55,4.82-21.08-6.21-29.67-16.92-13.18-35.48-23.61-55.41-31.53-7.54-2.99-13.57-7.28-17.38-14.82-8.12-16.06-13.44-32.9-16.11-50.69-1.01-6.7-2.58-13.42-8.27-18.25-9.98-8.49-21.33-11.64-34.33-10.22-22.99,2.5-44.51,9.63-65.74,20.26M556.77,341.22c13.74,4.94,26.32,11.82,36.72,22.4-2.54-6.13-5.69-11.57-10.17-16.16-6.16-6.32-12.28-12.68-18.37-19.07-3.44-3.6-6.04-8.27-10.73-10.33-13.4-5.9-26.82-11.64-42.15-9.94-37.05,4.12-73.27,11.66-108.16,25.01-25.66,9.82-47.73,25.69-69.4,42.05-10.34,7.81-20.65,15.95-27.42,27.39-10.47,17.7-18.57,36.48-24.73,56.08-3.16,10.05-3.36,19.75,2.7,29.22,3.74,5.86,6.28,12.51,7.65,19.43.65,3.25.87,6.58,1.3,9.88.22,1.68,1.12,2.75,2.82,3.03,1.85.3,2.81-.88,3.39-2.33,1.23-3.09,2.43-6.2,3.45-9.36,5.33-16.46,8.33-33.62,14.99-49.68,15.19-36.66,37.55-67.67,72.5-87.7,37.97-21.76,78.69-34.9,122.93-35.55,14.27-.21,28.22,1.52,42.69,5.61M716.03,381.37c8.41-10.64,14.5-22.34,16.3-35.95,1.02-7.75,1.98-15.52,2.62-23.3,1.66-20,1.88-39.93-4.04-59.43-2.69-8.88-1.6-16.75,5.64-23.24,2.23-1.99,4.37-4.14,6.17-6.52,1.48-1.97,1.68-4.44-.17-6.44-1.75-1.89-3.87-1.62-5.93-.38-2.14,1.29-4.21,2.7-6.4,3.89-4.16,2.27-7.71.53-8.4-4.08-.2-1.31-.13-2.66-.21-3.99-.31-4.99-.57-9.97-.98-14.95-.25-3.03-1.34-5.87-4.91-5.78-3.42.09-4.08,3.15-4.28,5.82-.22,2.8.09,5.64.24,8.47.11,2.16.41,4.31.5,6.47.16,4.15-1.65,7.17-5.67,8.4-4.21,1.29-7.91.31-10.54-3.47-2.29-3.29-4.14-6.81-5.59-10.57-1.33-3.44-3.54-6.79-7.78-4.87-4.06,1.83-2.72,5.51-1.31,8.68,1.49,3.36,3.23,6.58,5.47,9.52,1.21,1.59,2.44,3.18,3.5,4.87,2.68,4.28,4.17,8.81,1.67,13.69-2.39,4.67-6.85,3.91-10.99,3.96-2.39.03-5.4-.7-5.58,3.16-.18,3.78,2.35,4.94,5.49,4.94,3.66,0,7.31-.41,10.97-.55,12.97-.5,20.61,4.97,23.61,17.55,2.99,12.51,3.74,25.16,3.06,38.11-1.66,31.68-16.55,56.3-39.24,77.05-9.6,8.78-20.35,16.11-30.96,23.59-8.01,5.64-7.93,5.54-3.75,14.43,1.34,2.85,2.73,3.03,5.43,1.95,5.64-2.26,10.39-5.95,15.51-9.05,18.74-11.34,36.95-23.35,50.57-41.97M413.02,667.47c.62-.55,1.41-.99,1.84-1.67,1.57-2.5,4.1-5.36,2.65-8.08-1.48-2.78-4.87-.48-7.41-.48-1.81,0-3.62.48-5.42.79-9.12,1.56-16.67-1.18-22.92-8.01-3.93-4.29-8.19-8.28-12.27-12.44-1.17-1.19-2.12-2.38-4.18-2.11-6.51.86-12.92-.42-19.34-1.28-9.43-1.25-16.21-6.32-21.13-14.31-3.33-5.39-5.92-11.1-7.81-17.68-16.11,4.28-31.81,8.33-48.14,8.39-.14,2.22,1.22,3.38,2.09,4.74,6.28,9.86,14.39,18.35,21.09,27.86,18.51,26.25,44.88,33.96,75.18,32.1,10.6-.65,21.16-2.41,31.67-4.07,4.54-.72,9.33-.85,14.11-3.76M247.79,691.65c-.6-3.16-2.79-5.22-4.99-7.28-2.57-2.4-4.98-4.92-6.43-8.2-2.82-6.4-.13-12.63,6.47-14.84,3.89-1.3,7.6-.9,10.8,1.83,4.07,3.47,4.62,8.24,3.33,12.82-1.35,4.81-.82,9.15.71,13.67.74,2.19,1.09,4.52,1.6,6.78,1.64,7.25-.94,14.05-2.71,21.31,10.1-7.43,15.3-22.36,12.6-35.21-4.32-20.57-21.09-32.63-42.61-30.65-18.13,1.67-32.46,17.85-33.03,37.3-.66,22.58,20.37,41.37,42.79,38.25,1.67-.23,3.49-.41,4.32-2.08,5.12-10.36,9.98-20.81,7.15-33.71M631.83,657.11c8.28,2.84,13.4,9.61,19.34,15.4,8.38,8.17,9.38,8.11,17.28.01.35-.36.68-.74,1.07-1.05,2.54-2.02,2.52-4.35,1.17-7.1-4.27-8.7-11.51-13.62-20.52-16.18-4.63-1.32-9.44-2-14.09-3.28-22.91-6.28-30.11-29.71-14.55-47.25,13.76-15.51,23.67-33.37,31.67-52.33,3.38-8.01,4.72-16.51,3.27-25.3-4.16.64-4.59,1.21-8.03,3.96-11.33,9.06-13.5,22.56-17.07,35.26-5.32,18.95-13.25,35.93-31.05,46.45-4.15,2.45-8.22,5.05-12.35,7.55-1.91,1.16-3.64,2.39-3.67,4.93-.09,8.48-.49,16.93,2,25.26,1.96,6.55,6.3,9.55,12.74,9.98,3.32.22,6.66.09,9.99-.01,7.57-.24,14.95.75,22.79,3.69M718.42,556.71c-19.9-10.79-35.98-2.81-46.94,14.16-8.71,13.49-2.51,36.62,8.12,42.56-.7-4.49-1.02-8.87.18-12.99,1.76-6,3.75-11.84,4.64-18.14.8-5.66,5.99-9.76,10.13-9.59,3.7.15,6.27,2.15,7.41,5.69,1.41,4.38-1.07,10.61-5.27,13.66-.4.29-.8.67-1.26.81-7.89,2.37-8.22,9.06-7.99,15.31.34,9.3,4.38,13.23,11.94,13.15,15.95-.17,29.35-10.37,34.13-25.97,4.38-14.3-1.23-29.12-15.09-38.64M698.27,416.48c-3.92,2.2-3.49,4.55-1.02,7.95,9.14,12.56,10.53,26.22,4.82,40.63-.59,1.5-1.71,2.9-.97,5.04,6.13.71,12.19,2.29,18.23,4.08,10.52,3.12,7.91,4,14.2-4.98,8.3-11.84,13.6-24.55,12.25-39.59-.68-7.61-.93-15.3-2.41-22.76-1.86-9.39-5.14-18.41-9.55-27.85-5.7,7.24-10.64,13.9-15.98,20.22-5.5,6.51-12.48,11.45-19.56,17.27M556.29,683.51c-12.98,5.78-19.38,16.56-18.25,31.23.9,11.77,7.41,19.91,17.9,24.45,10.29,4.46,20.5,3.41,29.87-3.12,3.03-2.11,4.21-5.2,3.43-8.73-1.24-5.6-7.28-10.23-13.13-10.29-2.69-.03-5.38-.14-7.81-1.31-3.39-1.64-5.64-4.35-5.2-8.29.42-3.77,3.09-5.67,6.64-6.53,3.44-.83,6.18.48,8.7,2.62,6.1,5.17,13.41,8.82,18.7,16.37,3.18-12.33.38-21.93-7.45-29.69-9.2-9.12-20.33-11.42-33.4-6.73M300.1,555.43c3.38-1.21,7.14-1.45,10.1-3.68-3.4-9.17-5.45-10.73-16.32-12.69-11.86-2.14-14.25-4.8-14.2-16.87.03-7.14-1.48-13.78-4.2-20.36-3.12-7.54-7.84-14.33-10.06-22.28-.73-2.62-2.51-2.19-4.1-.46-2.91,3.17-4.44,6.98-5.15,11.17-3.36,19.65-1.08,39.58-2.93,59.31-.28,3.02,1.79,3.85,4.05,4.83,13.86,5.99,27.87,5.51,42.81,1.03M725.83,692.39c-13.41-14.02-35.05-12.51-44.57,3.11-10.15,16.64-.81,38.8,17.71,41.87,2.21.37,4.88,1.27,6.4-1.25,2.3-3.83,4.67-7.62,4.42-12.48-.28-5.3-2.83-9.48-5.88-13.47-1.87-2.45-3.37-4.98-3.14-8.18.29-4.06,2.45-6.79,6.18-8.31,3.67-1.49,6.91-.51,9.68,2,3.39,3.07,4.33,6.99,3.23,11.38-.4,1.6-1.64,3.26-1.4,4.7,1.33,7.71,1.29,15.28-1.91,23.13,16.1-7.15,20.33-26.83,9.28-42.51M768.63,490.1c.65-1.23,2.35-1.93,1.94-3.7-7.6-2.72-14.13-.31-20.87,7.64-5,5.9-6.87,5.84-13.35,1.5-10.24-6.87-21.71-11.27-33.91-12.36-15.29-1.36-29.45,4.15-43.49,9.47-.31.12-.63.26-.89.45-3.8,2.85-.74,6.19-.35,9.14.41,3.07,3.09,1.66,4.82,1.01,6.26-2.33,12.68-4.03,19.23-5.32,15.19-2.98,30.01-3.36,44.21,4.45,6.96,3.82,12.73,8.92,18.28,14.95,8.23-9.19,16.08-17.96,24.37-27.23M657.06,473.18c1.49,1.82,1.1,5.73,5.23,4.59,5.45-1.51,10.92-2.97,16.37-4.46,1.18-.32,2.15-1.01,2.61-2.15,2.29-5.7,5.78-10.86,7.41-16.88,2.72-10.03-1.53-17.69-7.97-25.55-10.54,8.3-22.41,13.52-34.19,18.9-2.68,1.22-2.06,2.86-.94,4.83,3.76,6.67,7.44,13.38,11.47,20.73M206.86,485.01c2.45.44,2.84-1.79,3.78-3.09,3.41-4.73,6.66-9.57,9.99-14.36,4.95-7.12,10.09-14.1,15.84-20.59,6.36-7.18,13.05-7.3,19.45-.37,1.42,1.54,2.53,1.62,4.32.93,6.44-2.53,9.56-7.85,12.44-14.21-5.97-3.5-10.21-8.63-14.57-13.65-1.36-1.56-3.02-1.94-4.97-1.32-6.28,1.97-12.23,4.52-16.49,9.83-8.34,10.39-16.17,21.23-25.07,31.12-7,7.77-9.07,15.67-4.72,25.73M216.98,519.25c4.46,9.72,10.68,17.91,20.06,24.59,1.95-12.83,1.28-24.48,1.64-36.09.45-14.72,1.36-29.42,12.52-41.09-2.1-1.96-3.85-3.59-5.98-5.57-10.03,12.76-18.56,25.84-27.38,38.74-4.37,6.4-5.33,12.2-.87,19.42M466.61,657c-.81,2.83-2.06,5.56-1.96,8.82.93.22,1.71.61,2.46.55,18.13-1.43,34.88,3.66,51.12,10.94,2.73,1.22,3.88-.4,5.47-1.89,1.84-1.74,1.11-3.2-.13-4.75-2.69-3.38-5.25-6.88-8.08-10.14-6.55-7.55-14.15-13.72-24.17-15.84-4.29-.91-9.23-3.24-13.07-.66-4.56,3.07-9.01,6.86-11.65,12.97M553.62,278.74c-7.71,4.45-10.95,11.28-8.81,18.58,2.3,7.83,10.09,12.89,18.95,12.3,7.58-.5,12.87-5.33,14.25-12.99,2.36-13.13-9.7-22.41-24.38-17.89M312.47,378.63c4.43-11.03-1.34-21.53-12.37-22.52-7.57-.68-14.76,4.28-16.63,11.46-1.94,7.44,1.64,15.21,8.45,18.36,7.52,3.48,14.88,1.05,20.54-7.3M701.73,525.24c.85-5.43,3.26-10.34,5.76-15.56-5.89-1.65-11.32-.9-16.71-.43-2.37.21-2.71,2.14-2.74,4.08-.09,6.55,2.57,12.28,5.34,17.99,1.01,2.08,2.79,1.21,4.38,1.17,1.73-.04,2.84-.67,3.09-2.52.18-1.31.51-2.61.87-4.73M350.15,613.02c-6.23-4.78-7.95-14.87-18.02-15.75,2.4,14.12,11.73,25.4,22.02,21.1-1.22-1.65-2.39-3.23-4-5.35M635.83,483.45c.7,1.79-.17,4.06,1.71,5.62,2.83.11,4.67-2.09,7.02-3.14,2.96-1.33,3.43-3.02,1.6-5.79-4.09-6.19-8.76-11.86-14.31-17.52,1.33,7.09,2.54,13.56,3.98,20.82M617.05,410.96c9.33-.57,17.19-5.08,25.7-9.22-6.79-3.36-12.78-3.47-18.67.65-2.02,1.41-4.27,2.53-6.49,3.6-2.37,1.15-2.84,2.58-.54,4.96Z"/>
  <path d="M472.23,448.3c-.9-3.28-1.9-6.13-2.37-9.07-.87-5.42.83-8.18,6.12-9.77,4.93-1.48,9.99-2.53,14.96-3.87,5.66-1.52,10.96-3.84,16.01-6.86,6.76-4.04,10.35-2.65,12.56,5.01,4.93,17.09,9.16,34.33,11.62,52,2.1,15.06,2.33,30.16,2.07,45.3-.11,6.52-2.57,11.99-7.76,16.05-4.62,3.62-8.48,3.58-13.16-.03-5.16-3.97-8.24-9.51-11.29-15.07-12.73-23.19-21.25-48.03-28.76-73.7M503.94,434.33c-5.23,1.65-10.45,3.34-15.69,4.95-3.06.94-4.43,2.75-3.47,5.99,2.68,9.08,5.33,18.17,8.01,27.25.43,1.45.88,3.01,2.63,3.32,8.2,1.45,15.76,4.78,23.58,8.58.18-1.99.51-3.3.39-4.57-1.41-14.64-4.85-28.81-9.81-42.64-.85-2.37-2.27-3.62-5.63-2.88M513.29,518.89c1.78,2.19,2.45,5.47,5.62,6.21,1.92-1.33,1.54-3.13,1.88-4.71,1.09-5.14.08-10.25-.03-15.37-.22-9.81-12.26-19.66-22.76-18.26,4.55,10.77,9.43,21.28,15.3,32.13Z"/>
  <path d="M570.18,391.89c-3.13,5.06-6.65,9.49-9.05,15.19,4.62,2.1,9.29,2.28,13.73,3.21,6.95,1.45,10.96,9.18,7.96,15.73-1.13,2.48-3.34,3.23-5.81,2.88-12.33-1.71-24.81-2.38-37.01-4.99-1.77-.38-3.47-1.14-5.14-1.88-5.36-2.38-6.41-4.83-4.08-10.25,3.89-9.08,10.05-16.82,15.14-25.19,2.33-3.83,5.02-7.43,7.6-11.1.95-1.35,1.98-3.05,3.82-2.87,6.37.62,11.06,4.58,14.98,9.03,3.05,3.46-.19,6.8-2.13,10.24Z"/>
  <path d="M429.52,469.71c-9.72,2.46-17.59-.04-23.45-7.63-5.53-7.17-5.74-15.08-1.6-22.99,4.01-7.69,12.32-11.7,21.4-10.67,8.38.94,15.36,7.08,17.63,15.5,2.21,8.21-.74,17.17-7.54,22.26-1.84,1.38-4.03,2.28-6.44,3.53Z"/>
  <path class="d" d="M430.85,480.57s-7.91,43.84-6.71,52.62c1.04,7.6,5.96,18.48,20.57,15.5,14.61-2.98,17.29-13.57,15.95-21.47-1.34-7.9-29.81-46.66-29.81-46.66Z"/>
  <path class="j" d="M602.98,491.4l-9.11-1.21c-2.14-.28-4.21.84-5.14,2.79l-3.97,8.29c-2.08,4.35-8.51,3.49-9.38-1.24l-1.67-9.04c-.39-2.12-2.1-3.75-4.24-4.03l-9.11-1.21c-4.78-.63-5.95-7.01-1.72-9.31l8.08-4.38c1.89-1.03,2.91-3.16,2.52-5.28l-1.67-9.04c-.87-4.74,4.83-7.83,8.32-4.51l6.66,6.33c1.56,1.48,3.9,1.8,5.8.77l8.08-4.38c4.24-2.3,8.94,2.17,6.86,6.52l-3.97,8.29c-.93,1.94-.5,4.27,1.06,5.75l6.66,6.33c3.49,3.32.7,9.17-4.08,8.54Z"/>
</svg>