<svg width="429" height="250" viewBox="0 0 429 250" fill="none" xmlns="http://www.w3.org/2000/svg">
<g clip-path="url(#clip0_2_161)">
<circle cx="303.571" cy="125" r="125" fill="white"/>
<path d="M314.081 97.9096C314.256 87.1086 321.904 78.0007 332.355 75.9572V54.8223C321.67 55.9316 311.745 60.9526 304.447 69.0096L303.63 69.9437L302.812 69.0096C295.514 60.8942 285.648 55.9316 274.905 54.8223V75.9572C285.356 78.0007 293.004 87.1086 293.179 97.8512V152.09C293.004 162.891 285.356 171.999 274.905 174.042V195.177C285.589 194.068 295.514 189.047 302.812 180.99L303.63 180.056L304.447 180.99C311.745 189.105 321.612 194.068 332.355 195.177V174.042C321.904 171.999 314.256 162.891 314.081 152.148V97.9096Z" fill="black"/>
</g>
<g clip-path="url(#clip1_2_161)">
<path d="M125 250C194.271 250 250 194.271 250 125C250 55.7288 194.271 0 125 0C55.7288 0 0 55.7288 0 125C0 194.271 55.7288 250 125 250Z" fill="#2775CA"/>
<path d="M159.378 144.795C159.378 126.566 148.44 120.316 126.565 117.712C110.94 115.629 107.815 111.462 107.815 104.17C107.815 96.8774 113.024 92.1912 123.44 92.1912C132.815 92.1912 138.024 95.3162 140.628 103.129C141.149 104.691 142.711 105.732 144.274 105.732H152.606C154.69 105.732 156.253 104.17 156.253 102.087V101.566C154.169 90.1074 144.794 81.2537 132.815 80.2124V67.7124C132.815 65.6287 131.253 64.0662 128.649 63.5449H120.836C118.753 63.5449 117.19 65.1074 116.669 67.7124V79.6912C101.044 81.7749 91.1488 92.1912 91.1488 105.212C91.1488 122.4 101.565 129.17 123.44 131.775C138.024 134.379 142.711 137.504 142.711 145.837C142.711 154.171 135.419 159.9 125.524 159.9C111.981 159.9 107.294 154.17 105.731 146.357C105.211 144.275 103.649 143.232 102.086 143.232H93.2313C91.1488 143.232 89.5863 144.795 89.5863 146.879V147.4C91.6688 160.42 100.003 169.795 117.19 172.4V184.9C117.19 186.982 118.753 188.545 121.356 189.066H129.169C131.252 189.066 132.815 187.504 133.336 184.9V172.4C148.961 169.795 159.378 158.857 159.378 144.795Z" fill="white"/>
<path d="M98.44 199.482C57.815 184.9 36.9813 139.587 52.0863 99.4824C59.8988 77.6074 77.0863 60.9411 98.44 53.1286C100.524 52.0874 101.565 50.5249 101.565 47.9199V40.6287C101.565 38.5449 100.524 36.9824 98.44 36.4624C97.9188 36.4624 96.8775 36.4624 96.3563 36.9824C46.8775 52.6074 19.7938 105.212 35.4188 154.691C44.7938 183.857 67.19 206.254 96.3563 215.629C98.44 216.67 100.524 215.629 101.044 213.545C101.565 213.025 101.565 212.504 101.565 211.462V204.17C101.565 202.607 100.003 200.525 98.44 199.482ZM153.649 36.9824C151.565 35.9411 149.481 36.9824 148.961 39.0662C148.44 39.5874 148.44 40.1074 148.44 41.1499V48.4411C148.44 50.5249 150.003 52.6074 151.565 53.6499C192.19 68.2324 213.024 113.545 197.919 153.65C190.106 175.525 172.919 192.191 151.565 200.004C149.481 201.045 148.44 202.607 148.44 205.212V212.504C148.44 214.587 149.481 216.15 151.565 216.67C152.086 216.67 153.128 216.67 153.649 216.15C203.128 200.525 230.211 147.92 214.586 98.4411C205.211 68.7536 182.294 46.3574 153.649 36.9824Z" fill="white"/>
</g>
<defs>
<clipPath id="clip0_2_161">
<rect width="250" height="250" fill="white" transform="translate(178.571)"/>
</clipPath>
<clipPath id="clip1_2_161">
<rect width="250" height="250" fill="white"/>
</clipPath>
</defs>
</svg>
