<svg
      fill="none"
      height="33"
      viewBox="0 0 32 33"
      width="32"
      xmlns="http://www.w3.org/2000/svg"
    >
      <g clipPath="url(#clip0_5309_9188)">
        <rect fill="#66FBFD" height="32" rx="16" width="32" y="0.5" />
        <circle
          cx="16"
          cy="16"
          fill="#77FBFD"
          r="16"
          transform="matrix(1 0 0 -1 0 32.5)"
        />
        <mask
          fill="black"
          height="29"
          id="path-3-outside-1_5309_9188"
          maskUnits="userSpaceOnUse"
          width="16"
          x="8.02881"
          y="1.89551"
        >
          <rect fill="white" height="29" width="16" x="8.02881" y="1.89551" />
          <path
            clipRule="evenodd"
            d="M18.289 2.89551V7.92128L17.2601 8.95021V16.4431V16.5575V25.9893H17.8317V21.9925L18.8606 20.9636V16.5575V16.4431V2.89551H18.289ZM10.0577 11.127V14.0949L9.02881 15.1238V16.5575H10.6294V11.127H10.0577ZM12.1159 12.4943V9.06907H12.6875V16.5574H11.0869V13.5232L12.1159 12.4943ZM14.1737 7.01123V11.0081L13.1447 12.037V16.4431V16.5574V30.1051H13.7164V25.0793L14.7453 24.0504V16.5574V16.4431V7.01123H14.1737ZM16.2317 9.40752V4.95338H16.8033V16.4431V16.5575V22.5641L15.7743 23.5931V28.0472H15.2027V16.5575V16.4431V10.4365L16.2317 9.40752ZM22.9769 16.4431H21.3763V21.8736H21.9479V18.9057L22.9769 17.8768V16.4431ZM19.8904 23.9315H19.3188V16.4432H20.9194V19.4774L19.8904 20.5063V23.9315Z"
            fillRule="evenodd"
          />
        </mask>
        <path
          clipRule="evenodd"
          d="M18.289 2.89551V7.92128L17.2601 8.95021V16.4431V16.5575V25.9893H17.8317V21.9925L18.8606 20.9636V16.5575V16.4431V2.89551H18.289ZM10.0577 11.127V14.0949L9.02881 15.1238V16.5575H10.6294V11.127H10.0577ZM12.1159 12.4943V9.06907H12.6875V16.5574H11.0869V13.5232L12.1159 12.4943ZM14.1737 7.01123V11.0081L13.1447 12.037V16.4431V16.5574V30.1051H13.7164V25.0793L14.7453 24.0504V16.5574V16.4431V7.01123H14.1737ZM16.2317 9.40752V4.95338H16.8033V16.4431V16.5575V22.5641L15.7743 23.5931V28.0472H15.2027V16.5575V16.4431V10.4365L16.2317 9.40752ZM22.9769 16.4431H21.3763V21.8736H21.9479V18.9057L22.9769 17.8768V16.4431ZM19.8904 23.9315H19.3188V16.4432H20.9194V19.4774L19.8904 20.5063V23.9315Z"
          fill="url(#paint0_linear_5309_9188)"
          fillRule="evenodd"
        />
        <path
          d="M18.289 7.92128L18.3561 7.9884L18.3839 7.96059V7.92128H18.289ZM18.289 2.89551V2.80058H18.1941V2.89551H18.289ZM17.2601 8.95021L17.1929 8.88309L17.1651 8.91089V8.95021H17.2601ZM17.2601 25.9893H17.1651V26.0843H17.2601V25.9893ZM17.8317 25.9893V26.0843H17.9266V25.9893H17.8317ZM17.8317 21.9925L17.7646 21.9254L17.7368 21.9532V21.9925H17.8317ZM18.8606 20.9636L18.9277 21.0307L18.9556 21.0029V20.9636H18.8606ZM18.8606 2.89551H18.9556V2.80058H18.8606V2.89551ZM10.0577 14.0949L10.1249 14.162L10.1527 14.1342V14.0949H10.0577ZM10.0577 11.127V11.0321H9.96282V11.127H10.0577ZM9.02881 15.1238L8.96169 15.0567L8.93389 15.0845V15.1238H9.02881ZM9.02881 16.5575H8.93389V16.6524H9.02881V16.5575ZM10.6294 16.5575V16.6524H10.7243V16.5575H10.6294ZM10.6294 11.127H10.7243V11.0321H10.6294V11.127ZM12.1159 9.06907V8.97415H12.0209V9.06907H12.1159ZM12.1159 12.4943L12.183 12.5614L12.2108 12.5336V12.4943H12.1159ZM12.6875 9.06907H12.7824V8.97415H12.6875V9.06907ZM12.6875 16.5574V16.6523H12.7824V16.5574H12.6875ZM11.0869 16.5574H10.992V16.6523H11.0869V16.5574ZM11.0869 13.5232L11.0198 13.4561L10.992 13.4839V13.5232H11.0869ZM14.1737 11.0081L14.2408 11.0752L14.2686 11.0474V11.0081H14.1737ZM14.1737 7.01123V6.91631H14.0788V7.01123H14.1737ZM13.1447 12.037L13.0776 11.9699L13.0498 11.9977V12.037H13.1447ZM13.1447 30.1051H13.0498V30.2H13.1447V30.1051ZM13.7164 30.1051V30.2H13.8113V30.1051H13.7164ZM13.7164 25.0793L13.6493 25.0122L13.6215 25.04V25.0793H13.7164ZM14.7453 24.0504L14.8124 24.1175L14.8402 24.0897V24.0504H14.7453ZM14.7453 7.01123H14.8402V6.91631H14.7453V7.01123ZM16.2317 4.95338V4.85846H16.1367V4.95338H16.2317ZM16.2317 9.40752L16.2988 9.47464L16.3266 9.44684V9.40752H16.2317ZM16.8033 4.95338H16.8982V4.85846H16.8033V4.95338ZM16.8033 22.5641L16.8704 22.6313L16.8982 22.6035V22.5641H16.8033ZM15.7743 23.5931L15.7072 23.526L15.6794 23.5538V23.5931H15.7743ZM15.7743 28.0472V28.1421H15.8693V28.0472H15.7743ZM15.2027 28.0472H15.1078V28.1421H15.2027V28.0472ZM15.2027 10.4365L15.1356 10.3693L15.1078 10.3971V10.4365H15.2027ZM21.3763 16.4431V16.3482H21.2814V16.4431H21.3763ZM22.9769 16.4431H23.0718V16.3482H22.9769V16.4431ZM21.3763 21.8736H21.2814V21.9685H21.3763V21.8736ZM21.9479 21.8736V21.9685H22.0429V21.8736H21.9479ZM21.9479 18.9057L21.8808 18.8386L21.853 18.8664V18.9057H21.9479ZM22.9769 17.8768L23.044 17.9439L23.0718 17.9161V17.8768H22.9769ZM19.3188 23.9315H19.2239V24.0264H19.3188V23.9315ZM19.8904 23.9315V24.0264H19.9854V23.9315H19.8904ZM19.3188 16.4432V16.3482H19.2239V16.4432H19.3188ZM20.9194 16.4432H21.0143V16.3482H20.9194V16.4432ZM20.9194 19.4774L20.9865 19.5445L21.0143 19.5167V19.4774H20.9194ZM19.8904 20.5063L19.8233 20.4392L19.7955 20.467V20.5063H19.8904ZM18.3839 7.92128V2.89551H18.1941V7.92128H18.3839ZM17.3272 9.01733L18.3561 7.9884L18.2219 7.85415L17.1929 8.88309L17.3272 9.01733ZM17.355 16.4431V8.95021H17.1651V16.4431H17.355ZM17.355 16.5575V16.4431H17.1651V16.5575H17.355ZM17.355 25.9893V16.5575H17.1651V25.9893H17.355ZM17.8317 25.8944H17.2601V26.0843H17.8317V25.8944ZM17.7368 21.9925V25.9893H17.9266V21.9925H17.7368ZM18.7935 20.8965L17.7646 21.9254L17.8988 22.0596L18.9277 21.0307L18.7935 20.8965ZM18.7657 16.5575V20.9636H18.9556V16.5575H18.7657ZM18.7657 16.4431V16.5575H18.9556V16.4431H18.7657ZM18.7657 2.89551V16.4431H18.9556V2.89551H18.7657ZM18.289 2.99043H18.8606V2.80058H18.289V2.99043ZM10.1527 14.0949V11.127H9.96282V14.0949H10.1527ZM9.09593 15.191L10.1249 14.162L9.99063 14.0278L8.96169 15.0567L9.09593 15.191ZM9.12373 16.5575V15.1238H8.93389V16.5575H9.12373ZM10.6294 16.4626H9.02881V16.6524H10.6294V16.4626ZM10.5345 11.127V16.5575H10.7243V11.127H10.5345ZM10.0577 11.2219H10.6294V11.0321H10.0577V11.2219ZM12.0209 9.06907V12.4943H12.2108V9.06907H12.0209ZM12.6875 8.97415H12.1159V9.164H12.6875V8.97415ZM12.7824 16.5574V9.06907H12.5926V16.5574H12.7824ZM11.0869 16.6523H12.6875V16.4625H11.0869V16.6523ZM10.992 13.5232V16.5574H11.1819V13.5232H10.992ZM12.0488 12.4272L11.0198 13.4561L11.1541 13.5903L12.183 12.5614L12.0488 12.4272ZM14.2686 11.0081V7.01123H14.0788V11.0081H14.2686ZM13.2119 12.1041L14.2408 11.0752L14.1066 10.9409L13.0776 11.9699L13.2119 12.1041ZM13.2397 16.4431V12.037H13.0498V16.4431H13.2397ZM13.2397 16.5574V16.4431H13.0498V16.5574H13.2397ZM13.2397 30.1051V16.5574H13.0498V30.1051H13.2397ZM13.7164 30.0101H13.1447V30.2H13.7164V30.0101ZM13.6215 25.0793V30.1051H13.8113V25.0793H13.6215ZM14.6782 23.9832L13.6493 25.0122L13.7835 25.1464L14.8124 24.1175L14.6782 23.9832ZM14.6504 16.5574V24.0504H14.8402V16.5574H14.6504ZM14.6504 16.4431V16.5574H14.8402V16.4431H14.6504ZM14.6504 7.01123V16.4431H14.8402V7.01123H14.6504ZM14.1737 7.10615H14.7453V6.91631H14.1737V7.10615ZM16.1367 4.95338V9.40752H16.3266V4.95338H16.1367ZM16.8033 4.85846H16.2317V5.0483H16.8033V4.85846ZM16.8982 16.4431V4.95338H16.7084V16.4431H16.8982ZM16.8982 16.5575V16.4431H16.7084V16.5575H16.8982ZM16.8982 22.5641V16.5575H16.7084V22.5641H16.8982ZM15.8415 23.6602L16.8704 22.6313L16.7362 22.497L15.7072 23.526L15.8415 23.6602ZM15.8693 28.0472V23.5931H15.6794V28.0472H15.8693ZM15.2027 28.1421H15.7743V27.9523H15.2027V28.1421ZM15.1078 16.5575V28.0472H15.2976V16.5575H15.1078ZM15.1078 16.4431V16.5575H15.2976V16.4431H15.1078ZM15.1078 10.4365V16.4431H15.2976V10.4365H15.1078ZM16.1645 9.3404L15.1356 10.3693L15.2698 10.5036L16.2988 9.47464L16.1645 9.3404ZM21.3763 16.538H22.9769V16.3482H21.3763V16.538ZM21.4712 21.8736V16.4431H21.2814V21.8736H21.4712ZM21.9479 21.7787H21.3763V21.9685H21.9479V21.7787ZM21.853 18.9057V21.8736H22.0429V18.9057H21.853ZM22.9098 17.8096L21.8808 18.8386L22.0151 18.9728L23.044 17.9439L22.9098 17.8096ZM22.882 16.4431V17.8768H23.0718V16.4431H22.882ZM19.3188 24.0264H19.8904V23.8366H19.3188V24.0264ZM19.2239 16.4432V23.9315H19.4137V16.4432H19.2239ZM20.9194 16.3482H19.3188V16.5381H20.9194V16.3482ZM21.0143 19.4774V16.4432H20.8245V19.4774H21.0143ZM19.9576 20.5734L20.9865 19.5445L20.8523 19.4103L19.8233 20.4392L19.9576 20.5734ZM19.9854 23.9315V20.5063H19.7955V23.9315H19.9854Z"
          fill="white"
          fillOpacity="0.4"
          mask="url(#path-3-outside-1_5309_9188)"
        />
      </g>
      <defs>
        <linearGradient
          gradientUnits="userSpaceOnUse"
          id="paint0_linear_5309_9188"
          x1="19.4052"
          x2="19.4052"
          y1="3.46125"
          y2="30.1051"
        >
          <stop stopColor="#003B77" />
          <stop offset="1" stopColor="#0C8FB4" />
        </linearGradient>
        <clipPath id="clip0_5309_9188">
          <rect fill="white" height="32" rx="16" width="32" y="0.5" />
        </clipPath>
      </defs>
    </svg>