<svg width="429" height="250" viewBox="0 0 429 250" fill="none" xmlns="http://www.w3.org/2000/svg">
<g clip-path="url(#clip0_3_236)">
<circle cx="303.571" cy="125" r="125" fill="white"/>
<path d="M314.081 97.9096C314.256 87.1086 321.904 78.0007 332.355 75.9573V54.8223C321.67 55.9316 311.745 60.9526 304.447 69.0096L303.63 69.9437L302.812 69.0096C295.514 60.8942 285.648 55.9316 274.905 54.8223V75.9573C285.356 78.0007 293.004 87.1086 293.179 97.8512V152.09C293.004 162.891 285.356 171.999 274.905 174.042V195.177C285.589 194.068 295.514 189.047 302.812 180.99L303.63 180.056L304.447 180.99C311.745 189.105 321.612 194.068 332.355 195.177V174.042C321.904 171.999 314.256 162.891 314.081 152.148V97.9096Z" fill="black"/>
</g>
<path d="M125 250C194.036 250 250 194.036 250 125C250 55.9644 194.036 0 125 0C55.9644 0 0 55.9644 0 125C0 194.036 55.9644 250 125 250Z" fill="#627EEA"/>
<path d="M128.891 31.25V100.547L187.461 126.719L128.891 31.25Z" fill="white" fill-opacity="0.602"/>
<path d="M128.891 31.25L70.313 126.719L128.891 100.547V31.25Z" fill="white"/>
<path d="M128.891 171.625V218.711L187.5 137.625L128.891 171.625Z" fill="white" fill-opacity="0.602"/>
<path d="M128.891 218.711V171.617L70.313 137.625L128.891 218.711Z" fill="white"/>
<path d="M128.891 160.727L187.461 126.719L128.891 100.563V160.727Z" fill="white" fill-opacity="0.2"/>
<path d="M70.312 126.719L128.89 160.727V100.563L70.312 126.719Z" fill="white" fill-opacity="0.602"/>
<defs>
<clipPath id="clip0_3_236">
<rect width="250" height="250" fill="white" transform="translate(178.571)"/>
</clipPath>
</defs>
</svg>
