<svg width="60" height="60" viewBox="0 0 60 60" fill="none" xmlns="http://www.w3.org/2000/svg">
<g clip-path="url(#clip0_1371_1644)">
<path d="M29.5 0.00976562C13.16 0.279766 0 13.5998 0 29.9998C0 46.3998 13.16 59.7198 29.5 59.9898V0.00976562Z" fill="#627EEA"/>
<path d="M30.5 0.00976562V59.9798C46.84 59.7098 60 46.3898 60 29.9898C60 13.5898 46.84 0.279766 30.5 0.00976562Z" fill="#606060"/>
<path d="M30.5 1.00977V58.9798C46.28 58.7098 59 45.8398 59 29.9898C59 14.1398 46.28 1.27977 30.5 1.00977Z" fill="white"/>
<path d="M36.91 18.2302V13.1602C34.48 13.4102 32.22 14.5202 30.5 16.2702V43.7302C32.22 45.5002 34.47 46.5902 36.91 46.8402V41.7702C34.4 41.2802 32.57 39.0902 32.52 36.5202V23.5002C32.56 20.9102 34.4 18.7202 36.91 18.2302Z" fill="black"/>
<path d="M29.4999 24.7695L16.8799 30.4095L29.4999 37.7395V24.7695Z" fill="#C1CCF7"/>
<path d="M16.8799 33.0301L29.4999 40.3601V50.5101L16.8799 33.0301ZM16.8799 30.4101L29.4999 24.7701V9.83008L16.8799 30.4101Z" fill="white"/>
</g>
<defs>
<clipPath id="clip0_1371_1644">
<rect width="60" height="60" fill="white"/>
</clipPath>
</defs>
</svg>
