<svg width="60" height="60" viewBox="0 0 60 60" fill="none" xmlns="http://www.w3.org/2000/svg">
<circle cx="30" cy="30" r="30" fill="white"/>
<path d="M45.0307 26.5433C45.0307 26.8809 51.6866 33.3438 53.0129 34.839C53.8088 35.7313 54.2669 36.6477 54.2669 37.6846C54.2669 39.7827 52.4101 40.675 49.3233 40.7473C46.6465 40.8197 44.0902 40.7955 42.3539 39.9997C41.7751 39.7345 41.4857 39.3004 41.341 38.3116C41.0999 36.9853 41.0758 35.2249 41.8234 34.6461C42.2574 34.2844 43.8732 34.429 45.0066 34.5014C44.3555 33.585 43.3909 32.4757 42.5468 31.3423C39.8459 27.7491 39.5083 26.8568 40.3282 24.3247C41.4616 20.7556 44.9584 20.1286 47.2976 20.008C49.685 19.8874 50.4808 19.8874 52.9647 21.4549C55.1592 22.8295 55.1833 25.3857 53.9776 27.4838C53.7846 27.8214 53.23 27.7973 52.8924 27.4356C52.0966 26.5433 51.8795 26.0369 48.6963 25.8922C46.5982 25.7957 45.0307 25.9404 45.0307 26.5433Z" fill="black"/>
<path d="M41.6317 33.995C42.6687 34.1397 43.1992 34.5979 43.1751 35.0561C43.1269 35.5143 42.8375 37.0818 42.7652 37.54C42.6446 38.0705 42.524 39.0593 41.4388 38.9387C41.3665 38.9387 41.27 38.9146 41.1735 38.9146C41.1735 39.6863 40.8118 40.1686 40.3054 40.3615C39.6302 40.6268 38.8102 39.9998 38.3279 39.3004C38.2315 39.1557 38.0868 38.8664 37.918 38.5046C36.3263 38.3117 34.6382 38.0705 33.6977 37.9259L29.2846 37.323C28.3441 38.6493 27.2589 39.8551 26.9454 40.3615C26.5113 40.9885 25.8843 41.1573 25.2814 40.6268C24.8232 40.2168 24.3409 39.421 24.1962 39.1075C24.0515 38.794 23.738 38.2635 24.3168 37.1542C24.9197 36.0207 30.0804 25.7958 31.9614 22.3472C32.3955 21.5273 32.6125 20.8762 33.2878 20.8039C33.8666 20.7315 34.5418 20.9727 34.8071 21.9132C35.4582 24.2283 37.7009 28.6173 38.2315 30.4983C38.4485 31.27 38.9067 32.4516 39.389 33.6815L41.6317 33.995ZM31.9614 32.6446L35.6993 33.1751C35.6511 33.0545 35.627 32.9581 35.5788 32.8616C35.217 31.9693 34.5659 30.4501 33.8666 28.762C33.336 29.9677 32.6367 31.3423 31.9614 32.6446Z" fill="black"/>
<path d="M27.1306 23.8665C26.6965 25.5546 26.2624 26.3745 25.2496 26.1575C21.9458 25.4581 21.3187 25.1688 17.0985 25.0482C12.4925 24.9276 8.9475 26.2781 8.65812 28.6414C8.24815 31.9693 12.7336 33.8503 16.5198 34.0674C19.3895 34.2362 22.0904 33.368 22.0904 32.6204C22.0904 32.3311 19.9924 31.5594 17.5808 31.3905C16.1339 31.2941 14.4941 31.3182 12.9507 31.5835C12.396 31.6799 12.2272 31.5111 12.1307 31.27C11.8172 30.4983 11.1179 28.2314 11.1902 27.4838C11.2144 27.2186 11.3108 27.1221 11.4314 27.0498C12.5166 26.3986 13.8912 25.8681 17.195 26.0128C24.0438 26.3022 26.5518 30.2089 25.8766 34.3568C25.3943 37.323 23.7785 41.0126 15.6998 40.2892C9.55039 39.7345 3.23213 35.8037 4.07617 28.8102C4.87198 22.2025 11.2144 19.1399 17.0262 19.0193C22.9104 18.8987 26.5759 20.2492 27.1788 20.7074C27.7817 21.1656 27.6611 21.7926 27.1306 23.8665Z" fill="black"/>
</svg>
