<svg width="48" height="28" viewBox="0 0 48 28" fill="none" xmlns="http://www.w3.org/2000/svg">
<g clip-path="url(#clip0_703_461)">
<g clip-path="url(#clip1_703_461)">
<circle cx="34" cy="14" r="14" fill="black"/>
<circle cx="33.9999" cy="13.9999" r="12.6" fill="white"/>
<path d="M35.1767 10.9657C35.1963 9.75596 36.053 8.73588 37.2234 8.50701V6.13989C36.0268 6.26413 34.9152 6.82649 34.0978 7.72887L34.0063 7.83349L33.9147 7.72887C33.0973 6.81995 31.9922 6.26413 30.7891 6.13989V8.50701C31.9595 8.73588 32.8162 9.75596 32.8358 10.9591V17.0339C32.8162 18.2436 31.9595 19.2637 30.7891 19.4925V21.8596C31.9857 21.7354 33.0973 21.1731 33.9147 20.2707L34.0063 20.166L34.0978 20.2707C34.9152 21.1796 36.0203 21.7354 37.2234 21.8596V19.4925C36.053 19.2637 35.1963 18.2436 35.1767 17.0404V10.9657Z" fill="black"/>
</g>
</g>
<g clip-path="url(#clip2_703_461)">
<path d="M14 28C21.732 28 28 21.732 28 14C28 6.26801 21.732 0 14 0C6.26801 0 0 6.26801 0 14C0 21.732 6.26801 28 14 28Z" fill="url(#paint0_linear_703_461)"/>
<path d="M15.1777 10.9657C15.1973 9.75599 16.054 8.73586 17.2244 8.50703V6.13989C16.0278 6.26413 14.9162 6.82651 14.0988 7.72889L14.0072 7.83348L13.9157 7.72889C13.0983 6.81993 11.9932 6.26413 10.79 6.13989V8.50703C11.9605 8.73586 12.8172 9.75599 12.8368 10.9592V17.0339C12.8172 18.2436 11.9605 19.2636 10.79 19.4926V21.8596C11.9867 21.7354 13.0983 21.173 13.9157 20.2707L14.0072 20.1661L14.0988 20.2707C14.9162 21.1797 16.0213 21.7354 17.2244 21.8596V19.4926C16.054 19.2636 15.1973 18.2436 15.1777 17.0404V10.9657Z" fill="white"/>
</g>
<defs>
<linearGradient id="paint0_linear_703_461" x1="14" y1="-3.98293" x2="14" y2="35.1095" gradientUnits="userSpaceOnUse">
<stop stop-color="#F9F4CD"/>
<stop offset="0.44" stop-color="#FAB8F5"/>
<stop offset="1" stop-color="#9AA6FA"/>
</linearGradient>
<clipPath id="clip0_703_461">
<rect width="28" height="28" fill="white" transform="translate(20)"/>
</clipPath>
<clipPath id="clip1_703_461">
<rect width="28" height="28" fill="white" transform="translate(20)"/>
</clipPath>
<clipPath id="clip2_703_461">
<rect width="28" height="28" fill="white"/>
</clipPath>
</defs>
</svg>
