<svg width="60" height="60" viewBox="0 0 60 60" fill="none" xmlns="http://www.w3.org/2000/svg">
<g clip-path="url(#clip0_1371_1638)">
<path d="M29.5 0.00976562C13.16 0.279766 0 13.5998 0 29.9998C0 46.3998 13.16 59.7198 29.5 59.9898V0.00976562Z" fill="url(#paint0_linear_1371_1638)"/>
<path d="M30.5 0.00976562V59.9798C46.84 59.7098 60 46.3898 60 29.9898C60 13.5898 46.84 0.279766 30.5 0.00976562Z" fill="#606060"/>
<path d="M30.5 1.00977V58.9798C46.28 58.7098 59 45.8398 59 29.9898C59 14.1398 46.28 1.27977 30.5 1.00977Z" fill="white"/>
<path d="M36.91 18.2302V13.1602C34.48 13.4102 32.22 14.5202 30.5 16.2702V43.7302C32.22 45.5002 34.47 46.5902 36.91 46.8402V41.7702C34.4 41.2802 32.57 39.0902 32.52 36.5202V23.5002C32.56 20.9102 34.4 18.7202 36.91 18.2302Z" fill="black"/>
<path d="M29.5001 16.2402C27.7801 14.4902 25.5501 13.4102 23.1201 13.1602V18.2302C25.6301 18.7202 27.4601 20.9102 27.5101 23.4802V36.5002C27.4701 39.0902 25.6301 41.2802 23.1201 41.7702V46.8402C25.5401 46.5902 27.7801 45.5002 29.5001 43.7602V16.2402Z" fill="white"/>
</g>
<defs>
<linearGradient id="paint0_linear_1371_1638" x1="14.75" y1="68.5198" x2="14.75" y2="-15.2202" gradientUnits="userSpaceOnUse">
<stop stop-color="#F9F4CD"/>
<stop offset="0.44" stop-color="#FAB8F5"/>
<stop offset="1" stop-color="#9AA6FA"/>
</linearGradient>
<clipPath id="clip0_1371_1638">
<rect width="60" height="60" fill="white"/>
</clipPath>
</defs>
</svg>
