<svg xmlns="http://www.w3.org/2000/svg" viewBox="0 0 120 120">
  <path fill="#fff" d="M60 120c33.137 0 60-26.863 60-60S93.137 0 60 0 0 26.863 0 60s26.863 60 60 60Z"/>
  <path fill="#000" d="M60 118c32.032 0 58-25.968 58-58S92.032 2 60 2 2 27.968 2 60s25.968 58 58 58Z"/>
  <path fill="#666" d="M95.558 33.125a21.099 21.099 0 0 0-6.091-4.656c-2.904-1.474-6.154-2.15-9.408-2.15h-4.157c-3.259 0-6.509.676-9.413 2.15a21.099 21.099 0 0 0-6.09 4.656l-.01.01-.384.441-.024-.029c-1.268 1.354-4.992 5.971-4.992 13.426v26.035c-.077 4.814-3.25 8.928-7.719 10.277a6.74 6.74 0 0 1-1.934.259H39.95c-4.464 0-8.606-2.65-10.18-6.83a10.812 10.812 0 0 1-.701-3.682V46.997c.019-1.296.268-2.544.7-3.696 1.575-4.181 5.717-6.84 10.186-6.84h4.613c1.982 0 3.95.528 5.597 1.632 1.07.72 2.001 1.622 2.755 2.659 1.33-4.944 3.936-8.098 5.045-9.264a20.568 20.568 0 0 0-5.194-3.394c-2.688-1.228-5.635-1.776-8.592-1.776H39.95c-3.259 0-6.509.677-9.413 2.15a21.099 21.099 0 0 0-6.09 4.657s-5.41 4.867-5.41 13.843v26.035s.312 8.775 5.41 13.872a20.836 20.836 0 0 0 6.84 5.035c2.687 1.23 5.634 1.776 8.591 1.776h4.229c3.26 0 6.509-.676 9.413-2.15a21.084 21.084 0 0 0 6.091-4.656l.02-.02.374-.426.014.019c4.704-5.146 5.002-13.44 5.002-13.44V46.978a10.893 10.893 0 0 1 4.824-8.88c1.646-1.104 3.614-1.632 5.596-1.632h4.613c4.469 0 8.611 2.659 10.186 6.84.437 1.156.681 2.4.7 3.696v26.035a10.812 10.812 0 0 1-.7 3.681c-1.58 4.176-5.717 6.83-10.181 6.83h-5.386a6.74 6.74 0 0 1-1.934-.258 10.825 10.825 0 0 1-5.798-4.258c-.797 3.014-2.252 6.629-4.901 9.475a20.996 20.996 0 0 0 4.445 3.034c2.908 1.473 6.153 2.15 9.412 2.15h4.23c2.956 0 5.903-.547 8.591-1.776a20.769 20.769 0 0 0 6.84-5.035c5.098-5.098 5.41-13.872 5.41-13.872V46.973c0-8.976-5.41-13.843-5.41-13.843v-.005Z"/>
  <path fill="#FCFCFC" d="M50.16 38.088c-1.195-.802-2.558-1.296-3.974-1.507V26.405c2.27.197 4.507.739 6.585 1.685a20.873 20.873 0 0 1 5.194 3.393c-1.104 1.167-3.716 4.32-5.045 9.264a10.912 10.912 0 0 0-2.755-2.659h-.005Zm16.776 40.934c-.797 3.015-2.251 6.63-4.9 9.476a20.996 20.996 0 0 0 4.444 3.033c2.285 1.162 4.785 1.82 7.334 2.05V83.486a5.887 5.887 0 0 1-1.08-.21 10.825 10.825 0 0 1-5.798-4.258v.004Zm-.451-50.553a21.099 21.099 0 0 0-6.091 4.656l-.01.01-.384.441-.024-.029c-1.267 1.354-4.992 5.971-4.992 13.426v26.035c-.077 4.814-3.25 8.928-7.718 10.277a5.967 5.967 0 0 1-1.08.211V93.59c2.548-.23 5.044-.892 7.334-2.05a21.084 21.084 0 0 0 6.091-4.655l.02-.02.374-.427.014.02c4.704-5.146 5.002-13.44 5.002-13.44V46.982a10.893 10.893 0 0 1 4.824-8.88c1.195-.801 2.558-1.296 3.974-1.507V26.43c-2.549.23-5.045.893-7.33 2.05l-.004-.01Z"/>
</svg>
