<svg width="48" height="28" viewBox="0 0 48 28" fill="none" xmlns="http://www.w3.org/2000/svg">
<g clip-path="url(#clip0_15448_30331)">
<circle cx="34" cy="14" r="14" fill="white"/>
<path d="M35.177 10.9654C35.1966 9.75572 36.0532 8.73563 37.2237 8.50677V6.13965C36.027 6.26389 34.9154 6.82624 34.098 7.72862L34.0065 7.83325L33.9149 7.72862C33.0976 6.8197 31.9925 6.26389 30.7893 6.13965V8.50677C31.9598 8.73563 32.8164 9.75572 32.836 10.9589V17.0336C32.8164 18.2433 31.9598 19.2634 30.7893 19.4923V21.8594C31.9859 21.7352 33.0976 21.1728 33.9149 20.2704L34.0065 20.1658L34.098 20.2704C34.9154 21.1794 36.0205 21.7352 37.2237 21.8594V19.4923C36.0532 19.2634 35.1966 18.2433 35.177 17.0402V10.9654Z" fill="black"/>
</g>
<g clip-path="url(#clip1_15448_30331)">
<circle cx="14" cy="14" r="14" fill="#7B2BF9"/>
<path d="M24.2724 11.8194C23.8788 9.97022 22.9937 8.26152 21.7104 6.87345C20.4272 5.48538 18.7933 4.46936 16.981 3.93251C15.1687 3.39566 13.2452 3.35787 11.4133 3.82312C9.58135 4.28837 7.90883 5.23942 6.57206 6.57601C6.09518 7.05305 5.66471 7.57436 5.28648 8.1329C5.17536 8.28149 5.07528 8.43802 4.98703 8.60123C4.25163 9.83248 3.77598 11.2013 3.58936 12.6233C3.40275 14.0454 3.50911 15.4906 3.90191 16.87C4.2947 18.2494 4.96562 19.5338 5.87334 20.644C6.78106 21.7543 7.90637 22.6669 9.17999 23.3257C10.4536 23.9845 11.8485 24.3756 13.2789 24.4748C14.7093 24.574 16.1449 24.3793 17.4972 23.9027C18.8496 23.426 20.09 22.6775 21.1423 21.7032C22.1945 20.7289 23.0362 19.5495 23.6156 18.2375C23.6785 18.1074 23.7339 17.9737 23.7814 17.8372C24.2582 16.6157 24.5019 15.3156 24.5 14.0043C24.5002 13.2794 24.4261 12.5565 24.2789 11.8467C24.2769 11.8376 24.2753 11.8285 24.2724 11.8194ZM20.6309 7.01605C20.6914 7.07329 20.7512 7.13184 20.8104 7.19103C21.7248 8.10279 22.4463 9.18942 22.9319 10.3861C22.9428 10.4131 22.9463 10.4425 22.942 10.4712C22.9377 10.5 22.9258 10.5271 22.9074 10.5497C22.8891 10.5723 22.865 10.5896 22.8378 10.5997C22.8105 10.6098 22.781 10.6124 22.7524 10.6073C22.4444 10.5556 22.1321 10.5339 21.8199 10.5422C21.7045 10.5446 21.592 10.5058 21.5026 10.4327C21.4132 10.3596 21.3528 10.2571 21.3322 10.1435C21.1449 9.09298 20.8741 8.12282 20.5262 7.27591C20.5064 7.22778 20.4865 7.17997 20.466 7.13281C20.4565 7.11106 20.4547 7.08666 20.461 7.06375C20.4674 7.04084 20.4814 7.02083 20.5008 7.00709C20.5202 6.99336 20.5437 6.98674 20.5674 6.98838C20.5911 6.99001 20.6136 6.99979 20.6309 7.01605ZM21.6297 13.1789C21.6291 13.1549 21.6362 13.1314 21.65 13.1119C21.6638 13.0923 21.6834 13.0776 21.7061 13.07C21.7289 13.0625 21.7534 13.0624 21.7761 13.0698C21.7989 13.0772 21.8187 13.0917 21.8326 13.1112C21.9113 13.2218 21.9871 13.3328 22.0602 13.4443C22.1569 13.5926 22.2468 13.74 22.33 13.8866C22.3553 13.9312 22.3657 13.9827 22.3599 14.0337C22.354 14.0846 22.3322 14.1324 22.2975 14.1702C22.185 14.2938 22.0627 14.4217 21.9304 14.554C21.882 14.6024 21.8329 14.6515 21.7825 14.6993C21.7685 14.7119 21.7511 14.7201 21.7326 14.723C21.714 14.7259 21.6949 14.7234 21.6778 14.7157C21.6606 14.708 21.646 14.6956 21.6357 14.6798C21.6255 14.664 21.62 14.6456 21.6199 14.6268C21.6262 14.4687 21.6308 14.31 21.6336 14.1507C21.6388 13.8241 21.6372 13.5002 21.6287 13.1789H21.6297ZM8.40582 6.15647C10.0362 4.98828 11.9926 4.36251 13.9981 4.36769C14.5294 4.36762 15.0597 4.41113 15.5838 4.49778C15.6148 4.50293 15.6437 4.51696 15.6668 4.53816C15.69 4.55936 15.7066 4.58684 15.7145 4.61725C15.7224 4.64767 15.7213 4.67973 15.7114 4.70955C15.7015 4.73937 15.6832 4.76568 15.6586 4.78529C15.1556 5.17979 14.6881 5.76358 14.2745 6.52072C14.2256 6.61029 14.1478 6.68061 14.0538 6.72019C13.9598 6.75978 13.8551 6.76628 13.7569 6.73863C12.3864 6.35258 11.0378 6.1711 9.79187 6.21468C9.35458 6.22875 8.91892 6.27495 8.4884 6.3529C8.46413 6.35686 8.43923 6.35254 8.41771 6.34062C8.39619 6.3287 8.37931 6.30989 8.36978 6.28722C8.36024 6.26454 8.35861 6.23931 8.36515 6.21559C8.37169 6.19188 8.38601 6.17105 8.40582 6.15647ZM7.0305 20.5493C6.82827 20.1671 7.09 19.2809 8.41948 17.9364C8.45227 17.9033 8.47772 17.8636 8.49415 17.8201C8.51059 17.7765 8.51764 17.7299 8.51485 17.6834C8.51205 17.6369 8.49948 17.5915 8.47795 17.5502C8.45641 17.5089 8.42641 17.4726 8.38989 17.4436C8.33657 17.4017 8.28389 17.3594 8.23122 17.3171C8.16743 17.2654 8.08674 17.2391 8.00472 17.2434C7.92271 17.2476 7.84518 17.2821 7.78709 17.3402L7.73507 17.3926C7.07049 18.0756 6.60555 18.7065 6.34479 19.2747C6.32767 19.3111 6.30122 19.3422 6.26815 19.3651C6.23507 19.3879 6.19654 19.4016 6.15648 19.4047C6.11642 19.4078 6.07624 19.4002 6.04005 19.3827C6.00385 19.3653 5.97292 19.3386 5.9504 19.3053C4.91122 17.733 4.35957 15.8888 4.36472 14.004C4.36443 13.3282 4.43461 12.6543 4.57411 11.9931C4.57825 11.9715 4.58952 11.952 4.60611 11.9377C4.6227 11.9233 4.64364 11.915 4.66555 11.914C4.68745 11.913 4.70905 11.9195 4.72685 11.9323C4.74465 11.9451 4.75762 11.9635 4.76366 11.9846C4.96329 12.6448 5.28875 13.3275 5.73906 14.0176C6.34414 14.9472 7.14202 15.8406 8.08751 16.6602C8.41037 16.9398 8.75144 17.2104 9.10681 17.4732C9.84737 18.0159 10.6286 18.5007 11.4436 18.9234C11.8129 19.1153 12.1725 19.2984 12.5409 19.4643C12.6422 19.5102 12.7517 19.5354 12.8629 19.5385C12.9742 19.5415 13.0849 19.5222 13.1886 19.4819C13.362 19.4136 13.5369 19.3428 13.7133 19.2695C13.8058 19.2305 13.8814 19.1597 13.9262 19.0699C13.971 18.98 13.9821 18.877 13.9575 18.7797L13.9435 18.7224C13.6535 17.5015 13.4922 16.1268 13.473 14.6873C13.473 14.6701 13.473 14.6525 13.473 14.6353C13.473 14.5566 13.473 14.4775 13.4711 14.3988C13.4711 14.3738 13.4711 14.3315 13.4711 14.3061C13.4711 14.2964 13.4711 14.2863 13.4711 14.2765C13.4711 14.1864 13.4711 14.0967 13.474 14.0063C13.4782 13.7591 13.4874 13.5139 13.5 13.2709C13.5898 11.5338 13.884 9.90118 14.3529 8.52805C14.3736 8.46707 14.3693 8.40033 14.3409 8.34251C14.3125 8.28469 14.2623 8.24053 14.2013 8.21974C14.0774 8.17637 13.9536 8.13583 13.83 8.0981C13.7699 8.07928 13.7048 8.0847 13.6487 8.11319C13.5925 8.14169 13.5496 8.191 13.5293 8.25063C13.0214 9.74182 12.7083 11.5111 12.6244 13.3831C12.6194 13.5 12.5853 13.6139 12.5251 13.7143C12.465 13.8147 12.3808 13.8985 12.2801 13.9581C11.1717 14.6154 10.1537 15.3121 9.27425 16.0142C9.18526 16.0849 9.07438 16.1223 8.96076 16.12C8.84714 16.1176 8.73791 16.0756 8.65195 16.0012C7.77051 15.2369 7.02855 14.4076 6.46769 13.5451C5.36581 11.8519 5.10213 10.2573 5.73061 9.05688L5.73549 9.04843C5.81525 8.91573 5.89838 8.78488 5.98487 8.65587C6.70504 7.70229 8.04557 7.14972 9.82146 7.08728C9.93395 7.08338 10.0473 7.08142 10.1615 7.08142C11.252 7.08142 12.4222 7.26128 13.6125 7.60472L13.6909 7.62781L13.751 7.64538C14.0261 7.72777 14.3018 7.81862 14.5782 7.91792L14.5977 7.92507C14.6694 7.95109 14.7413 7.97765 14.8132 8.00476L14.8809 8.03045L14.9459 8.05549C15.5383 8.28504 16.1176 8.54703 16.6811 8.84028C17.7541 9.39384 18.7636 10.0628 19.6916 10.8352C18.0041 11.222 16.0426 11.968 14.0706 12.974C14.0258 12.9967 13.9878 13.0308 13.9603 13.0729C13.9328 13.1149 13.9168 13.1635 13.9139 13.2137C13.9071 13.336 13.898 13.5818 13.8915 13.7773C13.8905 13.8053 13.8969 13.833 13.9101 13.8577C13.9232 13.8824 13.9426 13.9032 13.9663 13.9181C13.99 13.933 14.0172 13.9413 14.0452 13.9423C14.0731 13.9434 14.1009 13.937 14.1256 13.924C16.0764 12.8985 18.0272 12.1319 19.7003 11.7267C19.8511 11.69 19.9829 11.5986 20.0701 11.4701C20.1572 11.3417 20.1935 11.1854 20.1718 11.0317C20.1408 10.8088 20.1062 10.5896 20.0681 10.3741C20.0212 10.1028 19.8739 9.8592 19.6555 9.69173C18.846 9.07714 17.9854 8.53309 17.083 8.06558C16.47 7.74656 15.8393 7.46282 15.194 7.21574C15.1621 7.20355 15.1332 7.18465 15.1093 7.16031C15.0854 7.13598 15.067 7.10678 15.0553 7.0747C15.0436 7.04262 15.039 7.00841 15.0417 6.97439C15.0445 6.94036 15.0545 6.90732 15.0711 6.8775C15.7236 5.70927 16.5017 5.05621 17.2566 5.05621H17.28C18.1725 5.07214 19.0621 6.00133 19.7212 7.60602C20.0544 8.4191 20.3129 9.35479 20.4895 10.3728C20.4887 10.3718 20.4878 10.371 20.4869 10.3702C20.5623 10.8047 20.6228 11.2535 20.668 11.714L20.6559 11.7212L20.6722 11.7374C20.7481 12.534 20.7786 13.3343 20.7635 14.1344C20.7541 14.6548 20.7265 15.166 20.6819 15.6672C19.488 16.6322 18.0123 17.5926 16.3902 18.4525C15.8569 18.7351 15.3237 18.9982 14.797 19.2405L14.7726 19.2516L14.6513 19.3072C14.2141 19.505 13.7819 19.6876 13.3547 19.8552L13.2825 19.8829L13.1928 19.9177C13.1212 19.9452 13.05 19.9722 12.9792 19.9987L12.9203 20.0208C12.8342 20.0533 12.7483 20.0839 12.6628 20.1144C12.6524 20.1183 12.6417 20.1226 12.6303 20.1261C11.7173 20.4514 10.8476 20.6969 10.0549 20.8498C8.13791 21.2199 7.23533 20.9369 7.0305 20.5493ZM9.67027 16.8091C10.5192 16.1177 11.5138 15.4278 12.6046 14.7748C12.628 16.1707 12.7812 17.5106 13.052 18.7211C12.6473 18.5477 12.2447 18.3575 11.8441 18.1507C11.0871 17.7583 10.3604 17.3099 9.67027 16.8091ZM15.2408 23.5606C14.8287 23.6134 14.4136 23.6399 13.9981 23.64C12.1538 23.6451 10.3472 23.1168 8.79598 22.1188C8.77316 22.1037 8.75568 22.0818 8.74605 22.0562C8.73641 22.0305 8.7351 22.0025 8.7423 21.9761C8.74951 21.9497 8.76486 21.9262 8.78617 21.9091C8.80749 21.8919 8.83367 21.8819 8.86101 21.8804C8.88702 21.8804 8.9114 21.8782 8.93286 21.8765C9.36377 21.8459 9.79236 21.7886 10.2162 21.7048C11.2036 21.5146 12.3013 21.1887 13.4506 20.7496C13.5002 20.731 13.5552 20.7324 13.6038 20.7537C13.6524 20.7749 13.6907 20.8143 13.7107 20.8634V20.8654C14.1562 21.95 14.7043 22.77 15.3198 23.2913C15.3423 23.3106 15.3588 23.336 15.3673 23.3644C15.3757 23.3928 15.3757 23.4231 15.3674 23.4515C15.3591 23.48 15.3427 23.5054 15.3202 23.5248C15.2977 23.5441 15.2702 23.5566 15.2408 23.5606ZM19.3131 20.9877C18.6255 22.3406 17.7785 23.1001 16.9575 23.0848C16.0653 23.0688 15.1755 22.1397 14.5167 20.535C14.4967 20.4859 14.4967 20.431 14.5167 20.3819C14.5367 20.3328 14.5751 20.2936 14.6237 20.2725L14.6448 20.2634C14.6881 20.2446 14.7366 20.2412 14.782 20.254C16.0143 20.6 17.2287 20.7805 18.3666 20.7805C18.4902 20.7805 18.6129 20.7785 18.7347 20.7743C18.8771 20.7691 19.0172 20.7611 19.1551 20.7503C19.1839 20.7484 19.2128 20.7542 19.2387 20.767C19.2646 20.7798 19.2867 20.7992 19.3027 20.8233C19.3187 20.8474 19.3281 20.8752 19.33 20.9041C19.3318 20.933 19.326 20.9618 19.3131 20.9877ZM19.6096 19.824C19.3093 19.867 19.0068 19.8936 18.7035 19.9037C17.8901 19.9263 17.0767 19.8608 16.2773 19.7085C16.2549 19.7045 16.2344 19.6934 16.2186 19.677C16.2028 19.6606 16.1926 19.6397 16.1893 19.6171C16.1861 19.5946 16.19 19.5716 16.2006 19.5514C16.2111 19.5312 16.2277 19.5149 16.2481 19.5046C16.431 19.4123 16.614 19.3175 16.7969 19.2204C18.0221 18.5751 19.2007 17.8448 20.324 17.0348C20.3414 17.0222 20.3623 17.015 20.3839 17.0143C20.4054 17.0135 20.4267 17.0192 20.445 17.0306C20.4633 17.042 20.4778 17.0586 20.4867 17.0783C20.4955 17.098 20.4983 17.1199 20.4947 17.1412C20.3609 17.9699 20.1606 18.7865 19.8958 19.583C19.8749 19.6457 19.8372 19.7014 19.7867 19.7439C19.7362 19.7864 19.6749 19.8142 19.6096 19.824ZM21.0315 20.5883C20.9589 20.6657 20.8848 20.7425 20.8094 20.816C20.6793 20.9474 20.545 21.0743 20.4065 21.1968C20.3881 21.2131 20.3647 21.2226 20.3401 21.2237C20.3156 21.2248 20.2914 21.2174 20.2716 21.2027C20.2518 21.1881 20.2377 21.1671 20.2315 21.1433C20.2254 21.1195 20.2276 21.0943 20.2378 21.0719C20.2519 21.042 20.2659 21.0118 20.2797 20.9812C20.3372 20.8539 20.393 20.7238 20.4472 20.5909C20.4536 20.5754 20.4635 20.5616 20.4761 20.5506C20.4888 20.5396 20.5038 20.5317 20.52 20.5275C20.6566 20.4926 20.7897 20.4543 20.9193 20.4127C20.942 20.4046 20.9669 20.4045 20.9897 20.4124C21.0125 20.4203 21.032 20.4356 21.045 20.456C21.058 20.4763 21.0638 20.5005 21.0613 20.5245C21.0588 20.5485 21.0483 20.571 21.0315 20.5883ZM22.9673 17.5311C22.9211 17.6491 22.8726 17.766 22.8216 17.882C22.8138 17.898 22.8064 17.9146 22.7979 17.9299C22.4803 18.5416 21.9474 19.023 21.2353 19.3583C21.1996 19.3752 21.1598 19.3816 21.1206 19.3765C21.0814 19.3715 21.0445 19.3553 21.0142 19.3299C20.984 19.3045 20.9617 19.2709 20.95 19.2331C20.9383 19.1954 20.9377 19.155 20.9482 19.117C21.1941 18.2226 21.3717 17.3108 21.4795 16.3896C21.5015 16.2099 21.5896 16.0449 21.7266 15.9268C22.0192 15.6734 22.293 15.4204 22.5446 15.169L22.5472 15.166C22.5756 15.1378 22.6108 15.1173 22.6495 15.1067C22.6881 15.0961 22.7288 15.0957 22.7677 15.1055C22.8065 15.1154 22.8421 15.1351 22.8711 15.1628C22.9 15.1905 22.9213 15.2252 22.9328 15.2636C23.1812 16.0903 23.1952 16.8602 22.9673 17.5314V17.5311ZM23.1601 13.0169C23.1438 13.0466 23.12 13.0715 23.0911 13.0892C23.0623 13.107 23.0293 13.1168 22.9954 13.1179C22.9615 13.119 22.928 13.1113 22.898 13.0954C22.8681 13.0796 22.8428 13.0562 22.8246 13.0276L22.7872 12.9694C22.4897 12.5149 22.1602 12.0821 21.8014 11.6743C21.7812 11.6511 21.7682 11.6226 21.7638 11.5921C21.7594 11.5617 21.7639 11.5306 21.7767 11.5026C21.7895 11.4747 21.81 11.451 21.8359 11.4343C21.8618 11.4177 21.8919 11.4089 21.9226 11.409H21.9259C22.7888 11.409 23.2411 11.622 23.3792 11.8825C23.4921 12.1001 23.4576 12.4809 23.1601 13.0172V13.0169ZM23.6264 14.2905C23.626 14.3043 23.6209 14.3176 23.612 14.3281C23.603 14.3386 23.5908 14.3457 23.5772 14.3483C23.5637 14.3509 23.5496 14.3488 23.5375 14.3423C23.5253 14.3358 23.5157 14.3253 23.5103 14.3126L23.4778 14.2349C23.4674 14.2115 23.4635 14.1859 23.4664 14.1605C23.4692 14.1351 23.4788 14.111 23.494 14.0905L23.5291 14.0443C23.5714 13.9893 23.6322 13.9975 23.6322 14.0586C23.6309 14.139 23.629 14.2086 23.6264 14.2908V14.2905Z" fill="white"/>
</g>
<defs>
<clipPath id="clip0_15448_30331">
<rect width="28" height="28" fill="white" transform="translate(20)"/>
</clipPath>
<clipPath id="clip1_15448_30331">
<rect width="28" height="28" fill="white"/>
</clipPath>
</defs>
</svg>
