<svg width="60" height="60" viewBox="0 0 60 60" fill="none" xmlns="http://www.w3.org/2000/svg">
<g clip-path="url(#clip0_1371_1657)">
<path d="M29.5 0.00976562C13.16 0.279766 0 13.5998 0 29.9998C0 46.3998 13.16 59.7198 29.5 59.9898V0.00976562Z" fill="#7B2BF9"/>
<path d="M30.5 0.00976562V59.9798C46.84 59.7098 60 46.3898 60 29.9898C60 13.5898 46.84 0.279766 30.5 0.00976562Z" fill="#606060"/>
<path d="M30.5 1.00977V58.9798C46.28 58.7098 59 45.8398 59 29.9898C59 14.1398 46.28 1.27977 30.5 1.00977Z" fill="white"/>
<path d="M36.91 18.2302V13.1602C34.48 13.4102 32.22 14.5202 30.5 16.2702V43.7302C32.22 45.5002 34.47 46.5902 36.91 46.8402V41.7702C34.4 41.2802 32.57 39.0902 32.52 36.5202V23.5002C32.56 20.9102 34.4 18.7202 36.91 18.2302Z" fill="black"/>
<path d="M29.4999 50.64C25.7199 50.56 22.0299 49.45 18.8499 47.4C18.7999 47.37 18.7599 47.32 18.7399 47.27C18.7199 47.22 18.7199 47.16 18.7399 47.1C18.7599 47.04 18.7899 46.99 18.8299 46.96C18.8699 46.93 18.9299 46.9 18.9899 46.9C19.0499 46.9 19.0999 46.9 19.1399 46.9C20.0599 46.83 20.9799 46.71 21.8899 46.53C24.0099 46.12 26.3599 45.42 28.8199 44.48C28.9299 44.44 29.0399 44.44 29.1499 44.48C29.2499 44.53 29.3399 44.61 29.3799 44.72C29.4199 44.82 29.4599 44.91 29.4999 45V42.19C29.2099 42.31 28.9099 42.45 28.6199 42.56L28.4699 42.62L28.2799 42.69C28.1299 42.75 27.9699 42.81 27.8199 42.86L27.6899 42.91C27.5099 42.98 27.3199 43.05 27.1399 43.11C27.1199 43.11 27.0899 43.13 27.0699 43.14C25.1099 43.84 23.2499 44.36 21.5499 44.69C17.4399 45.48 15.5099 44.88 15.0699 44.05C14.6399 43.23 15.1999 41.33 18.0499 38.45C18.1199 38.38 18.1699 38.29 18.2099 38.2C18.2499 38.11 18.2599 38.01 18.2499 37.91C18.2499 37.81 18.2199 37.71 18.1699 37.62C18.1199 37.53 18.0599 37.45 17.9799 37.39C17.8699 37.3 17.7499 37.21 17.6399 37.12C17.4999 37.01 17.3299 36.95 17.1499 36.96C16.9699 36.96 16.8099 37.04 16.6799 37.17L16.5699 37.28C15.1499 38.74 14.1499 40.1 13.5899 41.31C13.5499 41.39 13.4999 41.45 13.4299 41.5C13.3599 41.55 13.2799 41.58 13.1899 41.58C13.0999 41.58 13.0199 41.58 12.9399 41.53C12.8599 41.49 12.7999 41.44 12.7499 41.36C10.5199 37.99 9.33991 34.04 9.34991 30C9.34991 28.55 9.49991 27.11 9.79991 25.69C9.79991 25.64 9.82991 25.6 9.86991 25.57C9.90991 25.54 9.94991 25.52 9.99991 25.52C10.0499 25.52 10.0899 25.53 10.1299 25.56C10.1699 25.59 10.1999 25.63 10.2099 25.67C10.6399 27.08 11.3399 28.55 12.2999 30.03C13.5999 32.02 15.3099 33.94 17.3299 35.69C18.0199 36.29 18.7499 36.87 19.5099 37.43C21.0999 38.59 22.7699 39.63 24.5199 40.54C25.3099 40.95 26.0799 41.34 26.8699 41.7C27.0899 41.8 27.3199 41.85 27.5599 41.86C27.7999 41.86 28.0399 41.83 28.2599 41.74C28.6299 41.59 29.0099 41.44 29.3799 41.29C29.4199 41.27 29.4599 41.24 29.4899 41.22V38.27C29.1099 36.14 28.8899 33.85 28.8599 31.47V31.36C28.8599 31.19 28.8599 31.02 28.8599 30.85V30.59C28.8599 30.4 28.8599 30.2 28.8599 30.01C28.8599 29.48 28.8899 28.95 28.9199 28.43C29.0099 26.66 29.2099 24.95 29.4899 23.31V17.33C29.3999 17.33 29.3199 17.33 29.2399 17.38C29.1199 17.44 29.0299 17.55 28.9799 17.67C27.8899 20.87 27.2199 24.66 27.0399 28.67C27.0299 28.92 26.9599 29.16 26.8299 29.38C26.6999 29.6 26.5199 29.77 26.2999 29.9C23.9199 31.31 21.7399 32.8 19.8599 34.31C19.6699 34.46 19.4299 34.54 19.1899 34.54C18.9499 34.54 18.7099 34.44 18.5299 34.29C16.6399 32.65 15.0499 30.88 13.8499 29.03C11.4899 25.4 10.9199 21.98 12.2699 19.41V19.39C12.4499 19.11 12.6299 18.83 12.8099 18.55C14.3499 16.51 17.2299 15.32 21.0299 15.19C21.2699 15.19 21.5099 15.18 21.7599 15.18C24.0999 15.18 26.5999 15.57 29.1499 16.3L29.3199 16.35L29.4499 16.39C29.4499 16.39 29.4699 16.39 29.4799 16.4V14.45C29.4799 14.45 29.4699 14.45 29.4599 14.45C26.5199 13.62 23.6299 13.23 20.9599 13.33C20.0199 13.36 19.0899 13.46 18.1699 13.63C18.1199 13.63 18.0599 13.63 18.0199 13.6C17.9699 13.57 17.9399 13.53 17.9199 13.49C17.8999 13.44 17.8999 13.39 17.9199 13.34C17.9299 13.29 17.9599 13.24 18.0099 13.21C21.3699 10.8 25.3699 9.48004 29.4999 9.40004V7.54004C27.8099 7.58004 26.1099 7.79004 24.4599 8.22004C20.5299 9.22004 16.9499 11.25 14.0899 14.12C13.0699 15.14 12.1499 16.26 11.3399 17.46C11.0999 17.78 10.8899 18.11 10.6999 18.46C9.11991 21.1 8.09991 24.03 7.69991 27.08C7.29991 30.13 7.52991 33.22 8.36991 36.18C9.20991 39.14 10.6499 41.89 12.5899 44.27C14.5399 46.65 16.9499 48.6 19.6799 50.02C22.4099 51.43 25.3999 52.27 28.4599 52.48C28.8099 52.5 29.1599 52.52 29.5099 52.53V50.68L29.4999 50.64ZM27.0099 31.66C27.0599 34.65 27.3899 37.52 27.9699 40.12C27.0999 39.75 26.2399 39.34 25.3799 38.9C23.7599 38.06 22.1999 37.1 20.7199 36.03C22.5399 34.55 24.6699 33.07 27.0099 31.67V31.66Z" fill="white"/>
</g>
<defs>
<clipPath id="clip0_1371_1657">
<rect width="60" height="60" fill="white"/>
</clipPath>
</defs>
</svg>
