<svg width="36" height="36" viewBox="0 0 36 36" fill="none" xmlns="http://www.w3.org/2000/svg">
<g clip-path="url(#clip0_15448_30258)">
<circle cx="18" cy="18" r="18" fill="#7B2BF9"/>
<path d="M31.2074 15.1964C30.7013 12.8189 29.5633 10.622 27.9134 8.83729C26.2635 7.05263 24.1628 5.74632 21.8327 5.05609C19.5027 4.36585 17.0296 4.31726 14.6742 4.91544C12.3189 5.51361 10.1685 6.7364 8.44979 8.45488C7.83665 9.06821 7.2832 9.73846 6.7969 10.4566C6.65404 10.6476 6.52536 10.8489 6.41189 11.0587C5.46639 12.6418 4.85484 14.4016 4.6149 16.23C4.37496 18.0584 4.51171 19.9165 5.01674 21.69C5.52176 23.4635 6.38437 25.1148 7.55144 26.5423C8.71851 27.9698 10.1653 29.1431 11.8028 29.9902C13.4403 30.8373 15.2338 31.3401 17.0729 31.4676C18.912 31.5952 20.7577 31.3449 22.4964 30.732C24.2352 30.1192 25.8301 29.1568 27.1829 27.9041C28.5358 26.6515 29.618 25.135 30.3629 23.4482C30.4438 23.2809 30.515 23.109 30.5761 22.9335C31.1891 21.363 31.5025 19.6915 31.5 18.0055C31.5002 17.0736 31.405 16.144 31.2157 15.2315C31.2132 15.2198 31.2111 15.2081 31.2074 15.1964ZM26.5254 9.02064C26.6032 9.09423 26.6801 9.1695 26.7562 9.24561C27.9319 10.4179 28.8595 11.815 29.4838 13.3536C29.4979 13.3882 29.5024 13.426 29.4969 13.463C29.4913 13.5 29.476 13.5349 29.4524 13.5639C29.4288 13.593 29.3979 13.6151 29.3629 13.6282C29.3278 13.6412 29.2899 13.6445 29.2531 13.6379C28.8571 13.5715 28.4556 13.5435 28.0542 13.5543C27.9058 13.5574 27.7611 13.5074 27.6462 13.4135C27.5313 13.3195 27.4536 13.1877 27.4271 13.0416C27.1863 11.691 26.8381 10.4436 26.3908 9.35474C26.3653 9.29286 26.3398 9.23139 26.3135 9.17076C26.3012 9.14279 26.2989 9.11143 26.307 9.08197C26.3152 9.05251 26.3332 9.02678 26.3582 9.00912C26.3831 8.99146 26.4134 8.98296 26.4438 8.98506C26.4743 8.98716 26.5031 8.99973 26.5254 9.02064ZM27.8096 16.9443C27.8089 16.9135 27.818 16.8833 27.8357 16.8581C27.8534 16.8329 27.8787 16.8141 27.9079 16.8043C27.9371 16.7946 27.9686 16.7945 27.9979 16.804C28.0272 16.8135 28.0526 16.8322 28.0705 16.8573C28.1716 16.9995 28.2692 17.1422 28.3631 17.2855C28.4874 17.4762 28.603 17.6657 28.7101 17.8542C28.7425 17.9116 28.7559 17.9778 28.7484 18.0433C28.7409 18.1088 28.7128 18.1702 28.6682 18.2188C28.5236 18.3777 28.3663 18.5422 28.1963 18.7122C28.134 18.7745 28.0709 18.8377 28.0061 18.8991C27.9881 18.9153 27.9658 18.9258 27.9419 18.9296C27.918 18.9333 27.8935 18.9301 27.8714 18.9202C27.8493 18.9103 27.8305 18.8943 27.8174 18.874C27.8042 18.8537 27.7971 18.8301 27.7971 18.8059C27.8052 18.6027 27.811 18.3986 27.8146 18.1937C27.8213 17.7739 27.8192 17.3574 27.8084 16.9443H27.8096ZM10.8075 7.91546C12.9037 6.4135 15.4191 5.60894 17.9976 5.6156C18.6806 5.61551 19.3625 5.67145 20.0363 5.78286C20.0762 5.78949 20.1133 5.80752 20.1431 5.83478C20.1729 5.86204 20.1942 5.89736 20.2044 5.93647C20.2145 5.97558 20.2132 6.01679 20.2004 6.05514C20.1876 6.09348 20.1641 6.1273 20.1325 6.15251C19.4858 6.65973 18.8847 7.41032 18.3529 8.38379C18.2901 8.49894 18.19 8.58936 18.0691 8.64025C17.9483 8.69114 17.8137 8.6995 17.6874 8.66395C15.9254 8.1676 14.1914 7.93427 12.5895 7.9903C12.0273 8.00839 11.4672 8.06779 10.9137 8.16802C10.8825 8.17311 10.8504 8.16755 10.8228 8.15223C10.7951 8.13691 10.7734 8.11272 10.7611 8.08356C10.7489 8.05441 10.7468 8.02197 10.7552 7.99148C10.7636 7.96099 10.782 7.93421 10.8075 7.91546ZM9.03921 26.4205C8.7792 25.9292 9.11571 24.7897 10.825 23.061C10.8672 23.0185 10.8999 22.9675 10.9211 22.9115C10.9422 22.8554 10.9512 22.7956 10.9477 22.7358C10.9441 22.676 10.9279 22.6176 10.9002 22.5645C10.8725 22.5114 10.834 22.4647 10.787 22.4275C10.7184 22.3736 10.6507 22.3192 10.583 22.2649C10.501 22.1984 10.3972 22.1646 10.2918 22.1701C10.1863 22.1755 10.0867 22.2199 10.012 22.2946L9.94509 22.3619C9.09063 23.24 8.49285 24.0512 8.15759 24.7817C8.13557 24.8285 8.10157 24.8686 8.05905 24.8979C8.01652 24.9273 7.96699 24.9449 7.91547 24.9488C7.86396 24.9528 7.81231 24.9431 7.76578 24.9207C7.71924 24.8982 7.67947 24.8639 7.65052 24.8211C6.31443 22.7996 5.60516 20.4284 5.61178 18.0051C5.61141 17.1363 5.70164 16.2698 5.88099 15.4197C5.88632 15.392 5.90081 15.3669 5.92214 15.3484C5.94347 15.33 5.9704 15.3193 5.99856 15.318C6.02673 15.3168 6.05449 15.325 6.07738 15.3415C6.10027 15.358 6.11694 15.3817 6.12471 15.4088C6.38138 16.2577 6.79982 17.1354 7.3788 18.0227C8.15675 19.2178 9.1826 20.3664 10.3982 21.4202C10.8133 21.7798 11.2518 22.1277 11.7088 22.4656C12.6609 23.1633 13.6653 23.7866 14.7131 24.3301C15.188 24.5768 15.6504 24.8123 16.124 25.0255C16.2543 25.0846 16.3951 25.117 16.5381 25.1209C16.6811 25.1248 16.8234 25.1 16.9567 25.0481C17.1797 24.9603 17.4046 24.8693 17.6314 24.7751C17.7504 24.725 17.8475 24.6339 17.9051 24.5184C17.9627 24.4028 17.9769 24.2705 17.9454 24.1453L17.9274 24.0717C17.5545 22.502 17.3471 20.7344 17.3225 18.8837C17.3225 18.8615 17.3225 18.8389 17.3225 18.8168C17.3225 18.7156 17.3225 18.614 17.32 18.5128C17.32 18.4806 17.32 18.4262 17.32 18.3936C17.32 18.381 17.32 18.3681 17.32 18.3555C17.32 18.2397 17.32 18.1243 17.3237 18.008C17.3292 17.6903 17.3409 17.375 17.3572 17.0626C17.4726 14.8292 17.8509 12.7301 18.4537 10.9646C18.4804 10.8862 18.4749 10.8004 18.4383 10.7261C18.4018 10.6517 18.3373 10.595 18.2589 10.5682C18.0995 10.5125 17.9403 10.4603 17.7815 10.4118C17.7042 10.3877 17.6205 10.3946 17.5483 10.4313C17.476 10.4679 17.421 10.5313 17.3948 10.608C16.7418 12.5252 16.3393 14.8 16.2314 17.2069C16.2249 17.3572 16.1811 17.5035 16.1038 17.6326C16.0265 17.7617 15.9182 17.8695 15.7887 17.9462C14.3637 18.7913 13.0548 19.6869 11.924 20.5897C11.8096 20.6806 11.6671 20.7287 11.521 20.7257C11.3749 20.7226 11.2345 20.6686 11.1239 20.573C9.99065 19.5903 9.03671 18.5241 8.3156 17.4151C6.8989 15.2382 6.55988 13.188 7.36793 11.6446L7.3742 11.6337C7.47676 11.4631 7.58363 11.2948 7.69483 11.129C8.62076 9.90295 10.3443 9.1925 12.6276 9.11222C12.7722 9.1072 12.918 9.10469 13.0648 9.10469C14.4669 9.10469 15.9714 9.33593 17.5018 9.7775L17.6026 9.80719L17.6799 9.82977C18.0336 9.9357 18.388 10.0525 18.7434 10.1802L18.7685 10.1894C18.8607 10.2228 18.9531 10.257 19.0456 10.2918L19.1326 10.3249L19.2162 10.3571C19.9778 10.6522 20.7226 10.989 21.4472 11.3661C22.8267 12.0778 24.1246 12.9379 25.3177 13.931C23.1482 14.4282 20.6262 15.3875 18.0908 16.6808C18.0332 16.7101 17.9843 16.7539 17.9489 16.808C17.9136 16.8621 17.893 16.9245 17.8893 16.989C17.8806 17.1462 17.8689 17.4624 17.8605 17.7137C17.8593 17.7496 17.8675 17.7853 17.8844 17.8171C17.9013 17.8488 17.9262 17.8756 17.9567 17.8947C17.9871 17.9138 18.0221 17.9246 18.0581 17.9259C18.094 17.9272 18.1297 17.9191 18.1615 17.9023C20.6697 16.5838 23.1778 15.5982 25.329 15.0772C25.5229 15.0301 25.6923 14.9125 25.8044 14.7473C25.9164 14.5822 25.963 14.3812 25.9352 14.1836C25.8953 13.897 25.8509 13.6152 25.8018 13.3381C25.7415 12.9893 25.5521 12.6761 25.2713 12.4608C24.2306 11.6706 23.1241 10.9711 21.9639 10.37C21.1757 9.95986 20.3648 9.59505 19.5351 9.27739C19.4941 9.26171 19.457 9.23741 19.4262 9.20612C19.3955 9.17483 19.3718 9.13729 19.3568 9.09605C19.3418 9.0548 19.3359 9.01081 19.3394 8.96707C19.3429 8.92332 19.3558 8.88084 19.3771 8.8425C20.2161 7.34049 21.2164 6.50084 22.1871 6.50084H22.2172C23.3647 6.52133 24.5084 7.71599 25.3558 9.77917C25.7843 10.8246 26.1166 12.0276 26.3436 13.3364C26.3426 13.3352 26.3415 13.3341 26.3402 13.3331C26.4372 13.8917 26.515 14.4688 26.5731 15.0609L26.5576 15.0701L26.5785 15.091C26.6761 16.1152 26.7154 17.1441 26.696 18.1728C26.6839 18.8419 26.6483 19.4992 26.5911 20.1436C25.056 21.3842 23.1586 22.619 21.0731 23.7246C20.3875 24.088 19.7019 24.4263 19.0247 24.7378L18.9934 24.7521L18.8374 24.8236C18.2753 25.0778 17.7196 25.3127 17.1703 25.5282L17.0775 25.5637L16.9621 25.6084C16.8702 25.6438 16.7786 25.6785 16.6875 25.7126L16.6118 25.741C16.5011 25.7828 16.3907 25.8221 16.2808 25.8614C16.2674 25.8664 16.2536 25.8719 16.239 25.8765C15.0651 26.2946 13.9469 26.6103 12.9277 26.8069C10.463 27.2827 9.30257 26.9189 9.03921 26.4205ZM12.4332 21.6117C13.5247 20.7227 14.8034 19.8358 16.2059 18.9961C16.236 20.7909 16.4329 22.5137 16.7811 24.07C16.2608 23.847 15.7432 23.6025 15.2282 23.3366C14.2548 22.8321 13.3206 22.2555 12.4332 21.6117ZM19.5953 30.2922C19.0655 30.3601 18.5318 30.3942 17.9976 30.3942C15.6263 30.4008 13.3036 29.7216 11.3091 28.4385C11.2798 28.4191 11.2573 28.3909 11.2449 28.3579C11.2325 28.325 11.2308 28.289 11.2401 28.255C11.2494 28.2211 11.2691 28.1909 11.2965 28.1688C11.3239 28.1467 11.3576 28.1338 11.3927 28.132C11.4262 28.132 11.4575 28.1291 11.4851 28.127C12.0391 28.0876 12.5902 28.0139 13.1351 27.9062C14.4046 27.6616 15.8159 27.2426 17.2936 26.6781C17.3575 26.6541 17.4281 26.656 17.4906 26.6833C17.553 26.7106 17.6024 26.7613 17.6281 26.8244V26.8269C18.2008 28.2215 18.9056 29.2757 19.6969 29.946C19.7259 29.9707 19.747 30.0034 19.7579 30.0399C19.7688 30.0765 19.7688 30.1154 19.7581 30.152C19.7474 30.1885 19.7263 30.2212 19.6974 30.2461C19.6685 30.271 19.6331 30.287 19.5953 30.2922ZM24.8311 26.9842C23.947 28.7237 22.858 29.7001 21.8025 29.6804C20.6554 29.6599 19.5113 28.4653 18.6644 26.4021C18.6386 26.339 18.6386 26.2684 18.6643 26.2053C18.69 26.1422 18.7394 26.0917 18.8019 26.0646L18.8291 26.0529C18.8847 26.0287 18.947 26.0245 19.0055 26.0408C20.5898 26.4857 22.1512 26.7178 23.6143 26.7178C23.7731 26.7178 23.9308 26.7152 24.0875 26.7099C24.2706 26.7032 24.4507 26.6929 24.628 26.6789C24.6651 26.6765 24.7021 26.6839 24.7355 26.7004C24.7688 26.7169 24.7972 26.7419 24.8178 26.7728C24.8384 26.8037 24.8505 26.8396 24.8528 26.8767C24.8551 26.9138 24.8477 26.9509 24.8311 26.9842ZM25.2124 25.488C24.8262 25.5433 24.4373 25.5775 24.0473 25.5905C23.0016 25.6195 21.9557 25.5354 20.928 25.3396C20.8992 25.3343 20.8728 25.3201 20.8525 25.299C20.8322 25.2779 20.819 25.251 20.8149 25.222C20.8107 25.193 20.8158 25.1635 20.8293 25.1375C20.8429 25.1116 20.8642 25.0905 20.8904 25.0774C21.1256 24.9586 21.3608 24.8368 21.596 24.7119C23.1713 23.8823 24.6866 22.9433 26.1308 21.9019C26.1533 21.8856 26.1801 21.8764 26.2078 21.8755C26.2355 21.8745 26.2629 21.8818 26.2865 21.8965C26.31 21.9112 26.3287 21.9325 26.34 21.9579C26.3514 21.9832 26.355 22.0113 26.3503 22.0386C26.1783 23.1041 25.9208 24.154 25.5803 25.1782C25.5535 25.2587 25.505 25.3303 25.44 25.385C25.3751 25.4397 25.2963 25.4754 25.2124 25.488ZM27.0404 26.4707C26.9472 26.5702 26.8519 26.6689 26.7549 26.7634C26.5877 26.9323 26.4151 27.0955 26.237 27.253C26.2133 27.274 26.1832 27.2862 26.1516 27.2876C26.12 27.289 26.0889 27.2795 26.0635 27.2607C26.0381 27.2418 26.0199 27.2149 26.012 27.1843C26.0041 27.1536 26.0069 27.1212 26.02 27.0925C26.0381 27.054 26.0561 27.0151 26.074 26.9758C26.1478 26.8122 26.2196 26.6449 26.2892 26.474C26.2974 26.4541 26.3102 26.4363 26.3264 26.4222C26.3427 26.408 26.362 26.3979 26.3829 26.3925C26.5584 26.3476 26.7296 26.2984 26.8962 26.2449C26.9255 26.2345 26.9574 26.2344 26.9868 26.2445C27.0161 26.2546 27.0412 26.2744 27.0579 26.3005C27.0746 26.3267 27.082 26.3578 27.0788 26.3886C27.0756 26.4195 27.0621 26.4484 27.0404 26.4707ZM29.5294 22.54C29.47 22.6917 29.4076 22.8421 29.3421 22.9912C29.3321 23.0117 29.3225 23.033 29.3116 23.0527C28.9032 23.8392 28.218 24.4581 27.3025 24.8892C27.2567 24.911 27.2055 24.9192 27.1551 24.9127C27.1047 24.9062 27.0572 24.8854 27.0183 24.8527C26.9794 24.82 26.9507 24.7768 26.9357 24.7283C26.9206 24.6798 26.9199 24.6279 26.9334 24.5789C27.2495 23.429 27.4779 22.2568 27.6165 21.0723C27.6448 20.8413 27.758 20.6292 27.9342 20.4773C28.3104 20.1515 28.6624 19.8262 28.9859 19.503L28.9893 19.4992C29.0258 19.4628 29.0711 19.4366 29.1208 19.4229C29.1704 19.4093 29.2228 19.4088 29.2727 19.4214C29.3227 19.434 29.3685 19.4594 29.4057 19.495C29.4429 19.5306 29.4703 19.5753 29.4851 19.6246C29.8045 20.6876 29.8224 21.6774 29.5294 22.5404V22.54ZM29.7773 16.736C29.7563 16.7742 29.7257 16.8063 29.6886 16.829C29.6515 16.8518 29.609 16.8645 29.5655 16.8659C29.522 16.8673 29.4788 16.8573 29.4403 16.837C29.4018 16.8166 29.3693 16.7866 29.3459 16.7498L29.2978 16.675C28.9153 16.0906 28.4917 15.5342 28.0303 15.0099C28.0044 14.98 27.9877 14.9433 27.982 14.9042C27.9764 14.865 27.9822 14.8251 27.9986 14.7891C28.015 14.7531 28.0415 14.7227 28.0747 14.7013C28.108 14.6799 28.1467 14.6686 28.1863 14.6687H28.1904C29.2999 14.6687 29.8814 14.9426 30.059 15.2775C30.2041 15.5572 30.1598 16.0469 29.7773 16.7364V16.736ZM30.3767 18.3735C30.3763 18.3913 30.3697 18.4083 30.3582 18.4218C30.3468 18.4353 30.331 18.4445 30.3136 18.4478C30.2961 18.4511 30.2781 18.4484 30.2624 18.4401C30.2468 18.4317 30.2345 18.4183 30.2275 18.402L30.1857 18.302C30.1724 18.272 30.1674 18.239 30.171 18.2064C30.1747 18.1737 30.187 18.1427 30.2066 18.1164L30.2517 18.057C30.3061 17.9863 30.3843 17.9968 30.3843 18.0754C30.3826 18.1787 30.3801 18.2681 30.3767 18.3739V18.3735Z" fill="white"/>
</g>
<defs>
<clipPath id="clip0_15448_30258">
<rect width="36" height="36" fill="white"/>
</clipPath>
</defs>
</svg>
