<svg width="60" height="60" viewBox="0 0 60 60" fill="none" xmlns="http://www.w3.org/2000/svg">
<g clip-path="url(#clip0_1371_1651)">
<path d="M30.5 0.00976562V59.9798C46.84 59.7098 60 46.3898 60 29.9898C60 13.5898 46.84 0.279766 30.5 0.00976562Z" fill="#606060"/>
<path d="M30.5 1.00977V58.9798C46.28 58.7098 59 45.8398 59 29.9898C59 14.1398 46.28 1.27977 30.5 1.00977Z" fill="white"/>
<path d="M29.5 0.00976562C13.11 0.279766 0 13.5398 0 29.9998C0 46.4598 13.11 59.7198 29.5 59.9898V0.00976562Z" fill="#2775CA"/>
<path d="M36.91 18.2302V13.1602C34.48 13.4102 32.22 14.5202 30.5 16.2702V43.7302C32.22 45.5002 34.47 46.5902 36.91 46.8402V41.7702C34.4 41.2802 32.57 39.0902 32.52 36.5202V23.5002C32.56 20.9102 34.4 18.7202 36.91 18.2302Z" fill="black"/>
<path d="M24.3801 48.9998V50.7498C24.3801 50.9998 24.3801 51.1298 24.2501 51.2498C24.1301 51.7498 23.6301 51.9998 23.1301 51.7498C16.1301 49.4998 10.7501 44.1198 8.50011 37.1298C4.75011 25.2598 11.2501 12.6298 23.1301 8.87977C23.2601 8.75977 23.5101 8.75977 23.6301 8.75977C24.1301 8.87977 24.3801 9.25977 24.3801 9.75977V11.5098C24.3801 12.1398 24.1301 12.5098 23.6301 12.7598C18.5101 14.6398 14.3801 18.6298 12.5101 23.8798C8.88011 33.5098 13.8801 44.3798 23.6301 47.8798C24.0101 48.1298 24.3801 48.6298 24.3801 48.9998ZM29.5001 22.1298V15.2498H29.0001C28.5001 15.2498 28.1201 15.6298 28.0001 16.2498V19.1198C24.2501 19.6198 21.8801 22.1198 21.8801 25.2498C21.8801 29.3398 24.3401 30.9698 29.5001 31.6098V28.1098C26.5101 27.5698 25.8801 26.5998 25.8801 24.9998C25.8801 23.2798 27.0901 22.1698 29.5001 22.1298ZM25.3801 35.1298C25.2601 34.6298 24.8801 34.3798 24.5101 34.3798H22.3801C21.8801 34.3798 21.5101 34.7598 21.5101 35.2598V35.3898C22.0101 38.5098 24.0101 40.7598 28.1301 41.3898V44.3898C28.1301 44.8898 28.5101 45.2598 29.1301 45.3898H29.5001V38.3598C26.7501 38.1898 25.7201 36.8898 25.3801 35.1398V35.1298Z" fill="white"/>
</g>
<defs>
<clipPath id="clip0_1371_1651">
<rect width="60" height="60" fill="white"/>
</clipPath>
</defs>
</svg>
