<svg width="60" height="60" viewBox="0 0 60 60" fill="none" xmlns="http://www.w3.org/2000/svg">
<path fill-rule="evenodd" clip-rule="evenodd" d="M10.9854 4.87159L0.0449787 27.852C0.00334709 27.9375 -0.00984571 28.0341 0.00732964 28.1276C0.024505 28.2211 0.0711474 28.3067 0.140436 28.3718L29.688 56.6854C29.7719 56.7659 29.8837 56.8109 30 56.8109C30.1163 56.8109 30.2281 56.7659 30.312 56.6854L59.8596 28.3735C59.9289 28.3084 59.9755 28.2229 59.9927 28.1293C60.0098 28.0358 59.9967 27.9393 59.955 27.8538L49.0146 4.87336C48.9793 4.79618 48.9225 4.7308 48.851 4.68503C48.7795 4.63926 48.6964 4.61505 48.6115 4.61527H11.392C11.3067 4.61421 11.223 4.63784 11.1508 4.68332C11.0787 4.72881 11.0213 4.79419 10.9854 4.87159Z" fill="#50AF95"/>
<path fill-rule="evenodd" clip-rule="evenodd" d="M33.7963 30.2127C33.5842 30.2286 32.4882 30.294 30.0434 30.294C28.0989 30.294 26.7183 30.2356 26.234 30.2127C18.7194 29.8821 13.1104 28.574 13.1104 27.0078C13.1104 25.4416 18.7194 24.1352 26.234 23.7993V28.9098C26.7254 28.9452 28.1325 29.0283 30.077 29.0283C32.4104 29.0283 33.5789 28.9311 33.7892 28.9116V23.8029C41.2879 24.137 46.8846 25.4451 46.8846 27.0078C46.8846 28.5704 41.2897 29.8786 33.7892 30.2109L33.7963 30.2127ZM33.7963 23.2743V18.7012H44.2613V11.7275H15.769V18.7012H26.2322V23.2726C17.7277 23.6632 11.332 25.3479 11.332 27.3666C11.332 29.3854 17.7277 31.0682 26.2322 31.4607V46.1151H33.7945V31.4554C42.2796 31.0647 48.6647 29.3818 48.6647 27.3649C48.6647 25.3479 42.2849 23.665 33.7945 23.2726L33.7963 23.2743Z" fill="white"/>
</svg>
