<svg width="60" height="60" viewBox="0 0 60 60" fill="none" xmlns="http://www.w3.org/2000/svg">
<path d="M30 60C46.6251 60 60 46.6251 60 30C60 13.3749 46.6251 0 30 0C13.3749 0 0 13.3749 0 30C0 46.6251 13.3749 60 30 60Z" fill="#50AF95"/>
<path fill-rule="evenodd" clip-rule="evenodd" d="M33.7963 32.7205C33.5842 32.7364 32.4882 32.8018 30.0434 32.8018C28.0989 32.8018 26.7183 32.7435 26.234 32.7205C18.7194 32.3899 13.1104 31.0818 13.1104 29.5156C13.1104 27.9494 18.7194 26.643 26.234 26.3072V31.4177C26.7254 31.453 28.1325 31.5361 30.077 31.5361C32.4104 31.5361 33.5789 31.4389 33.7892 31.4194V26.3107C41.2879 26.6448 46.8846 27.9529 46.8846 29.5156C46.8846 31.0783 41.2897 32.3864 33.7892 32.7187L33.7963 32.7205ZM33.7963 25.7821V21.209H44.2613V14.2354H15.769V21.209H26.2322V25.7804C17.7277 26.171 11.332 27.8557 11.332 29.8744C11.332 31.8932 17.7277 33.5761 26.2322 33.9685V48.623H33.7945V33.9632C42.2796 33.5725 48.6647 31.8896 48.6647 29.8727C48.6647 27.8557 42.2849 26.1728 33.7945 25.7804L33.7963 25.7821Z" fill="white"/>
</svg>
