<svg width="60" height="60" viewBox="0 0 60 60" fill="none" xmlns="http://www.w3.org/2000/svg">
<circle cx="29.9529" cy="29.9139" r="28.0818" fill="#F5F5F6"/>
<path d="M48.9248 12.5922L47.2773 14.2396C51.2084 18.5385 53.3884 24.1529 53.3884 29.9782C53.3884 35.8035 51.2084 41.4179 47.2773 45.7168L48.9248 47.3642C53.2966 42.6222 55.7237 36.4087 55.7237 29.959C55.7237 23.5093 53.2966 17.2957 48.9248 12.5537V12.5922Z" fill="#5A5564"/>
<path d="M14.2796 12.7345C18.5785 8.8034 24.1929 6.62341 30.0182 6.62341C35.8435 6.62341 41.4579 8.8034 45.7568 12.7345L47.4043 11.087C42.6623 6.71525 36.4487 4.28809 29.999 4.28809C23.5493 4.28809 17.3358 6.71525 12.5938 11.087L14.2796 12.7345Z" fill="#5A5564"/>
<path d="M12.7345 45.7322C8.80805 41.4343 6.63094 35.8233 6.63094 30.0018C6.63094 24.1804 8.80805 18.5694 12.7345 14.2715L11.087 12.624C6.71525 17.366 4.28809 23.5796 4.28809 30.0293C4.28809 36.479 6.71525 42.6926 11.087 47.4346L12.7345 45.7322Z" fill="#5A5564"/>
<path d="M45.733 47.2539C41.4341 51.185 35.8197 53.365 29.9944 53.365C24.1692 53.365 18.5548 51.185 14.2558 47.2539L12.6084 48.9014C17.3504 53.2731 23.5639 55.7003 30.0137 55.7003C36.4634 55.7003 42.6769 53.2731 47.4189 48.9014L45.733 47.2539Z" fill="#5A5564"/>
<path d="M40.4013 24.5022C40.0718 21.0645 37.1064 19.9113 33.3557 19.5598V14.8262H30.4562V19.472C29.6929 19.472 28.9131 19.472 28.1388 19.472V14.8262H25.2613V19.5928H19.3799V22.6955C19.3799 22.6955 21.5216 22.657 21.4886 22.6955C21.8748 22.653 22.2623 22.7621 22.5697 22.9997C22.877 23.2374 23.08 23.5851 23.1361 23.9695V37.0173C23.1278 37.1528 23.0925 37.2854 23.0321 37.4071C22.9717 37.5287 22.8876 37.6371 22.7846 37.7257C22.6836 37.8159 22.5653 37.8849 22.437 37.9283C22.3086 37.9717 22.1728 37.9887 22.0378 37.9783C22.0762 38.0112 19.929 37.9783 19.929 37.9783L19.3799 41.4434H25.2064V46.2869H28.1059V41.5148H30.4233V46.2649H33.3283V41.4764C38.2267 41.1798 41.6424 39.9717 42.0707 35.3863C42.4167 31.696 40.6814 30.0486 37.9082 29.3841C39.594 28.5549 40.6374 27.0173 40.4013 24.5022ZM36.3376 34.8152C36.3376 38.4176 30.1652 38.0057 28.1992 38.0057V31.6136C30.1652 31.6191 36.3376 31.0535 36.3376 34.8152ZM34.9922 25.8091C34.9922 29.104 29.8412 28.7032 28.2047 28.7032V22.8932C29.8412 22.8932 34.9922 22.377 34.9922 25.8091Z" fill="#F09242"/>
<path d="M29.9945 60C24.0615 59.9989 18.2621 58.2387 13.3295 54.9418C8.39685 51.6449 4.55252 46.9595 2.28258 41.478C0.0126285 35.9964 -0.581009 29.9649 0.576723 24.146C1.73445 18.327 4.59156 12.9821 8.78681 8.78681C12.9821 4.59156 18.327 1.73445 24.146 0.576723C29.9649 -0.581009 35.9964 0.0126285 41.478 2.28258C46.9595 4.55252 51.6449 8.39685 54.9418 13.3295C58.2387 18.2621 59.9989 24.0615 60 29.9945C60.0007 33.9351 59.2251 37.8372 57.7174 41.478C56.2098 45.1187 53.9996 48.4268 51.2132 51.2132C48.4268 53.9996 45.1187 56.2098 41.478 57.7174C37.8372 59.2251 33.9351 60.0007 29.9945 60V60ZM29.9945 2.33939C24.5284 2.34373 19.1863 3.96845 14.6434 7.00818C10.1005 10.0479 6.56065 14.3662 4.47137 19.4173C2.3821 24.4683 1.83714 30.0254 2.90539 35.386C3.97363 40.7467 6.60712 45.6704 10.473 49.5348C14.3389 53.3991 19.2636 56.0306 24.6247 57.0968C29.9858 58.1629 35.5427 57.6157 40.5929 55.5244C45.6431 53.4332 49.96 49.8916 52.9979 45.3475C56.0359 40.8034 57.6585 35.4606 57.6606 29.9945C57.6621 26.3615 56.9474 22.7637 55.5574 19.4071C54.1674 16.0505 52.1294 13.0007 49.56 10.4323C46.9905 7.86383 43.9399 5.82706 40.5828 4.43841C37.2256 3.04977 33.6276 2.3365 29.9945 2.33939V2.33939Z" fill="#282138"/>
</svg>
