<svg width="600" height="600" viewBox="0 0 600 600" fill="none" xmlns="http://www.w3.org/2000/svg">
<rect width="600" height="600" fill="black"/>
<path d="M300.005 465.391C214.326 465.391 154.533 409.083 154.533 328.437C154.533 233.189 208.96 134.622 300.005 134.622C391.049 134.622 445.476 233.189 445.476 328.437C445.476 409.083 385.684 465.391 300.005 465.391Z" fill="white"/>
<path d="M376.386 214.281C361.784 193.428 337.17 170.142 300 170.142V299.573L376.386 214.281Z" fill="#959595"/>
<path d="M300.014 170.559C262.844 170.559 238.23 193.845 223.627 214.698L300.014 299.99V170.559Z" fill="white"/>
<path d="M223.624 214.716C222.905 215.767 222.185 216.762 221.522 217.758C210.349 234.628 201.996 254.983 196.742 276.776L300.065 299.952L223.679 214.66L223.624 214.716Z" fill="#EEEEEE"/>
<path d="M196.693 276.821C192.711 293.415 190.498 310.894 190.498 328.428C190.498 336.669 191.383 344.524 192.987 351.991L300.017 299.997L196.693 276.821Z" fill="#D1D1D1"/>
<path d="M229.439 408.6C247.858 421.875 271.919 429.398 300.018 429.398V299.967L229.439 408.6Z" fill="#959595"/>
<path d="M300.016 429.398C328.114 429.398 352.175 421.875 370.594 408.6L300.016 299.967V429.398Z" fill="white"/>
<path d="M370.594 408.6C389.235 395.104 402.012 375.69 407.045 351.96L300.016 299.967L370.594 408.6Z" fill="#D1D1D1"/>
<path d="M407.045 351.991C408.649 344.524 409.534 336.669 409.534 328.428C409.534 310.894 407.322 293.415 403.339 276.821L300.016 299.997L407.045 351.991Z" fill="#D1D1D1"/>
<path d="M376.402 214.726L300.016 300.018L403.339 276.842C398.085 255.049 389.732 234.694 378.559 217.824C377.896 216.828 377.177 215.777 376.457 214.782L376.402 214.726Z" fill="#4F4F4F"/>
<path d="M193.004 351.96C198.038 375.69 210.815 395.16 229.455 408.6L300.034 299.967L193.004 351.96Z" fill="#4F4F4F"/>
<path d="M299.987 388.517C257.673 388.517 231.4 365.507 231.4 328.447C231.4 272.194 257.618 211.517 299.987 211.517C342.357 211.517 368.575 272.194 368.575 328.447C368.575 365.507 342.301 388.517 299.987 388.517Z" fill="#EAEAEA"/>
</svg>
