<svg width="250" height="250" viewBox="0 0 250 250" fill="none" xmlns="http://www.w3.org/2000/svg">
<g clip-path="url(#clip0_1_22)">
<path d="M125 250C194.271 250 250 194.271 250 125C250 55.7288 194.271 0 125 0C55.7288 0 0 55.7288 0 125C0 194.271 55.7288 250 125 250Z" fill="#2775CA"/>
<path d="M159.375 144.791C159.375 126.562 148.437 120.312 126.562 117.709C110.937 115.625 107.812 111.459 107.812 104.166C107.812 96.8738 113.021 92.1875 123.437 92.1875C132.812 92.1875 138.021 95.3125 140.625 103.125C141.146 104.688 142.709 105.729 144.271 105.729H152.604C154.687 105.729 156.25 104.166 156.25 102.084V101.562C154.166 90.1038 144.791 81.25 132.812 80.2087V67.7087C132.812 65.625 131.25 64.0625 128.646 63.5412H120.834C118.75 63.5412 117.187 65.1037 116.666 67.7087V79.6875C101.041 81.7713 91.1462 92.1875 91.1462 105.209C91.1462 122.396 101.562 129.166 123.437 131.771C138.021 134.375 142.709 137.5 142.709 145.834C142.709 154.168 135.416 159.896 125.521 159.896C111.979 159.896 107.291 154.166 105.729 146.354C105.209 144.271 103.646 143.229 102.084 143.229H93.2287C91.1462 143.229 89.5837 144.791 89.5837 146.875V147.396C91.6662 160.416 100 169.791 117.187 172.396V184.896C117.187 186.979 118.75 188.541 121.354 189.063H129.166C131.25 189.063 132.812 187.5 133.334 184.896V172.396C148.959 169.791 159.375 158.854 159.375 144.791Z" fill="white"/>
<path d="M98.4375 199.479C57.8125 184.896 36.9787 139.584 52.0837 99.4788C59.8962 77.6038 77.0837 60.9375 98.4375 53.125C100.521 52.0838 101.562 50.5213 101.562 47.9163V40.625C101.562 38.5413 100.521 36.9788 98.4375 36.4588C97.9162 36.4588 96.875 36.4588 96.3537 36.9788C46.875 52.6038 19.7912 105.209 35.4162 154.688C44.7912 183.854 67.1875 206.25 96.3537 215.625C98.4375 216.666 100.521 215.625 101.041 213.541C101.562 213.021 101.562 212.5 101.562 211.459V204.166C101.562 202.604 100 200.521 98.4375 199.479ZM153.646 36.9788C151.562 35.9375 149.479 36.9788 148.959 39.0625C148.437 39.5838 148.437 40.1038 148.437 41.1463V48.4375C148.437 50.5213 150 52.6038 151.562 53.6463C192.187 68.2288 213.021 113.541 197.916 153.646C190.104 175.521 172.916 192.188 151.562 200C149.479 201.041 148.437 202.604 148.437 205.209V212.5C148.437 214.584 149.479 216.146 151.562 216.666C152.084 216.666 153.125 216.666 153.646 216.146C203.125 200.521 230.209 147.916 214.584 98.4375C205.209 68.75 182.291 46.3538 153.646 36.9788Z" fill="white"/>
</g>
<defs>
<clipPath id="clip0_1_22">
<rect width="250" height="250" fill="white"/>
</clipPath>
</defs>
</svg>
