<svg width="429" height="250" viewBox="0 0 429 250" fill="none" xmlns="http://www.w3.org/2000/svg">
<g clip-path="url(#clip0_2_162)">
<circle cx="303.571" cy="125" r="125" fill="white"/>
<path d="M314.081 97.9096C314.256 87.1086 321.904 78.0007 332.355 75.9572V54.8223C321.67 55.9316 311.745 60.9526 304.447 69.0096L303.63 69.9437L302.812 69.0096C295.514 60.8942 285.648 55.9316 274.905 54.8223V75.9572C285.356 78.0007 293.004 87.1086 293.179 97.8512V152.09C293.004 162.891 285.356 171.999 274.905 174.042V195.177C285.589 194.068 295.514 189.047 302.812 180.99L303.63 180.056L304.447 180.99C311.745 189.105 321.612 194.068 332.355 195.177V174.042C321.904 171.999 314.256 162.891 314.081 152.148V97.9096Z" fill="black"/>
</g>
<g clip-path="url(#clip1_2_162)">
<path d="M250 125C250 55.9644 194.036 0 125 0C55.9644 0 0 55.9644 0 125C0 194.036 55.9644 250 125 250C194.036 250 250 194.036 250 125Z" fill="#00A3FF"/>
<path opacity="0.6" d="M176.275 116.119L177.675 118.266C193.459 142.479 189.934 174.19 169.199 194.506C157.001 206.458 141.015 212.435 125.027 212.436C125.027 212.436 125.027 212.436 176.275 116.119Z" fill="white"/>
<path opacity="0.2" d="M125.021 145.393L176.27 116.119C125.022 212.436 125.021 212.436 125.021 212.436C125.021 191.459 125.021 167.422 125.021 145.393Z" fill="white"/>
<path d="M73.7246 116.119L72.3252 118.266C56.541 142.479 60.0664 174.19 80.8008 194.506C92.9985 206.458 108.985 212.435 124.973 212.436C124.973 212.436 124.973 212.436 73.7246 116.119Z" fill="white"/>
<path opacity="0.6" d="M124.958 145.393L73.71 116.119C124.958 212.436 124.958 212.436 124.958 212.436C124.958 191.459 124.958 167.422 124.958 145.393Z" fill="white"/>
<path opacity="0.2" d="M125.041 79.9966V130.485L169.185 105.257L125.041 79.9966Z" fill="white"/>
<path opacity="0.6" d="M125.027 79.9966L80.8511 105.256L125.027 130.485V79.9966Z" fill="white"/>
<path d="M125.027 37.5366L80.8511 105.273L125.027 79.9424V37.5366Z" fill="white"/>
<path opacity="0.6" d="M125.041 79.9346L169.219 105.266L125.041 37.4959V79.9346Z" fill="white"/>
</g>
<defs>
<clipPath id="clip0_2_162">
<rect width="250" height="250" fill="white" transform="translate(178.571)"/>
</clipPath>
<clipPath id="clip1_2_162">
<rect width="250" height="250" fill="white"/>
</clipPath>
</defs>
</svg>
