<svg width="60" height="60" viewBox="0 0 60 60" fill="none" xmlns="http://www.w3.org/2000/svg">
<path d="M30 60C46.5685 60 60 46.5685 60 30C60 13.4315 46.5685 0 30 0C13.4315 0 0 13.4315 0 30C0 46.5685 13.4315 60 30 60Z" fill="black"/>
<mask id="mask0_15461_40804" style="mask-type:alpha" maskUnits="userSpaceOnUse" x="0" y="0" width="60" height="60">
<path d="M30 60C46.5685 60 60 46.5685 60 30C60 13.4315 46.5685 0 30 0C13.4315 0 0 13.4315 0 30C0 46.5685 13.4315 60 30 60Z" fill="black"/>
</mask>
<g mask="url(#mask0_15461_40804)">
<path fill-rule="evenodd" clip-rule="evenodd" d="M30.0392 59.8923C46.5901 59.8923 60 46.4825 60 29.9315C60 13.3806 46.5901 -0.0292969 30.0392 -0.0292969C13.4882 -0.0292969 0.0783691 13.3806 0.0783691 29.9315C0.0783691 46.4825 13.4882 59.8923 30.0392 59.8923ZM15.8182 14.9338C15.8182 19.887 18.9937 23.9083 22.8941 26.428C26.6047 28.827 31.0057 26.3417 34.7853 24.0291C39.5486 21.0951 45.7272 20.8017 50.9047 23.7875C52.8722 24.9265 54.5118 26.428 55.7544 28.1539C56.1168 28.6544 56.997 28.4128 56.9452 27.7915C56.2722 19.2485 51.5433 11.1715 43.5526 6.5462C40.8085 4.95842 40.5496 5.28632 39.9801 5.99392C39.1172 7.04669 37.5811 8.92784 25.8108 6.33906C22.1693 5.54516 18.079 6.42536 16.7674 9.91159C16.1806 11.4821 15.8354 13.208 15.8354 14.9166L15.8182 14.9338ZM24.1713 49.7443C28.4687 47.2591 30.3498 42.513 30.5915 37.8704C30.8158 33.4523 26.4494 30.8807 22.5662 28.7752C17.6476 26.1173 14.2994 20.9053 14.2994 14.9338C14.2994 12.6557 14.7826 10.4984 15.6628 8.54815C15.9217 7.97862 15.2831 7.34007 14.7654 7.7025C7.70661 12.5694 3.06406 20.6982 3.06406 29.9315C3.06406 33.0898 3.47829 33.1589 4.37573 33.2969C5.7219 33.5213 8.12083 33.901 11.7624 45.3951C12.8842 48.9504 15.6973 52.0569 19.3734 51.4356C21.0302 51.1595 22.687 50.59 24.1713 49.7443ZM36.6492 25.4788C40.774 23.3733 45.848 22.6312 50.1281 25.0991C51.6124 25.9621 52.924 27.1184 53.994 28.4127C56.3757 31.2949 55.0813 35.2817 52.5616 38.0258C44.4328 46.9312 45.2957 49.2093 45.779 50.4692C46.0896 51.3148 46.2449 51.6945 43.5181 53.2823C35.5274 57.8903 26.1732 57.9421 18.4242 54.2661C17.8546 53.9899 18.079 53.127 18.7003 53.0579C20.8231 52.8336 22.9459 52.1778 24.9134 51.0387C30.0909 48.053 32.9213 42.5475 32.766 36.9557C32.6452 32.5376 32.697 27.4808 36.632 25.4616L36.6492 25.4788Z" fill="white"/>
</g>
<path d="M41.6496 25.9946C41.6496 28.6103 36.4339 30.7307 30 30.7307C23.5661 30.7307 18.3504 28.6103 18.3504 25.9946C18.3504 23.3789 23.6605 20.1137 30.0944 20.1137C36.5283 20.1137 41.6496 23.3789 41.6496 25.9946Z" fill="black"/>
<path fill-rule="evenodd" clip-rule="evenodd" d="M15.0292 17.376L15.7395 17.229C15.9824 17.1645 16.3011 17.1045 16.6679 17.1045H16.8694C17.9342 17.1045 19.0723 17.4758 19.9412 18.4156C20.7262 19.2647 21.0195 20.2873 21.1328 21.0892L21.14 21.1406L21.1455 21.1922C21.1948 21.6585 21.2563 22.2469 21.3299 22.9569C21.3997 23.6297 21.4875 24.3735 21.5938 25.1895C21.7127 26.0085 21.8435 26.8683 21.9863 27.7691C22.1372 28.6458 22.3051 29.5084 22.49 30.3569C22.6704 31.1719 22.8714 31.9406 23.0919 32.6642C23.2248 33.1004 23.3622 33.4829 23.5013 33.8163C23.513 33.799 23.5248 33.7815 23.5365 33.7639C23.7661 33.4197 23.9734 33.0733 24.1594 32.7248C24.3699 32.3304 24.5534 31.9635 24.7115 31.6235L24.7189 31.6076L24.7265 31.5918C24.8358 31.3637 24.9209 31.1734 24.9858 31.0176C24.7462 30.1196 24.5601 29.2172 24.4287 28.3109C24.283 27.3055 24.2142 26.2482 24.2142 25.1446C24.2142 24.4231 24.2683 23.7068 24.3772 22.9969C24.4991 22.2028 24.7153 21.43 25.0449 20.6966C25.3573 20.0014 25.8229 19.4207 26.3895 18.9655C26.8206 18.6191 27.295 18.3341 27.8073 18.1169L27.8298 18.1074L27.8524 18.0983C28.3192 17.9094 28.805 17.774 29.3059 17.6965C29.7245 17.6216 30.1597 17.5749 30.6016 17.5749C31.3193 17.5749 32.0447 17.7385 32.7196 18.1003C33.5097 18.5092 34.0526 19.1165 34.4175 19.6875C34.9768 20.5398 35.3441 21.4785 35.5464 22.4655C35.7358 23.3344 35.831 24.215 35.831 25.1037C35.831 26.0049 35.7559 26.9164 35.6109 27.8361L35.6096 27.8441C35.4797 28.6534 35.3245 29.4616 35.1441 30.2688C35.3184 30.7599 35.5196 31.2667 35.7487 31.7892C35.9759 32.27 36.2227 32.6823 36.4831 33.0354C36.5575 33.1363 36.6311 33.2258 36.7036 33.3054C36.7689 33.1712 36.8351 33.0176 36.9003 32.8422L36.9073 32.8234L36.9146 32.8046C37.142 32.2177 37.3255 31.5528 37.4549 30.801C37.5895 30.0049 37.6516 29.2798 37.6516 28.6212C37.6516 27.7888 37.6232 26.972 37.567 26.1705C37.5144 25.4225 37.4484 24.7402 37.3701 24.1216C37.3147 23.8743 37.2839 23.6143 37.2839 23.3449V23.1412C37.2839 22.2638 37.5017 21.3089 38.1042 20.4518C38.7021 19.6013 39.5155 19.0783 40.3119 18.7733L40.3267 18.7676L41.1927 18.4465L41.2169 18.438C41.6877 18.2726 42.2391 18.1475 42.8442 18.1475C43.9415 18.1475 45.0495 18.5695 45.8631 19.5029C46.5732 20.3176 46.8421 21.2753 46.9539 22.0105C47.0977 22.9138 47.2092 23.818 47.2885 24.7231C47.3829 25.6603 47.4301 26.5985 47.4301 27.5373C47.4301 29.546 47.2181 31.4712 46.7782 33.3024C46.3439 35.1104 45.7164 36.7694 44.864 38.2436C44.0189 39.7127 42.9549 40.9731 41.6378 41.9371C40.2168 42.9772 38.5836 43.5327 36.8148 43.5327C35.0352 43.5327 33.382 42.9358 31.8977 41.9634L31.887 41.9564L31.8764 41.9493C31.2319 41.5191 30.6396 41.008 30.0944 40.4307C29.5446 41.1479 28.9491 41.8022 28.3037 42.3827C27.5323 43.0765 26.6836 43.6549 25.7534 44.0811C24.7715 44.5309 23.7205 44.7802 22.6237 44.7802C20.9404 44.7802 19.3768 44.2496 18.0529 43.1923C16.923 42.2934 16.0136 41.1465 15.2867 39.8388L15.2801 39.827L15.2737 39.8152C14.5931 38.5643 14.0403 37.1773 13.5991 35.6742L13.5968 35.6664C13.1763 34.219 12.8233 32.7267 12.5367 31.1902L12.534 31.1759L12.5315 31.1615C12.2643 29.6471 12.0415 28.1319 11.8633 26.6161L11.8618 26.6039L11.8605 26.5916C11.7 25.1224 11.5578 23.7467 11.4339 22.4648L11.4202 22.3224V21.8725C11.4202 20.9586 11.6469 19.8966 12.3822 18.9719C13.1192 18.045 14.1059 17.5844 15.0033 17.3819L15.0292 17.376ZM19.9032 40.8711C20.6875 41.4983 21.5943 41.8119 22.6237 41.8119C23.261 41.8119 23.8921 41.6687 24.5171 41.3824C25.1421 41.0961 25.7426 40.6939 26.3186 40.1758C26.8945 39.6577 27.4399 39.0442 27.9546 38.3353C28.0478 38.2043 28.1397 38.0714 28.2302 37.9364C28.2551 37.8992 28.2799 37.8618 28.3046 37.8243C28.498 37.531 28.6847 37.2282 28.865 36.9162C28.8988 36.8577 28.9323 36.7988 28.9656 36.7397C29.1044 36.4933 29.2392 36.2412 29.37 35.9834C29.5416 35.629 29.7315 35.4517 29.9399 35.4517C30.1604 35.4517 30.3565 35.629 30.5281 35.9834C30.683 36.2596 30.841 36.5229 31.0021 36.7734C31.0144 36.7924 31.0267 36.8114 31.039 36.8303C31.2495 37.154 31.4653 37.4558 31.6864 37.7358C31.7099 37.7655 31.7334 37.7949 31.757 37.8241C32.3129 38.513 32.9021 39.0651 33.5244 39.4805C34.6273 40.2031 35.7241 40.5644 36.8148 40.5644C37.93 40.5644 38.9533 40.2235 39.8846 39.5418C40.816 38.8602 41.6187 37.9331 42.2927 36.7606C42.979 35.5744 43.5121 34.1906 43.892 32.6091C44.2719 31.0276 44.4618 29.337 44.4618 27.5373C44.4618 26.692 44.4189 25.8467 44.3331 25.0014C44.2596 24.1561 44.1554 23.3108 44.0206 22.4656C43.8858 21.5657 43.4937 21.1158 42.8442 21.1158C42.6481 21.1158 42.4336 21.1567 42.2008 21.2385L41.3736 21.5453C40.6261 21.8316 40.2523 22.3633 40.2523 23.1404V23.3449C40.2523 23.4131 40.2645 23.4813 40.289 23.5494C40.3871 24.2857 40.4667 25.0901 40.528 25.9626C40.5893 26.8352 40.6199 27.7214 40.6199 28.6212C40.6199 29.4665 40.5403 30.3595 40.381 31.3002C40.2216 32.2273 39.9888 33.0863 39.6824 33.877C39.3883 34.6678 39.0207 35.3222 38.5795 35.8403C38.1383 36.3584 37.642 36.6174 37.0905 36.6174C36.4655 36.6174 35.908 36.447 35.4178 36.1061C34.9276 35.7653 34.4864 35.329 34.0942 34.7973C33.7021 34.2656 33.3528 33.6725 33.0465 33.0181C32.7523 32.35 32.495 31.6956 32.2744 31.0548C32.2254 30.9049 32.1825 30.7685 32.1457 30.6458C32.1212 30.5231 32.109 30.4072 32.109 30.2982C32.109 30.0664 32.1519 29.8551 32.2376 29.6642C32.4092 28.9007 32.5563 28.1372 32.6788 27.3737C32.8014 26.5966 32.8626 25.8399 32.8626 25.1037C32.8626 24.422 32.7891 23.7471 32.642 23.0791C32.5072 22.411 32.2683 21.818 31.9251 21.2999C31.7536 21.0272 31.5575 20.8363 31.3369 20.7272C31.1163 20.6045 30.8712 20.5432 30.6016 20.5432C30.3565 20.5432 30.0869 20.5705 29.7928 20.625C29.5109 20.6659 29.2352 20.7409 28.9656 20.85C28.7083 20.959 28.4693 21.1022 28.2487 21.2794C28.0281 21.4567 27.8627 21.668 27.7524 21.9134C27.544 22.3769 27.397 22.8882 27.3112 23.4472C27.2254 24.0062 27.1825 24.572 27.1825 25.1446C27.1825 26.1262 27.2438 27.0397 27.3663 27.885C27.4889 28.7303 27.6666 29.5756 27.8994 30.4209C27.9239 30.5436 27.9423 30.6594 27.9546 30.7685C27.9668 30.8776 27.973 30.9867 27.973 31.0957C27.973 31.3139 27.9362 31.5525 27.8627 31.8115C27.7524 32.1114 27.5992 32.4659 27.4031 32.8749C27.2193 33.2703 27.011 33.6861 26.7781 34.1224C26.5453 34.5587 26.2879 34.9882 26.0061 35.4108C25.7242 35.8335 25.4301 36.2152 25.1237 36.5561C24.8173 36.8833 24.5048 37.1491 24.1862 37.3536C23.8799 37.5581 23.5735 37.6604 23.2671 37.6604C22.8382 37.6604 22.4399 37.4831 22.0723 37.1287C21.7169 36.7606 21.386 36.2697 21.0796 35.6562C20.7733 35.0427 20.4975 34.3337 20.2524 33.5294C20.0073 32.725 19.7867 31.8797 19.5907 30.9935C19.3946 30.0936 19.2169 29.1802 19.0576 28.2531C18.9105 27.326 18.7757 26.4398 18.6532 25.5945C18.5429 24.7492 18.451 23.9721 18.3774 23.2631C18.3039 22.5542 18.2426 21.9679 18.1936 21.5044C18.0588 20.55 17.6176 20.0728 16.8701 20.0728H16.6679C16.6066 20.0728 16.5331 20.0865 16.4473 20.1137L15.6569 20.2773C14.8113 20.4682 14.3885 20.9999 14.3885 21.8725V22.1792C14.5111 23.4472 14.652 24.8106 14.8113 26.2694C14.9829 27.7282 15.1973 29.187 15.4547 30.6458C15.7243 32.091 16.0552 33.4885 16.4473 34.8382C16.8395 36.1743 17.3174 37.3604 17.8811 38.3966C18.4571 39.4328 19.1311 40.2576 19.9032 40.8711Z" fill="black"/>
<path d="M14.3885 21.8729C14.3885 21.0003 14.8113 20.4686 15.6569 20.2777L16.4474 20.1141C16.5331 20.0869 16.6067 20.0732 16.6679 20.0732C16.7415 20.0732 16.8089 20.0732 16.8701 20.0732C17.6177 20.0732 18.0589 20.5504 18.1937 21.5048C18.2427 21.9683 18.304 22.5546 18.3775 23.2635C18.451 23.9725 18.5429 24.7496 18.6532 25.5949C18.7758 26.4402 18.9106 27.3264 19.0576 28.2535C19.2169 29.1806 19.3946 30.0941 19.5907 30.9939C19.7868 31.8801 20.0074 32.7254 20.2525 33.5298C20.4976 34.3342 20.7733 35.0431 21.0797 35.6566C21.386 36.2702 21.7169 36.761 22.0723 37.1291C22.44 37.4836 22.8382 37.6608 23.2672 37.6608C23.5735 37.6608 23.8799 37.5585 24.1863 37.354C24.5049 37.1495 24.8174 36.8837 25.1238 36.5565C25.4301 36.2156 25.7243 35.8339 26.0061 35.4112C26.288 34.9886 26.5453 34.5591 26.7782 34.1228C27.011 33.6866 27.2193 33.2707 27.4032 32.8753C27.5992 32.4663 27.7524 32.1119 27.8627 31.8119C27.9362 31.5529 27.973 31.3143 27.973 31.0961C27.973 30.9871 27.9669 30.878 27.9546 30.7689C27.9424 30.6599 27.924 30.544 27.8995 30.4213C27.6666 29.576 27.4889 28.7307 27.3664 27.8854C27.2438 27.0401 27.1826 26.1266 27.1826 25.145C27.1826 24.5724 27.2255 24.0066 27.3112 23.4476C27.397 22.8886 27.5441 22.3773 27.7524 21.9138C27.8627 21.6684 28.0282 21.4571 28.2487 21.2798C28.4693 21.1026 28.7083 20.9594 28.9656 20.8504C29.2353 20.7413 29.511 20.6663 29.7928 20.6254C30.087 20.5709 30.3566 20.5436 30.6017 20.5436C30.8713 20.5436 31.1164 20.605 31.337 20.7277C31.5575 20.8367 31.7536 21.0276 31.9252 21.3003C32.2683 21.8184 32.5073 22.4114 32.6421 23.0795C32.7891 23.7475 32.8627 24.4224 32.8627 25.1041C32.8627 25.8403 32.8014 26.597 32.6789 27.3741C32.5563 28.1376 32.4093 28.9011 32.2377 29.6646C32.1519 29.8555 32.109 30.0668 32.109 30.2986C32.109 30.4076 32.1213 30.5235 32.1458 30.6462C32.1825 30.7689 32.2254 30.9053 32.2744 31.0552C32.495 31.696 32.7524 32.3504 33.0465 33.0185C33.3529 33.6729 33.7021 34.266 34.0943 34.7977C34.4864 35.3294 34.9276 35.7657 35.4178 36.1065C35.908 36.4474 36.4656 36.6178 37.0906 36.6178C37.6421 36.6178 38.1384 36.3588 38.5796 35.8407C39.0207 35.3226 39.3884 34.6682 39.6825 33.8774C39.9888 33.0867 40.2217 32.2277 40.381 31.3006C40.5403 30.3599 40.62 29.4669 40.62 28.6216C40.62 27.7218 40.5893 26.8356 40.5281 25.963C40.4668 25.0905 40.3871 24.2861 40.2891 23.5499C40.2646 23.4817 40.2523 23.4135 40.2523 23.3453C40.2523 23.2772 40.2523 23.209 40.2523 23.1408C40.2523 22.3637 40.6261 21.832 41.3736 21.5457L42.2008 21.2389C42.4337 21.1571 42.6481 21.1162 42.8442 21.1162C43.4937 21.1162 43.8859 21.5661 44.0207 22.466C44.1555 23.3113 44.2597 24.1566 44.3332 25.0018C44.419 25.8471 44.4619 26.6924 44.4619 27.5377C44.4619 29.3374 44.2719 31.028 43.892 32.6095C43.5121 34.191 42.979 35.5748 42.2928 36.761C41.6187 37.9335 40.816 38.8606 39.8847 39.5423C38.9533 40.2239 37.93 40.5648 36.8149 40.5648C35.7242 40.5648 34.6274 40.2035 33.5244 39.4809C32.4215 38.7447 31.4227 37.579 30.5281 35.9838C30.3566 35.6294 30.1605 35.4521 29.9399 35.4521C29.7316 35.4521 29.5416 35.6294 29.3701 35.9838C28.9411 36.8291 28.4693 37.6131 27.9546 38.3357C27.4399 39.0446 26.8946 39.6581 26.3186 40.1762C25.7426 40.6943 25.1421 41.0965 24.5172 41.3828C23.8922 41.6691 23.261 41.8123 22.6238 41.8123C21.5944 41.8123 20.6875 41.4987 19.9032 40.8715C19.1312 40.258 18.4571 39.4332 17.8812 38.397C17.3174 37.3609 16.8395 36.1747 16.4474 34.8386C16.0552 33.4889 15.7243 32.0914 15.4547 30.6462C15.1974 29.1874 14.9829 27.7286 14.8113 26.2698C14.652 24.811 14.5111 23.4476 14.3885 22.1797V21.8729Z" fill="white"/>
</svg>
