<svg width="540" height="540" viewBox="0 0 540 540" fill="none" xmlns="http://www.w3.org/2000/svg">
<path d="M214.538 486H356.276V462.39L396.869 461.872L405.337 438.781L443.503 438.117V414.074H466.358V392.676H491.444V344.734H513.082V297.036H495.023V251.945H468.028V233.961H445.65V209.684H422.341V185.183H375.611V160.869H331.041V138.677H306.615V114.288H261.114V90H189.133V107.874L162.035 117.175V179.332H116.332V204.012H91.8633V228.551H69.4336V252.035H45.0352V296.965H24.1172L24.2578 344.004H46.5469V392.062H72.0352V414H99.0703V440.965H135.07V467.93L214.538 462.39V486Z" fill="#42F771"/>
<path d="M378 342H261V369H378V342Z" fill="#3C1F05"/>
<path d="M189 108.009C194.988 108.059 201.012 107.973 207 108.009V134.991C201.012 135.027 194.988 134.941 189 134.991C189.036 126.021 189.027 116.979 189 108.009Z" fill="#236658"/>
<path d="M162 154.878V179.432C146.775 179.477 131.497 179.365 116.272 179.432C116.198 187.606 116.326 195.824 116.272 203.998C108.133 204.02 99.9412 203.953 91.8021 203.998C91.7276 212.172 91.8553 220.39 91.8021 228.564C84.3653 228.586 76.8965 228.519 69.4597 228.564C69.4171 236.357 69.4916 244.207 69.4597 252H45V228.564C53.139 228.53 61.3206 228.608 69.4597 228.564C69.5022 220.39 69.4277 212.172 69.4597 203.998C76.8965 203.976 84.3653 204.043 91.8021 203.998C91.8766 195.824 91.7489 187.606 91.8021 179.432C99.9412 179.421 108.133 179.477 116.272 179.432C116.347 171.27 116.219 163.04 116.272 154.878H138.604V108.005C146.392 107.983 154.223 108.039 162 108.005C162 116.179 162 124.397 162 132.571" fill="#236658"/>
<path d="M162 117V90H188.994C189.019 98.9754 188.957 108.025 188.994 117C180.021 116.951 170.973 116.963 162 117Z" fill="#236658"/>
<path d="M513.135 297.001C521.088 297.044 529.085 296.968 537.027 297.001V344.785C529.074 344.817 521.077 344.741 513.135 344.785C513.091 360.702 513.168 376.662 513.135 392.579C505.91 392.601 498.63 392.536 491.405 392.579C491.372 399.803 491.426 407.082 491.405 414.306C483.093 414.328 474.726 414.262 466.415 414.306C466.371 422.259 466.436 430.256 466.415 438.209C458.82 438.23 451.192 438.165 443.598 438.209C443.554 446.521 444.026 453.788 443.994 462.101H396.899V485.992H348.027V462.101H396.899V438.209C412.447 438.154 428.05 438.285 443.598 438.209C443.641 430.256 443.565 422.259 443.598 414.306C451.192 414.284 458.82 414.349 466.415 414.306C466.447 407.082 466.393 399.803 466.415 392.579C474.726 392.557 483.093 392.623 491.405 392.579C491.491 376.673 491.35 360.702 491.405 344.785C498.63 344.763 505.91 344.828 513.135 344.785C513.178 328.878 513.189 312.907 513.135 297.001Z" fill="#3C1F05"/>
<path d="M144 467.991C129.017 467.941 113.993 468.027 99.0092 467.991C98.9683 459.01 99.0808 449.98 99.0092 441" fill="#236658"/>
<path d="M99 441.015C113.983 441.101 129.007 440.954 143.991 441.015C144.032 449.994 143.919 459.022 143.991 468" fill="#236658"/>
<path d="M71.9953 413.995C63.5207 413.952 54.9907 414.017 46.5161 413.995C46.494 406.723 46.5605 399.396 46.5161 392.123C39.1493 392.09 31.7271 392.145 24.3603 392.123C24.316 376.099 24.4379 360.032 24.3603 344.008C16.2513 343.965 8.09795 344.041 0 344.008V297H24.3603C24.4046 312.651 24.2939 328.357 24.3603 344.008C31.7271 344.052 39.1493 343.987 46.5161 344.008C46.5715 360.032 46.4275 376.099 46.5161 392.123C54.9907 392.167 63.5207 392.09 71.9953 392.123C72.0175 399.396 71.951 406.723 71.9953 413.995Z" fill="#236658"/>
<path d="M261 63H189V90H261V63Z" fill="#236658"/>
<path d="M467.996 233.995C460.575 233.961 453.121 234.017 445.7 233.995C445.657 225.886 445.774 217.733 445.7 209.624C437.928 209.58 430.113 209.657 422.341 209.624C422.299 201.515 422.416 193.362 422.341 185.253C406.787 185.187 391.19 185.298 375.636 185.253C375.614 177.144 375.678 168.991 375.636 160.882C360.793 160.827 345.896 160.916 331.053 160.882C331.032 153.517 331.096 146.096 331.053 138.73C322.931 138.697 314.766 138.752 306.633 138.73C306.591 130.622 306.708 122.468 306.633 114.36C291.44 114.293 276.193 114.404 261 114.36V90H306.633C306.687 98.0977 306.559 106.262 306.633 114.36C314.756 114.393 322.92 114.337 331.053 114.36C331.075 122.468 331.011 130.622 331.053 138.73C345.896 138.797 360.793 138.686 375.636 138.73C375.657 146.096 375.593 153.517 375.636 160.882C391.19 160.938 406.787 160.849 422.341 160.882C422.384 168.991 422.267 177.144 422.341 185.253C430.113 185.286 437.928 185.231 445.7 185.253C445.742 193.362 445.625 201.515 445.7 209.624C453.111 209.668 460.575 209.591 467.996 209.624C468.017 217.733 467.943 225.886 467.996 233.995Z" fill="#236658"/>
<path d="M45 252H27V297H45V252Z" fill="#236658"/>
<path d="M189 324H162V351H189V324Z" fill="#3C1F05"/>
<path d="M450 324H423V351H450V324Z" fill="#3C1F05"/>
<path d="M513 252H495V297H513V252Z" fill="#236658"/>
<path d="M495 225H468V252H495V225Z" fill="#3C1F05"/>
<path d="M189 135H144V153H189V135Z" fill="#3C1F05"/>
<path d="M99 414H72V441H99V414Z" fill="#3C1F05"/>
<path d="M216 459H144V486H216V459Z" fill="#3C1F05"/>
</svg>
