<svg xmlns="http://www.w3.org/2000/svg" viewBox="0 -0.5 52 52" shape-rendering="crispEdges">
<metadata>made by nedu with love</metadata>
<path stroke="#29102b" d="M20 0h12M17 1h18M14 2h24M13 3h26M11 4h10M31 4h10M10 5h8M20 5h13M35 5h7M9 6h7M17 6h17M36 6h7M8 7h6M16 7h19M38 7h6M7 8h6M14 8h7M25 8h6M32 8h5M39 8h6M6 9h6M13 9h6M27 9h7M40 9h6M5 10h6M12 10h6M31 10h7M41 10h6M4 11h6M11 11h5M34 11h5M42 11h6M4 12h5M10 12h5M18 12h6M37 12h3M43 12h5M3 13h5M9 13h5M16 13h15M39 13h2M44 13h5M2 14h5M8 14h5M15 14h17M40 14h2M45 14h5M2 15h5M8 15h4M14 15h5M28 15h5M41 15h2M45 15h5M2 16h4M7 16h4M13 16h5M23 16h3M29 16h5M46 16h4M1 17h9M13 17h4M22 17h5M30 17h6M44 17h1M47 17h4M1 18h4M6 18h3M12 18h4M21 18h7M31 18h6M47 18h4M1 19h4M6 19h2M11 19h5M21 19h8M32 19h6M44 19h1M47 19h4M0 20h8M11 20h5M21 20h7M32 20h7M45 20h1M48 20h4M0 21h4M5 21h3M11 21h4M21 21h9M32 21h7M44 21h1M46 21h1M48 21h4M0 22h4M5 22h3M11 22h4M20 22h10M32 22h8M45 22h1M47 22h5M0 23h4M5 23h3M11 23h4M20 23h9M32 23h8M46 23h1M48 23h4M0 24h4M5 24h3M11 24h4M20 24h9M32 24h9M45 24h1M47 24h5M0 25h4M5 25h3M12 25h3M20 25h8M32 25h9M46 25h1M48 25h4M0 26h4M5 26h3M12 26h4M21 26h6M31 26h10M45 26h1M47 26h5M0 27h4M5 27h3M13 27h3M22 27h4M31 27h10M46 27h1M48 27h4M0 28h4M5 28h3M13 28h3M23 28h2M30 28h10M47 28h5M0 29h4M5 29h4M14 29h3M30 29h9M46 29h1M48 29h4M0 30h4M5 30h5M14 30h4M29 30h9M47 30h5M0 31h9M15 31h4M29 31h8M46 31h1M48 31h4M1 32h4M6 32h4M16 32h5M28 32h8M45 32h1M47 32h4M1 33h4M6 33h3M10 33h1M17 33h17M44 33h1M46 33h5M1 34h9M11 34h1M18 34h15M43 34h1M45 34h1M47 34h4M2 35h4M7 35h4M19 35h13M42 35h1M44 35h6M2 36h5M8 36h2M11 36h1M20 36h10M41 36h1M45 36h5M2 37h5M8 37h3M12 37h1M21 37h8M40 37h1M45 37h5M3 38h5M9 38h2M13 38h1M37 38h1M39 38h1M44 38h5M4 39h5M10 39h2M14 39h1M34 39h1M36 39h1M38 39h1M40 39h1M43 39h5M4 40h6M11 40h2M15 40h1M31 40h1M33 40h1M35 40h1M37 40h1M39 40h1M41 40h7M5 41h6M12 41h1M16 41h1M30 41h1M32 41h1M34 41h1M36 41h1M38 41h9M6 42h6M17 42h1M19 42h1M27 42h3M31 42h1M33 42h1M35 42h1M37 42h1M39 42h7M7 43h6M18 43h1M20 43h1M25 43h1M28 43h3M32 43h1M34 43h1M36 43h1M38 43h7M8 44h6M19 44h1M26 44h1M29 44h3M33 44h1M35 44h1M37 44h7M9 45h6M20 45h1M27 45h1M30 45h3M34 45h1M36 45h7M10 46h7M20 46h3M27 46h15M11 47h30M13 48h26M14 49h24M17 50h18M20 51h12" />
<path stroke="#ffffff" d="M21 4h10M18 5h2M33 5h2M16 6h1M34 6h2M14 7h2M35 7h3M13 8h1M21 8h4M31 8h1M37 8h2M12 9h1M19 9h8M34 9h6M11 10h1M18 10h13M38 10h3M10 11h1M16 11h18M39 11h3M9 12h1M15 12h3M24 12h13M40 12h3M8 13h1M14 13h2M31 13h8M41 13h3M7 14h1M13 14h2M32 14h8M42 14h3M7 15h1M12 15h2M19 15h9M33 15h8M43 15h2M6 16h1M11 16h2M18 16h5M26 16h3M34 16h12M10 17h3M17 17h5M27 17h3M36 17h8M45 17h2M5 18h1M9 18h3M16 18h5M28 18h3M37 18h10M5 19h1M8 19h3M16 19h5M29 19h3M38 19h6M45 19h2M8 20h3M16 20h5M28 20h4M39 20h6M46 20h2M4 21h1M8 21h3M15 21h6M30 21h2M39 21h5M45 21h1M47 21h1M4 22h1M8 22h3M15 22h5M30 22h2M40 22h5M46 22h1M4 23h1M8 23h3M15 23h5M29 23h3M40 23h6M47 23h1M4 24h1M8 24h3M15 24h5M29 24h3M41 24h4M46 24h1M4 25h1M8 25h4M15 25h5M28 25h4M41 25h5M47 25h1M4 26h1M8 26h4M16 26h5M27 26h4M41 26h4M46 26h1M4 27h1M8 27h5M16 27h6M26 27h5M41 27h5M47 27h1M4 28h1M8 28h5M16 28h7M25 28h5M40 28h7M4 29h1M9 29h5M17 29h13M39 29h7M47 29h1M4 30h1M10 30h4M18 30h11M38 30h9M9 31h6M19 31h10M37 31h9M47 31h1M5 32h1M10 32h6M21 32h7M36 32h9M46 32h1M5 33h1M9 33h1M11 33h6M34 33h10M45 33h1M10 34h1M12 34h6M33 34h10M44 34h1M46 34h1M6 35h1M11 35h8M32 35h10M43 35h1M7 36h1M10 36h1M12 36h8M30 36h11M42 36h3M7 37h1M11 37h1M13 37h8M29 37h11M41 37h4M8 38h1M11 38h2M14 38h23M38 38h1M40 38h4M9 39h1M12 39h2M15 39h19M35 39h1M37 39h1M39 39h1M41 39h2M10 40h1M13 40h2M16 40h15M32 40h1M34 40h1M36 40h1M38 40h1M40 40h1M11 41h1M13 41h3M17 41h13M31 41h1M33 41h1M35 41h1M37 41h1M12 42h5M18 42h1M20 42h7M30 42h1M32 42h1M34 42h1M36 42h1M38 42h1M13 43h5M19 43h1M21 43h4M26 43h2M31 43h1M33 43h1M35 43h1M37 43h1M14 44h5M20 44h6M27 44h2M32 44h1M34 44h1M36 44h1M15 45h5M21 45h6M28 45h2M33 45h1M35 45h1M17 46h3M23 46h4" />
</svg>